<svg width="1090" height="110" viewBox="0 0 1090 110" fill="none" xmlns="http://www.w3.org/2000/svg">
<rect width="1090" height="110" rx="50" fill="#F6F6F6" fill-opacity="0.5"/>
<rect x="14" y="17" width="1062" height="76" rx="38" fill="#F6F6F6"/>
<rect x="1000" y="17" width="76" height="76" rx="38" fill="#1C9FE3"/>
<path d="M1036.58 40.4167C1043.62 40.4167 1049.33 46.2967 1049.33 53.5417C1049.33 60.7867 1043.62 66.6667 1036.58 66.6667C1029.55 66.6667 1023.83 60.7867 1023.83 53.5417C1023.83 46.2967 1029.55 40.4167 1036.58 40.4167ZM1036.58 63.75C1042.06 63.75 1046.5 59.1811 1046.5 53.5417C1046.5 47.9009 1042.06 43.3334 1036.58 43.3334C1031.1 43.3334 1026.67 47.9009 1026.67 53.5417C1026.67 59.1811 1031.1 63.75 1036.58 63.75ZM1048.6 63.8536L1052.61 67.9777L1050.61 70.0413L1046.6 65.9156L1048.6 63.8536Z" fill="#F6F6F6"/>
<path d="M54 55C54.6417 55 55.1912 54.7713 55.6485 54.314C56.105 53.8574 56.3333 53.3083 56.3333 52.6666C56.3333 52.025 56.105 51.4755 55.6485 51.0181C55.1912 50.5616 54.6417 50.3333 54 50.3333C53.3583 50.3333 52.8092 50.5616 52.3527 51.0181C51.8953 51.4755 51.6667 52.025 51.6667 52.6666C51.6667 53.3083 51.8953 53.8574 52.3527 54.314C52.8092 54.7713 53.3583 55 54 55ZM54 66.6666C50.8694 64.0028 48.5314 61.5283 46.986 59.2431C45.4398 56.9588 44.6667 54.8444 44.6667 52.9C44.6667 49.9833 45.605 47.6597 47.4818 45.9291C49.3578 44.1986 51.5305 43.3333 54 43.3333C56.4694 43.3333 58.6422 44.1986 60.5182 45.9291C62.3949 47.6597 63.3333 49.9833 63.3333 52.9C63.3333 54.8444 62.5606 56.9588 61.0152 59.2431C59.4689 61.5283 57.1305 64.0028 54 66.6666Z" fill="#D01A2B"/>
<path d="M89.962 61V48.4H98.224L98.206 49.966H91.294L91.726 49.516L91.744 61H89.962ZM101.477 61.108C100.517 61.108 99.6648 60.898 98.9208 60.478C98.1768 60.058 97.5888 59.482 97.1568 58.75C96.7248 58.006 96.5088 57.166 96.5088 56.23C96.5088 55.282 96.7248 54.442 97.1568 53.71C97.5888 52.978 98.1768 52.408 98.9208 52C99.6648 51.58 100.517 51.37 101.477 51.37C102.425 51.37 103.271 51.58 104.015 52C104.771 52.408 105.359 52.978 105.779 53.71C106.211 54.43 106.427 55.27 106.427 56.23C106.427 57.178 106.211 58.018 105.779 58.75C105.359 59.482 104.771 60.058 104.015 60.478C103.271 60.898 102.425 61.108 101.477 61.108ZM101.477 59.596C102.089 59.596 102.635 59.458 103.115 59.182C103.607 58.906 103.991 58.516 104.267 58.012C104.543 57.496 104.681 56.902 104.681 56.23C104.681 55.546 104.543 54.958 104.267 54.466C103.991 53.962 103.607 53.572 103.115 53.296C102.635 53.02 102.089 52.882 101.477 52.882C100.865 52.882 100.319 53.02 99.8388 53.296C99.3588 53.572 98.9748 53.962 98.6868 54.466C98.3988 54.958 98.2548 55.546 98.2548 56.23C98.2548 56.902 98.3988 57.496 98.6868 58.012C98.9748 58.516 99.3588 58.906 99.8388 59.182C100.319 59.458 100.865 59.596 101.477 59.596ZM113.98 61.108C113.188 61.108 112.462 60.928 111.802 60.568C111.154 60.196 110.632 59.65 110.236 58.93C109.852 58.21 109.66 57.31 109.66 56.23C109.66 55.15 109.846 54.25 110.218 53.53C110.602 52.81 111.118 52.27 111.766 51.91C112.426 51.55 113.164 51.37 113.98 51.37C114.916 51.37 115.744 51.574 116.464 51.982C117.184 52.39 117.754 52.96 118.174 53.692C118.594 54.412 118.804 55.258 118.804 56.23C118.804 57.202 118.594 58.054 118.174 58.786C117.754 59.518 117.184 60.088 116.464 60.496C115.744 60.904 114.916 61.108 113.98 61.108ZM108.922 64.492V51.46H110.578V54.034L110.47 56.248L110.65 58.462V64.492H108.922ZM113.836 59.596C114.448 59.596 114.994 59.458 115.474 59.182C115.966 58.906 116.35 58.516 116.626 58.012C116.914 57.496 117.058 56.902 117.058 56.23C117.058 55.546 116.914 54.958 116.626 54.466C116.35 53.962 115.966 53.572 115.474 53.296C114.994 53.02 114.448 52.882 113.836 52.882C113.236 52.882 112.69 53.02 112.198 53.296C111.718 53.572 111.334 53.962 111.046 54.466C110.77 54.958 110.632 55.546 110.632 56.23C110.632 56.902 110.77 57.496 111.046 58.012C111.334 58.516 111.718 58.906 112.198 59.182C112.69 59.458 113.236 59.596 113.836 59.596ZM125.401 61.108C124.441 61.108 123.589 60.898 122.845 60.478C122.101 60.058 121.513 59.482 121.081 58.75C120.649 58.006 120.433 57.166 120.433 56.23C120.433 55.282 120.649 54.442 121.081 53.71C121.513 52.978 122.101 52.408 122.845 52C123.589 51.58 124.441 51.37 125.401 51.37C126.349 51.37 127.195 51.58 127.939 52C128.695 52.408 129.283 52.978 129.703 53.71C130.135 54.43 130.351 55.27 130.351 56.23C130.351 57.178 130.135 58.018 129.703 58.75C129.283 59.482 128.695 60.058 127.939 60.478C127.195 60.898 126.349 61.108 125.401 61.108ZM125.401 59.596C126.013 59.596 126.559 59.458 127.039 59.182C127.531 58.906 127.915 58.516 128.191 58.012C128.467 57.496 128.605 56.902 128.605 56.23C128.605 55.546 128.467 54.958 128.191 54.466C127.915 53.962 127.531 53.572 127.039 53.296C126.559 53.02 126.013 52.882 125.401 52.882C124.789 52.882 124.243 53.02 123.763 53.296C123.283 53.572 122.899 53.962 122.611 54.466C122.323 54.958 122.179 55.546 122.179 56.23C122.179 56.902 122.323 57.496 122.611 58.012C122.899 58.516 123.283 58.906 123.763 59.182C124.243 59.458 124.789 59.596 125.401 59.596ZM139.292 60.19V52.972H135.152L135.062 54.808C135.038 55.408 134.996 55.99 134.936 56.554C134.888 57.106 134.804 57.616 134.684 58.084C134.576 58.552 134.414 58.936 134.198 59.236C133.982 59.536 133.694 59.722 133.334 59.794L131.624 59.488C131.996 59.5 132.296 59.38 132.524 59.128C132.752 58.864 132.926 58.504 133.046 58.048C133.178 57.592 133.274 57.076 133.334 56.5C133.394 55.912 133.442 55.306 133.478 54.682L133.622 51.46H141.02V60.19H139.292ZM131.246 63.214V59.488H142.478V63.214H140.858V61H132.884V63.214H131.246ZM149.563 61V51.46H151.291V58.408L157.141 51.46H158.707V61H156.979V54.052L151.147 61H149.563ZM160.477 60.982L160.585 59.524C160.669 59.536 160.747 59.548 160.819 59.56C160.891 59.572 160.957 59.578 161.017 59.578C161.401 59.578 161.701 59.446 161.917 59.182C162.145 58.918 162.313 58.57 162.421 58.138C162.529 57.694 162.607 57.196 162.655 56.644C162.703 56.092 162.739 55.54 162.763 54.988L162.925 51.46H170.251V61H168.523V52.468L168.937 52.972H164.041L164.437 52.45L164.311 55.096C164.275 55.936 164.209 56.722 164.113 57.454C164.017 58.186 163.867 58.828 163.663 59.38C163.471 59.932 163.201 60.364 162.853 60.676C162.517 60.988 162.079 61.144 161.539 61.144C161.383 61.144 161.215 61.126 161.035 61.09C160.867 61.066 160.681 61.03 160.477 60.982ZM173.592 61V51.46H175.32V58.408L181.17 51.46H182.736V61H181.008V54.052L175.176 61H173.592ZM195.01 61.108C194.05 61.108 193.198 60.898 192.454 60.478C191.71 60.058 191.122 59.482 190.69 58.75C190.258 58.006 190.042 57.166 190.042 56.23C190.042 55.282 190.258 54.442 190.69 53.71C191.122 52.978 191.71 52.408 192.454 52C193.198 51.58 194.05 51.37 195.01 51.37C195.958 51.37 196.804 51.58 197.548 52C198.304 52.408 198.892 52.978 199.312 53.71C199.744 54.43 199.96 55.27 199.96 56.23C199.96 57.178 199.744 58.018 199.312 58.75C198.892 59.482 198.304 60.058 197.548 60.478C196.804 60.898 195.958 61.108 195.01 61.108ZM195.01 59.596C195.622 59.596 196.168 59.458 196.648 59.182C197.14 58.906 197.524 58.516 197.8 58.012C198.076 57.496 198.214 56.902 198.214 56.23C198.214 55.546 198.076 54.958 197.8 54.466C197.524 53.962 197.14 53.572 196.648 53.296C196.168 53.02 195.622 52.882 195.01 52.882C194.398 52.882 193.852 53.02 193.372 53.296C192.892 53.572 192.508 53.962 192.22 54.466C191.932 54.958 191.788 55.546 191.788 56.23C191.788 56.902 191.932 57.496 192.22 58.012C192.508 58.516 192.892 58.906 193.372 59.182C193.852 59.458 194.398 59.596 195.01 59.596ZM203.994 61V52.522L204.426 52.972H200.502V51.46H209.214V52.972H205.308L205.722 52.522V61H203.994ZM214.807 61.108C213.787 61.108 212.887 60.898 212.107 60.478C211.339 60.058 210.739 59.482 210.307 58.75C209.887 58.018 209.677 57.178 209.677 56.23C209.677 55.282 209.881 54.442 210.289 53.71C210.709 52.978 211.279 52.408 211.999 52C212.731 51.58 213.553 51.37 214.465 51.37C215.389 51.37 216.205 51.574 216.913 51.982C217.621 52.39 218.173 52.966 218.569 53.71C218.977 54.442 219.181 55.3 219.181 56.284C219.181 56.356 219.175 56.44 219.163 56.536C219.163 56.632 219.157 56.722 219.145 56.806H211.027V55.564H218.245L217.543 55.996C217.555 55.384 217.429 54.838 217.165 54.358C216.901 53.878 216.535 53.506 216.067 53.242C215.611 52.966 215.077 52.828 214.465 52.828C213.865 52.828 213.331 52.966 212.863 53.242C212.395 53.506 212.029 53.884 211.765 54.376C211.501 54.856 211.369 55.408 211.369 56.032V56.32C211.369 56.956 211.513 57.526 211.801 58.03C212.101 58.522 212.515 58.906 213.043 59.182C213.571 59.458 214.177 59.596 214.861 59.596C215.425 59.596 215.935 59.5 216.391 59.308C216.859 59.116 217.267 58.828 217.615 58.444L218.569 59.56C218.137 60.064 217.597 60.448 216.949 60.712C216.313 60.976 215.599 61.108 214.807 61.108ZM220.119 60.982L220.227 59.524C220.311 59.536 220.389 59.548 220.461 59.56C220.533 59.572 220.599 59.578 220.659 59.578C221.043 59.578 221.343 59.446 221.559 59.182C221.787 58.918 221.955 58.57 222.063 58.138C222.171 57.694 222.249 57.196 222.297 56.644C222.345 56.092 222.381 55.54 222.405 54.988L222.567 51.46H229.893V61H228.165V52.468L228.579 52.972H223.683L224.079 52.45L223.953 55.096C223.917 55.936 223.851 56.722 223.755 57.454C223.659 58.186 223.509 58.828 223.305 59.38C223.113 59.932 222.843 60.364 222.495 60.676C222.159 60.988 221.721 61.144 221.181 61.144C221.025 61.144 220.857 61.126 220.677 61.09C220.509 61.066 220.323 61.03 220.119 60.982ZM237.645 54.7C238.857 54.712 239.781 54.988 240.417 55.528C241.053 56.068 241.371 56.83 241.371 57.814C241.371 58.846 241.023 59.644 240.327 60.208C239.631 60.76 238.647 61.03 237.375 61.018L233.235 61V51.46H234.963V54.682L237.645 54.7ZM237.231 59.704C238.011 59.716 238.599 59.56 238.995 59.236C239.403 58.912 239.607 58.432 239.607 57.796C239.607 57.172 239.409 56.716 239.013 56.428C238.617 56.14 238.023 55.99 237.231 55.978L234.963 55.942V59.686L237.231 59.704Z" fill="#808080"/>
<path d="M439.576 59.632L440.206 58.3C440.758 58.732 441.364 59.056 442.024 59.272C442.696 59.488 443.362 59.602 444.022 59.614C444.682 59.614 445.288 59.524 445.84 59.344C446.404 59.164 446.854 58.894 447.19 58.534C447.526 58.174 447.694 57.73 447.694 57.202C447.694 56.554 447.43 56.062 446.902 55.726C446.386 55.39 445.666 55.222 444.742 55.222H441.934V53.764H444.616C445.42 53.764 446.044 53.602 446.488 53.278C446.944 52.942 447.172 52.48 447.172 51.892C447.172 51.448 447.034 51.076 446.758 50.776C446.494 50.464 446.128 50.23 445.66 50.074C445.204 49.918 444.682 49.84 444.094 49.84C443.518 49.828 442.924 49.906 442.312 50.074C441.7 50.23 441.112 50.482 440.548 50.83L439.972 49.354C440.74 48.922 441.538 48.622 442.366 48.454C443.206 48.274 444.016 48.22 444.796 48.292C445.576 48.352 446.278 48.532 446.902 48.832C447.538 49.12 448.042 49.504 448.414 49.984C448.798 50.452 448.99 51.016 448.99 51.676C448.99 52.276 448.834 52.81 448.522 53.278C448.21 53.734 447.778 54.088 447.226 54.34C446.674 54.58 446.032 54.7 445.3 54.7L445.372 54.214C446.212 54.214 446.938 54.352 447.55 54.628C448.174 54.892 448.654 55.27 448.99 55.762C449.338 56.254 449.512 56.824 449.512 57.472C449.512 58.084 449.356 58.63 449.044 59.11C448.732 59.578 448.306 59.974 447.766 60.298C447.238 60.61 446.632 60.838 445.948 60.982C445.276 61.126 444.568 61.174 443.824 61.126C443.08 61.078 442.342 60.934 441.61 60.694C440.89 60.454 440.212 60.1 439.576 59.632ZM458.073 61V58.984L457.983 58.606V55.168C457.983 54.436 457.767 53.872 457.335 53.476C456.915 53.068 456.279 52.864 455.427 52.864C454.863 52.864 454.311 52.96 453.771 53.152C453.231 53.332 452.775 53.578 452.403 53.89L451.683 52.594C452.175 52.198 452.763 51.898 453.447 51.694C454.143 51.478 454.869 51.37 455.625 51.37C456.933 51.37 457.941 51.688 458.649 52.324C459.357 52.96 459.711 53.932 459.711 55.24V61H458.073ZM454.941 61.108C454.233 61.108 453.609 60.988 453.069 60.748C452.541 60.508 452.133 60.178 451.845 59.758C451.557 59.326 451.413 58.84 451.413 58.3C451.413 57.784 451.533 57.316 451.773 56.896C452.025 56.476 452.427 56.14 452.979 55.888C453.543 55.636 454.299 55.51 455.247 55.51H458.271V56.752H455.319C454.455 56.752 453.873 56.896 453.573 57.184C453.273 57.472 453.123 57.82 453.123 58.228C453.123 58.696 453.309 59.074 453.681 59.362C454.053 59.638 454.569 59.776 455.229 59.776C455.877 59.776 456.441 59.632 456.921 59.344C457.413 59.056 457.767 58.636 457.983 58.084L458.325 59.272C458.097 59.836 457.695 60.286 457.119 60.622C456.543 60.946 455.817 61.108 454.941 61.108ZM467.07 61.108C466.05 61.108 465.15 60.898 464.37 60.478C463.602 60.058 463.002 59.482 462.57 58.75C462.15 58.018 461.94 57.178 461.94 56.23C461.94 55.282 462.144 54.442 462.552 53.71C462.972 52.978 463.542 52.408 464.262 52C464.994 51.58 465.816 51.37 466.728 51.37C467.652 51.37 468.468 51.574 469.176 51.982C469.884 52.39 470.436 52.966 470.832 53.71C471.24 54.442 471.444 55.3 471.444 56.284C471.444 56.356 471.438 56.44 471.426 56.536C471.426 56.632 471.42 56.722 471.408 56.806H463.29V55.564H470.508L469.806 55.996C469.818 55.384 469.692 54.838 469.428 54.358C469.164 53.878 468.798 53.506 468.33 53.242C467.874 52.966 467.34 52.828 466.728 52.828C466.128 52.828 465.594 52.966 465.126 53.242C464.658 53.506 464.292 53.884 464.028 54.376C463.764 54.856 463.632 55.408 463.632 56.032V56.32C463.632 56.956 463.776 57.526 464.064 58.03C464.364 58.522 464.778 58.906 465.306 59.182C465.834 59.458 466.44 59.596 467.124 59.596C467.688 59.596 468.198 59.5 468.654 59.308C469.122 59.116 469.53 58.828 469.878 58.444L470.832 59.56C470.4 60.064 469.86 60.448 469.212 60.712C468.576 60.976 467.862 61.108 467.07 61.108ZM476.704 61.126C477.544 61.126 478.288 61.006 478.936 60.766C479.596 60.514 480.118 60.172 480.502 59.74C480.886 59.296 481.078 58.786 481.078 58.21C481.078 57.49 480.772 56.92 480.16 56.5C479.548 56.08 478.708 55.87 477.64 55.87L477.568 56.284C478.192 56.284 478.744 56.182 479.224 55.978C479.704 55.774 480.088 55.498 480.376 55.15C480.664 54.79 480.808 54.382 480.808 53.926C480.808 53.386 480.616 52.918 480.232 52.522C479.86 52.126 479.35 51.826 478.702 51.622C478.054 51.406 477.316 51.31 476.488 51.334C475.936 51.346 475.378 51.43 474.814 51.586C474.262 51.73 473.698 51.94 473.122 52.216L473.59 53.566C474.106 53.314 474.61 53.128 475.102 53.008C475.606 52.888 476.098 52.822 476.578 52.81C477.07 52.81 477.496 52.864 477.856 52.972C478.228 53.08 478.516 53.236 478.72 53.44C478.924 53.644 479.026 53.89 479.026 54.178C479.026 54.442 478.936 54.676 478.756 54.88C478.588 55.072 478.348 55.216 478.036 55.312C477.724 55.408 477.358 55.456 476.938 55.456H475.318V56.698H477.046C477.754 56.698 478.306 56.818 478.702 57.058C479.098 57.298 479.296 57.64 479.296 58.084C479.296 58.396 479.188 58.672 478.972 58.912C478.756 59.14 478.444 59.32 478.036 59.452C477.64 59.584 477.166 59.65 476.614 59.65C476.014 59.65 475.42 59.572 474.832 59.416C474.244 59.248 473.722 59.02 473.266 58.732L472.744 60.046C473.284 60.394 473.896 60.664 474.58 60.856C475.276 61.036 475.984 61.126 476.704 61.126ZM490.221 60.19V52.972H486.081L485.991 54.808C485.967 55.408 485.925 55.99 485.865 56.554C485.817 57.106 485.733 57.616 485.613 58.084C485.505 58.552 485.343 58.936 485.127 59.236C484.911 59.536 484.623 59.722 484.263 59.794L482.553 59.488C482.925 59.5 483.225 59.38 483.453 59.128C483.681 58.864 483.855 58.504 483.975 58.048C484.107 57.592 484.203 57.076 484.263 56.5C484.323 55.912 484.371 55.306 484.407 54.682L484.551 51.46H491.949V60.19H490.221ZM482.175 63.214V59.488H493.407V63.214H491.787V61H483.813V63.214H482.175Z" fill="#808080"/>
<path d="M575 57.3333C574.669 57.3333 574.393 57.2213 574.169 56.9973C573.945 56.7741 573.833 56.4972 573.833 56.1666C573.833 55.8361 573.945 55.5588 574.169 55.3348C574.393 55.1116 574.669 55 575 55C575.331 55 575.608 55.1116 575.832 55.3348C576.055 55.5588 576.167 55.8361 576.167 56.1666C576.167 56.4972 576.055 56.7741 575.832 56.9973C575.608 57.2213 575.331 57.3333 575 57.3333ZM570.333 57.3333C570.003 57.3333 569.726 57.2213 569.502 56.9973C569.278 56.7741 569.167 56.4972 569.167 56.1666C569.167 55.8361 569.278 55.5588 569.502 55.3348C569.726 55.1116 570.003 55 570.333 55C570.664 55 570.941 55.1116 571.165 55.3348C571.388 55.5588 571.5 55.8361 571.5 56.1666C571.5 56.4972 571.388 56.7741 571.165 56.9973C570.941 57.2213 570.664 57.3333 570.333 57.3333ZM579.667 57.3333C579.336 57.3333 579.059 57.2213 578.836 56.9973C578.612 56.7741 578.5 56.4972 578.5 56.1666C578.5 55.8361 578.612 55.5588 578.836 55.3348C579.059 55.1116 579.336 55 579.667 55C579.997 55 580.274 55.1116 580.497 55.3348C580.721 55.5588 580.833 55.8361 580.833 56.1666C580.833 56.4972 580.721 56.7741 580.497 56.9973C580.274 57.2213 579.997 57.3333 579.667 57.3333ZM575 62C574.669 62 574.393 61.888 574.169 61.664C573.945 61.4408 573.833 61.1639 573.833 60.8333C573.833 60.5028 573.945 60.2259 574.169 60.0026C574.393 59.7786 574.669 59.6666 575 59.6666C575.331 59.6666 575.608 59.7786 575.832 60.0026C576.055 60.2259 576.167 60.5028 576.167 60.8333C576.167 61.1639 576.055 61.4408 575.832 61.664C575.608 61.888 575.331 62 575 62ZM570.333 62C570.003 62 569.726 61.888 569.502 61.664C569.278 61.4408 569.167 61.1639 569.167 60.8333C569.167 60.5028 569.278 60.2259 569.502 60.0026C569.726 59.7786 570.003 59.6666 570.333 59.6666C570.664 59.6666 570.941 59.7786 571.165 60.0026C571.388 60.2259 571.5 60.5028 571.5 60.8333C571.5 61.1639 571.388 61.4408 571.165 61.664C570.941 61.888 570.664 62 570.333 62ZM579.667 62C579.336 62 579.059 61.888 578.836 61.664C578.612 61.4408 578.5 61.1639 578.5 60.8333C578.5 60.5028 578.612 60.2259 578.836 60.0026C579.059 59.7786 579.336 59.6666 579.667 59.6666C579.997 59.6666 580.274 59.7786 580.497 60.0026C580.721 60.2259 580.833 60.5028 580.833 60.8333C580.833 61.1639 580.721 61.4408 580.497 61.664C580.274 61.888 579.997 62 579.667 62ZM566.833 66.6666C566.192 66.6666 565.642 66.4384 565.185 65.9818C564.728 65.5245 564.5 64.975 564.5 64.3333V48C564.5 47.3583 564.728 46.8092 565.185 46.3526C565.642 45.8953 566.192 45.6666 566.833 45.6666H568V44.5C568 44.1694 568.112 43.8921 568.335 43.6681C568.559 43.4449 568.836 43.3333 569.167 43.3333C569.497 43.3333 569.774 43.4449 569.998 43.6681C570.222 43.8921 570.333 44.1694 570.333 44.5V45.6666H579.667V44.5C579.667 44.1694 579.779 43.8921 580.003 43.6681C580.226 43.4449 580.503 43.3333 580.833 43.3333C581.164 43.3333 581.441 43.4449 581.664 43.6681C581.888 43.8921 582 44.1694 582 44.5V45.6666H583.167C583.808 45.6666 584.358 45.8953 584.815 46.3526C585.272 46.8092 585.5 47.3583 585.5 48V64.3333C585.5 64.975 585.272 65.5245 584.815 65.9818C584.358 66.4384 583.808 66.6666 583.167 66.6666H566.833ZM566.833 64.3333H583.167V52.6666H566.833V64.3333ZM566.833 50.3333H583.167V48H566.833V50.3333ZM566.833 50.3333V48V50.3333Z" fill="#1C9FE3"/>
<path d="M622.962 61V48.4H628.38C629.748 48.4 630.822 48.676 631.602 49.228C632.382 49.78 632.772 50.584 632.772 51.64C632.772 52.672 632.4 53.464 631.656 54.016C630.912 54.556 629.934 54.826 628.722 54.826L629.046 54.286C630.45 54.286 631.524 54.568 632.268 55.132C633.024 55.684 633.402 56.494 633.402 57.562C633.402 58.642 633.006 59.488 632.214 60.1C631.434 60.7 630.27 61 628.722 61H622.962ZM624.744 59.578H628.686C629.646 59.578 630.366 59.404 630.846 59.056C631.338 58.696 631.584 58.15 631.584 57.418C631.584 56.686 631.338 56.152 630.846 55.816C630.366 55.48 629.646 55.312 628.686 55.312H624.744V59.578ZM624.744 53.944H628.254C629.13 53.944 629.796 53.77 630.252 53.422C630.72 53.074 630.954 52.564 630.954 51.892C630.954 51.208 630.72 50.692 630.252 50.344C629.796 49.996 629.13 49.822 628.254 49.822H624.744V53.944ZM645.553 61V51.46H647.281V61H645.553ZM640.423 54.7C641.635 54.712 642.553 54.988 643.177 55.528C643.813 56.068 644.131 56.83 644.131 57.814C644.131 58.846 643.783 59.644 643.087 60.208C642.403 60.76 641.419 61.03 640.135 61.018L636.121 61V51.46H637.849V54.682L640.423 54.7ZM640.009 59.704C640.777 59.716 641.365 59.56 641.773 59.236C642.181 58.912 642.385 58.432 642.385 57.796C642.385 57.172 642.181 56.716 641.773 56.428C641.377 56.14 640.789 55.99 640.009 55.978L637.849 55.942V59.686L640.009 59.704ZM654.889 61.108C653.869 61.108 652.969 60.898 652.189 60.478C651.421 60.058 650.821 59.482 650.389 58.75C649.969 58.018 649.759 57.178 649.759 56.23C649.759 55.282 649.963 54.442 650.371 53.71C650.791 52.978 651.361 52.408 652.081 52C652.813 51.58 653.635 51.37 654.547 51.37C655.471 51.37 656.287 51.574 656.995 51.982C657.703 52.39 658.255 52.966 658.651 53.71C659.059 54.442 659.263 55.3 659.263 56.284C659.263 56.356 659.257 56.44 659.245 56.536C659.245 56.632 659.239 56.722 659.227 56.806H651.109V55.564H658.327L657.625 55.996C657.637 55.384 657.511 54.838 657.247 54.358C656.983 53.878 656.617 53.506 656.149 53.242C655.693 52.966 655.159 52.828 654.547 52.828C653.947 52.828 653.413 52.966 652.945 53.242C652.477 53.506 652.111 53.884 651.847 54.376C651.583 54.856 651.451 55.408 651.451 56.032V56.32C651.451 56.956 651.595 57.526 651.883 58.03C652.183 58.522 652.597 58.906 653.125 59.182C653.653 59.458 654.259 59.596 654.943 59.596C655.507 59.596 656.017 59.5 656.473 59.308C656.941 59.116 657.349 58.828 657.697 58.444L658.651 59.56C658.219 60.064 657.679 60.448 657.031 60.712C656.395 60.976 655.681 61.108 654.889 61.108ZM664.523 61.126C665.363 61.126 666.107 61.006 666.755 60.766C667.415 60.514 667.937 60.172 668.321 59.74C668.705 59.296 668.897 58.786 668.897 58.21C668.897 57.49 668.591 56.92 667.979 56.5C667.367 56.08 666.527 55.87 665.459 55.87L665.387 56.284C666.011 56.284 666.563 56.182 667.043 55.978C667.523 55.774 667.907 55.498 668.195 55.15C668.483 54.79 668.627 54.382 668.627 53.926C668.627 53.386 668.435 52.918 668.051 52.522C667.679 52.126 667.169 51.826 666.521 51.622C665.873 51.406 665.135 51.31 664.307 51.334C663.755 51.346 663.197 51.43 662.633 51.586C662.081 51.73 661.517 51.94 660.941 52.216L661.409 53.566C661.925 53.314 662.429 53.128 662.921 53.008C663.425 52.888 663.917 52.822 664.397 52.81C664.889 52.81 665.315 52.864 665.675 52.972C666.047 53.08 666.335 53.236 666.539 53.44C666.743 53.644 666.845 53.89 666.845 54.178C666.845 54.442 666.755 54.676 666.575 54.88C666.407 55.072 666.167 55.216 665.855 55.312C665.543 55.408 665.177 55.456 664.757 55.456H663.137V56.698H664.865C665.573 56.698 666.125 56.818 666.521 57.058C666.917 57.298 667.115 57.64 667.115 58.084C667.115 58.396 667.007 58.672 666.791 58.912C666.575 59.14 666.263 59.32 665.855 59.452C665.459 59.584 664.985 59.65 664.433 59.65C663.833 59.65 663.239 59.572 662.651 59.416C662.063 59.248 661.541 59.02 661.085 58.732L660.563 60.046C661.103 60.394 661.715 60.664 662.399 60.856C663.095 61.036 663.803 61.126 664.523 61.126ZM678.04 60.19V52.972H673.9L673.81 54.808C673.786 55.408 673.744 55.99 673.684 56.554C673.636 57.106 673.552 57.616 673.432 58.084C673.324 58.552 673.162 58.936 672.946 59.236C672.73 59.536 672.442 59.722 672.082 59.794L670.372 59.488C670.744 59.5 671.044 59.38 671.272 59.128C671.5 58.864 671.674 58.504 671.794 58.048C671.926 57.592 672.022 57.076 672.082 56.5C672.142 55.912 672.19 55.306 672.226 54.682L672.37 51.46H679.768V60.19H678.04ZM669.994 63.214V59.488H681.226V63.214H679.606V61H671.632V63.214H669.994Z" fill="#808080"/>
<path d="M757 57.3333C756.669 57.3333 756.393 57.2213 756.169 56.9973C755.945 56.7741 755.833 56.4972 755.833 56.1666C755.833 55.8361 755.945 55.5588 756.169 55.3348C756.393 55.1116 756.669 55 757 55C757.331 55 757.608 55.1116 757.832 55.3348C758.055 55.5588 758.167 55.8361 758.167 56.1666C758.167 56.4972 758.055 56.7741 757.832 56.9973C757.608 57.2213 757.331 57.3333 757 57.3333ZM752.333 57.3333C752.003 57.3333 751.726 57.2213 751.502 56.9973C751.278 56.7741 751.167 56.4972 751.167 56.1666C751.167 55.8361 751.278 55.5588 751.502 55.3348C751.726 55.1116 752.003 55 752.333 55C752.664 55 752.941 55.1116 753.165 55.3348C753.388 55.5588 753.5 55.8361 753.5 56.1666C753.5 56.4972 753.388 56.7741 753.165 56.9973C752.941 57.2213 752.664 57.3333 752.333 57.3333ZM761.667 57.3333C761.336 57.3333 761.059 57.2213 760.836 56.9973C760.612 56.7741 760.5 56.4972 760.5 56.1666C760.5 55.8361 760.612 55.5588 760.836 55.3348C761.059 55.1116 761.336 55 761.667 55C761.997 55 762.274 55.1116 762.497 55.3348C762.721 55.5588 762.833 55.8361 762.833 56.1666C762.833 56.4972 762.721 56.7741 762.497 56.9973C762.274 57.2213 761.997 57.3333 761.667 57.3333ZM757 62C756.669 62 756.393 61.888 756.169 61.664C755.945 61.4408 755.833 61.1639 755.833 60.8333C755.833 60.5028 755.945 60.2259 756.169 60.0026C756.393 59.7786 756.669 59.6666 757 59.6666C757.331 59.6666 757.608 59.7786 757.832 60.0026C758.055 60.2259 758.167 60.5028 758.167 60.8333C758.167 61.1639 758.055 61.4408 757.832 61.664C757.608 61.888 757.331 62 757 62ZM752.333 62C752.003 62 751.726 61.888 751.502 61.664C751.278 61.4408 751.167 61.1639 751.167 60.8333C751.167 60.5028 751.278 60.2259 751.502 60.0026C751.726 59.7786 752.003 59.6666 752.333 59.6666C752.664 59.6666 752.941 59.7786 753.165 60.0026C753.388 60.2259 753.5 60.5028 753.5 60.8333C753.5 61.1639 753.388 61.4408 753.165 61.664C752.941 61.888 752.664 62 752.333 62ZM761.667 62C761.336 62 761.059 61.888 760.836 61.664C760.612 61.4408 760.5 61.1639 760.5 60.8333C760.5 60.5028 760.612 60.2259 760.836 60.0026C761.059 59.7786 761.336 59.6666 761.667 59.6666C761.997 59.6666 762.274 59.7786 762.497 60.0026C762.721 60.2259 762.833 60.5028 762.833 60.8333C762.833 61.1639 762.721 61.4408 762.497 61.664C762.274 61.888 761.997 62 761.667 62ZM748.833 66.6666C748.192 66.6666 747.642 66.4384 747.185 65.9818C746.728 65.5245 746.5 64.975 746.5 64.3333V48C746.5 47.3583 746.728 46.8092 747.185 46.3526C747.642 45.8953 748.192 45.6666 748.833 45.6666H750V44.5C750 44.1694 750.112 43.8921 750.335 43.6681C750.559 43.4449 750.836 43.3333 751.167 43.3333C751.497 43.3333 751.774 43.4449 751.998 43.6681C752.222 43.8921 752.333 44.1694 752.333 44.5V45.6666H761.667V44.5C761.667 44.1694 761.779 43.8921 762.003 43.6681C762.226 43.4449 762.503 43.3333 762.833 43.3333C763.164 43.3333 763.441 43.4449 763.664 43.6681C763.888 43.8921 764 44.1694 764 44.5V45.6666H765.167C765.808 45.6666 766.358 45.8953 766.815 46.3526C767.272 46.8092 767.5 47.3583 767.5 48V64.3333C767.5 64.975 767.272 65.5245 766.815 65.9818C766.358 66.4384 765.808 66.6666 765.167 66.6666H748.833ZM748.833 64.3333H765.167V52.6666H748.833V64.3333ZM748.833 50.3333H765.167V48H748.833V50.3333ZM748.833 50.3333V48V50.3333Z" fill="#1C9FE3"/>
<path d="M805.988 61V49.12L806.762 49.966H803.144V48.4H807.77V61H805.988ZM816.458 61V48.4H824.72L824.702 49.966H817.79L818.222 49.516L818.24 61H816.458ZM827.973 61.108C827.013 61.108 826.161 60.898 825.417 60.478C824.673 60.058 824.085 59.482 823.653 58.75C823.221 58.006 823.005 57.166 823.005 56.23C823.005 55.282 823.221 54.442 823.653 53.71C824.085 52.978 824.673 52.408 825.417 52C826.161 51.58 827.013 51.37 827.973 51.37C828.921 51.37 829.767 51.58 830.511 52C831.267 52.408 831.855 52.978 832.275 53.71C832.707 54.43 832.923 55.27 832.923 56.23C832.923 57.178 832.707 58.018 832.275 58.75C831.855 59.482 831.267 60.058 830.511 60.478C829.767 60.898 828.921 61.108 827.973 61.108ZM827.973 59.596C828.585 59.596 829.131 59.458 829.611 59.182C830.103 58.906 830.487 58.516 830.763 58.012C831.039 57.496 831.177 56.902 831.177 56.23C831.177 55.546 831.039 54.958 830.763 54.466C830.487 53.962 830.103 53.572 829.611 53.296C829.131 53.02 828.585 52.882 827.973 52.882C827.361 52.882 826.815 53.02 826.335 53.296C825.855 53.572 825.471 53.962 825.183 54.466C824.895 54.958 824.751 55.546 824.751 56.23C824.751 56.902 824.895 57.496 825.183 58.012C825.471 58.516 825.855 58.906 826.335 59.182C826.815 59.458 827.361 59.596 827.973 59.596ZM839.576 61.108C838.604 61.108 837.734 60.898 836.966 60.478C836.21 60.058 835.616 59.482 835.184 58.75C834.752 58.018 834.536 57.178 834.536 56.23C834.536 55.282 834.752 54.442 835.184 53.71C835.616 52.978 836.21 52.408 836.966 52C837.734 51.58 838.604 51.37 839.576 51.37C840.44 51.37 841.208 51.544 841.88 51.892C842.564 52.228 843.092 52.732 843.464 53.404L842.15 54.25C841.838 53.782 841.454 53.44 840.998 53.224C840.554 52.996 840.074 52.882 839.558 52.882C838.934 52.882 838.376 53.02 837.884 53.296C837.392 53.572 837.002 53.962 836.714 54.466C836.426 54.958 836.282 55.546 836.282 56.23C836.282 56.914 836.426 57.508 836.714 58.012C837.002 58.516 837.392 58.906 837.884 59.182C838.376 59.458 838.934 59.596 839.558 59.596C840.074 59.596 840.554 59.488 840.998 59.272C841.454 59.044 841.838 58.696 842.15 58.228L843.464 59.056C843.092 59.716 842.564 60.226 841.88 60.586C841.208 60.934 840.44 61.108 839.576 61.108ZM847.468 61V52.522L847.9 52.972H843.976V51.46H852.688V52.972H848.782L849.196 52.522V61H847.468ZM858.865 54.7C860.077 54.712 861.001 54.988 861.637 55.528C862.273 56.068 862.591 56.83 862.591 57.814C862.591 58.846 862.243 59.644 861.547 60.208C860.851 60.76 859.867 61.03 858.595 61.018L854.455 61V51.46H856.183V54.682L858.865 54.7ZM858.451 59.704C859.231 59.716 859.819 59.56 860.215 59.236C860.623 58.912 860.827 58.432 860.827 57.796C860.827 57.172 860.629 56.716 860.233 56.428C859.837 56.14 859.243 55.99 858.451 55.978L856.183 55.942V59.686L858.451 59.704Z" fill="#1E1E1E"/>
<path d="M931.798 51.534C931.506 51.5923 931.212 51.7393 931.033 52.0065C930.676 52.5408 930.826 53.2851 931.361 53.641L938.351 58.2901C938.742 58.5503 939.27 58.5503 939.661 58.2901L946.65 53.641C947.186 53.2851 947.335 52.5408 946.978 52.0065C946.621 51.4722 945.876 51.3228 945.34 51.6798L939.005 55.8926L932.671 51.6798C932.404 51.5013 932.09 51.4757 931.798 51.534Z" fill="#1C9FE3"/>
<line x1="418.5" y1="29" x2="418.5" y2="81" stroke="#808080"/>
<line x1="600.5" y1="29" x2="600.5" y2="81" stroke="#808080"/>
<line x1="782.5" y1="29" x2="782.5" y2="81" stroke="#808080"/>
</svg>
