<svg width="34" height="36" viewBox="0 0 34 36" fill="none" xmlns="http://www.w3.org/2000/svg">
<path d="M15.5833 3.41669C22.6213 3.41669 28.3333 9.29669 28.3333 16.5417C28.3333 23.7867 22.6213 29.6667 15.5833 29.6667C8.54531 29.6667 2.83331 23.7867 2.83331 16.5417C2.83331 9.29669 8.54531 3.41669 15.5833 3.41669ZM15.5833 26.75C21.0616 26.75 25.5 22.1811 25.5 16.5417C25.5 10.9009 21.0616 6.33335 15.5833 6.33335C10.1036 6.33335 5.66665 10.9009 5.66665 16.5417C5.66665 22.1811 10.1036 26.75 15.5833 26.75ZM27.6037 26.8536L31.6115 30.9777L29.6069 33.0413L25.6006 28.9156L27.6037 26.8536Z" fill="#F6F6F6"/>
</svg>
