<svg width="20" height="24" viewBox="0 0 20 24" fill="none" xmlns="http://www.w3.org/2000/svg">
<path d="M9.99996 12C10.6416 12 11.1911 11.7713 11.6485 11.314C12.105 10.8574 12.3333 10.3083 12.3333 9.66665C12.3333 9.02498 12.105 8.47548 11.6485 8.01815C11.1911 7.56159 10.6416 7.33331 9.99996 7.33331C9.35829 7.33331 8.80918 7.56159 8.35263 8.01815C7.89529 8.47548 7.66663 9.02498 7.66663 9.66665C7.66663 10.3083 7.89529 10.8574 8.35263 11.314C8.80918 11.7713 9.35829 12 9.99996 12ZM9.99996 23.6666C6.8694 21.0028 4.5314 18.5283 2.98596 16.2431C1.43974 13.9588 0.666626 11.8444 0.666626 9.89998C0.666626 6.98331 1.60502 4.6597 3.48179 2.92915C5.35779 1.19859 7.53052 0.333313 9.99996 0.333313C12.4694 0.333313 14.6421 1.19859 16.5181 2.92915C18.3949 4.6597 19.3333 6.98331 19.3333 9.89998C19.3333 11.8444 18.5606 13.9588 17.0151 16.2431C15.4689 18.5283 13.1305 21.0028 9.99996 23.6666Z" fill="#D01A2B"/>
</svg>
