<svg width="520" height="483" viewBox="0 0 520 483" fill="none" xmlns="http://www.w3.org/2000/svg">
<path d="M76.9775 25.9035C74.5751 24.4353 71.8107 23.6678 68.9959 23.6876C65.5079 23.6828 62.1233 24.8727 59.4046 27.0596C56.6858 29.2464 54.7967 32.2985 54.0511 35.7086C52.6502 34.347 50.8804 33.4275 48.9616 33.0642C47.0428 32.701 45.0596 32.9101 43.2586 33.6656C41.4576 34.421 39.9181 35.6895 38.8315 37.3134C37.7449 38.9373 37.1591 40.845 37.1469 42.7994C37.1469 42.9212 37.1469 43.0431 37.1469 43.165H118.978" stroke="#B2B2B2" stroke-linecap="round" stroke-linejoin="round"/>
<path d="M129.329 43.1646H180.318C179.843 42.3778 179.207 41.7002 178.453 41.1759C177.698 40.6517 176.842 40.2926 175.939 40.1222C175.036 39.9518 174.108 39.9738 173.214 40.1869C172.321 40.3999 171.482 40.7992 170.753 41.3587C170.051 39.3353 168.736 37.5807 166.993 36.338C165.25 35.0954 163.163 34.4262 161.023 34.4231C159.248 34.4213 157.504 34.8834 155.964 35.7637C155.523 30.9702 153.382 26.4928 149.929 23.1418C146.476 19.7908 141.939 17.7874 137.138 17.4942C132.337 17.201 127.59 18.6374 123.755 21.5434C119.921 24.4493 117.252 28.633 116.233 33.3373C114.577 31.7033 112.516 30.5404 110.262 29.9683C108.008 29.3961 105.643 29.4353 103.409 30.0819C101.176 30.7286 99.1544 31.9592 97.5538 33.6472C95.9532 35.3351 94.8309 37.4195 94.3024 39.6857C93.1661 38.1597 91.5128 37.1007 89.6522 36.7071C87.7917 36.3134 85.8516 36.6122 84.1953 37.5474C83.9856 34.999 83.1365 32.5449 81.7267 30.4124" stroke="#B2B2B2" stroke-linecap="round" stroke-linejoin="round"/>
<path d="M357.375 259.665H476.933C476.458 258.878 475.823 258.2 475.068 257.676C474.313 257.152 473.457 256.793 472.554 256.622C471.652 256.452 470.723 256.474 469.83 256.687C468.936 256.9 468.098 257.299 467.369 257.859C466.876 256.432 466.075 255.13 465.024 254.047C463.973 252.964 462.696 252.125 461.285 251.59C459.874 251.055 458.363 250.838 456.858 250.952C455.354 251.066 453.893 251.51 452.579 252.253C452.123 247.246 449.814 242.59 446.105 239.2C442.396 235.809 437.554 233.929 432.531 233.928C431.102 233.926 429.676 234.078 428.28 234.382" stroke="#B2B2B2" stroke-linecap="round" stroke-linejoin="round"/>
<path d="M422.313 236.697C419.907 238.11 417.821 240.008 416.186 242.269C414.551 244.531 413.403 247.108 412.815 249.837C411.159 248.203 409.098 247.04 406.844 246.468C404.59 245.896 402.225 245.935 399.991 246.582C397.758 247.229 395.736 248.459 394.136 250.147C392.535 251.835 391.413 253.919 390.884 256.186C389.758 254.651 388.106 253.584 386.244 253.19C384.382 252.796 382.44 253.101 380.788 254.047C380.455 250.41 378.832 247.011 376.212 244.468C373.592 241.925 370.148 240.404 366.505 240.182C362.862 239.96 359.259 241.05 356.35 243.256C353.44 245.462 351.416 248.638 350.644 252.208C349.243 250.847 347.474 249.927 345.555 249.564C343.636 249.201 341.653 249.41 339.852 250.165C338.051 250.921 336.511 252.189 335.425 253.813C334.338 255.437 333.752 257.345 333.74 259.299C333.74 259.421 333.74 259.543 333.74 259.665H346.305" stroke="#B2B2B2" stroke-linecap="round" stroke-linejoin="round"/>
<path d="M512.358 331.946H4.23511V343.867H512.358V331.946Z" fill="#B2B2B2"/>
<path d="M379.737 337.873V4.01074" stroke="#B2B2B2" stroke-width="2" stroke-linecap="round" stroke-linejoin="round"/>
<path d="M185.41 337.873V5.3623" stroke="#B2B2B2" stroke-width="2" stroke-linecap="round" stroke-linejoin="round"/>
<path d="M3.5708 214.517H512.369" stroke="#B2B2B2" stroke-width="2" stroke-linecap="round" stroke-linejoin="round"/>
<path d="M6.44922 80.5686H519" stroke="#B2B2B2" stroke-width="2" stroke-linecap="round" stroke-linejoin="round"/>
<path d="M254.122 150.578L249.097 153.681" stroke="#B2B2B2" stroke-width="0.5" stroke-linecap="round" stroke-linejoin="round"/>
<path d="M338.865 98.3176L260.876 146.413" stroke="#B2B2B2" stroke-width="0.5" stroke-linecap="round" stroke-linejoin="round"/>
<path d="M349.15 101.564L286.669 140.097" stroke="#B2B2B2" stroke-width="0.5" stroke-linecap="round" stroke-linejoin="round"/>
<path d="M376.438 84.7341L357.574 96.3784" stroke="#B2B2B2" stroke-width="0.5" stroke-linecap="round" stroke-linejoin="round"/>
<g opacity="0.3">
<path d="M49.3679 316.512L44.3425 319.614" stroke="black" stroke-width="0.5" stroke-linecap="round" stroke-linejoin="round"/>
<path d="M134.111 264.251L56.1322 312.347" stroke="#B2B2B2" stroke-width="0.5" stroke-linecap="round" stroke-linejoin="round"/>
<path d="M144.395 267.498L81.926 306.042" stroke="#B2B2B2" stroke-width="0.5" stroke-linecap="round" stroke-linejoin="round"/>
<path d="M171.683 250.668L152.82 262.313" stroke="#B2B2B2" stroke-width="0.5" stroke-linecap="round" stroke-linejoin="round"/>
</g>
<path opacity="0.3" d="M335.023 320.512L329.998 323.614" stroke="black" stroke-width="0.5" stroke-linecap="round" stroke-linejoin="round"/>
<path d="M419.767 268.251L341.777 316.346" stroke="#B2B2B2" stroke-width="0.5" stroke-linecap="round" stroke-linejoin="round"/>
<path d="M430.051 271.498L367.582 310.031" stroke="#B2B2B2" stroke-width="0.5" stroke-linecap="round" stroke-linejoin="round"/>
<path d="M457.339 254.668L438.475 266.313" stroke="#B2B2B2" stroke-width="0.5" stroke-linecap="round" stroke-linejoin="round"/>
<g opacity="0.3">
<path d="M22.8436 156.539L17.8182 159.641" stroke="#B2B2B2" stroke-width="0.5" stroke-linecap="round" stroke-linejoin="round"/>
<path d="M107.586 104.278L29.5968 152.373" stroke="#B2B2B2" stroke-width="0.5" stroke-linecap="round" stroke-linejoin="round"/>
<path d="M117.871 107.524L55.4016 146.058" stroke="#B2B2B2" stroke-width="0.5" stroke-linecap="round" stroke-linejoin="round"/>
<path d="M145.159 90.6951L126.295 102.339" stroke="#B2B2B2" stroke-width="0.5" stroke-linecap="round" stroke-linejoin="round"/>
</g>
<path d="M488.778 456.233H499.195" stroke="#263238" stroke-linecap="round" stroke-linejoin="round"/>
<path d="M203.211 456.233H476.624" stroke="#263238" stroke-linecap="round" stroke-linejoin="round"/>
<path d="M9.63745 456.233H196.259" stroke="#263238" stroke-linecap="round" stroke-linejoin="round"/>
<path d="M435.409 274.599L450.044 414.94" stroke="#263238" stroke-width="2" stroke-linecap="round" stroke-linejoin="round"/>
<path d="M447.674 388.084L441.044 381.071" stroke="#263238" stroke-width="2" stroke-linecap="round" stroke-linejoin="round"/>
<path d="M443.059 383.176C443.045 382.103 442.803 381.045 442.349 380.073C441.894 379.1 441.238 378.236 440.424 377.537C438.719 376.019 429.752 372.241 428.911 375.399C427.981 378.844 437.158 385.592 443.059 383.176Z" fill="#66CBFF" stroke="#263238" stroke-linecap="round" stroke-linejoin="round"/>
<path d="M443.057 383.176L434.534 377.847" stroke="#263238" stroke-width="0.5" stroke-linecap="round" stroke-linejoin="round"/>
<path d="M449.346 404.039L442.715 397.037" stroke="#263238" stroke-width="2" stroke-linecap="round" stroke-linejoin="round"/>
<path d="M444.73 399.131C444.716 398.058 444.473 397 444.016 396.029C443.56 395.059 442.901 394.197 442.084 393.502C440.379 391.973 431.424 388.206 430.571 391.364C429.641 394.799 438.818 401.568 444.73 399.131Z" fill="#66CBFF" stroke="#263238" stroke-linecap="round" stroke-linejoin="round"/>
<path d="M444.729 399.13L436.195 393.812" stroke="#263238" stroke-width="0.5" stroke-linecap="round" stroke-linejoin="round"/>
<path d="M443.622 349.141L436.981 342.127" stroke="#263238" stroke-width="2" stroke-linecap="round" stroke-linejoin="round"/>
<path d="M438.996 344.221C438.985 343.149 438.745 342.092 438.29 341.12C437.836 340.149 437.178 339.287 436.361 338.593C434.656 337.075 425.7 333.297 424.848 336.455C423.918 339.889 433.095 346.637 438.996 344.221Z" fill="#66CBFF" stroke="#263238" stroke-linecap="round" stroke-linejoin="round"/>
<path d="M438.995 344.222L430.472 338.904" stroke="#263238" stroke-width="0.5" stroke-linecap="round" stroke-linejoin="round"/>
<path d="M445.283 365.095L438.653 358.082" stroke="#263238" stroke-width="2" stroke-linecap="round" stroke-linejoin="round"/>
<path d="M440.668 360.187C440.654 359.114 440.411 358.056 439.954 357.086C439.498 356.115 438.839 355.253 438.022 354.558C436.317 353.03 427.361 349.263 426.509 352.42C425.579 355.855 434.756 362.602 440.668 360.187Z" fill="#66CBFF" stroke="#263238" stroke-linecap="round" stroke-linejoin="round"/>
<path d="M440.666 360.187L432.132 354.869" stroke="#263238" stroke-width="0.5" stroke-linecap="round" stroke-linejoin="round"/>
<path d="M440.91 323.204L434.28 316.191" stroke="#263238" stroke-width="2" stroke-linecap="round" stroke-linejoin="round"/>
<path d="M436.295 318.296C436.281 317.224 436.04 316.168 435.585 315.197C435.131 314.226 434.474 313.364 433.66 312.668C431.955 311.139 422.988 307.372 422.136 310.53C421.217 313.964 430.438 320.689 436.295 318.296Z" fill="#66CBFF" stroke="#263238" stroke-linecap="round" stroke-linejoin="round"/>
<path d="M436.294 318.296L427.759 312.978" stroke="#263238" stroke-width="0.5" stroke-linecap="round" stroke-linejoin="round"/>
<path d="M438.198 297.168L431.568 290.155" stroke="#263238" stroke-width="2" stroke-linecap="round" stroke-linejoin="round"/>
<path d="M433.582 292.26C433.569 291.185 433.325 290.126 432.869 289.153C432.413 288.181 431.754 287.317 430.937 286.62C429.243 285.102 420.276 281.324 419.423 284.493C418.505 287.928 427.671 294.675 433.582 292.26Z" fill="#66CBFF" stroke="#263238" stroke-linecap="round" stroke-linejoin="round"/>
<path d="M433.582 292.26L425.047 286.931" stroke="#263238" stroke-width="0.5" stroke-linecap="round" stroke-linejoin="round"/>
<path d="M446.568 378.645L451.604 370.402" stroke="#263238" stroke-width="2" stroke-linecap="round" stroke-linejoin="round"/>
<path d="M450.066 372.884C449.859 371.83 449.88 370.744 450.126 369.699C450.372 368.654 450.839 367.674 451.494 366.823C452.844 364.984 460.837 359.433 462.321 362.392C463.937 365.527 456.354 374.025 450.066 372.884Z" fill="#66CBFF" stroke="#263238" stroke-linecap="round" stroke-linejoin="round"/>
<path d="M450.066 372.884L457.748 365.527" stroke="#263238" stroke-width="0.5" stroke-linecap="round" stroke-linejoin="round"/>
<path d="M442.184 336.643L447.231 328.411" stroke="#263238" stroke-width="2" stroke-linecap="round" stroke-linejoin="round"/>
<path d="M445.693 330.882C445.483 329.829 445.501 328.744 445.745 327.698C445.989 326.653 446.455 325.672 447.11 324.822C448.461 322.983 456.453 317.432 457.937 320.39C459.553 323.526 451.97 332.023 445.693 330.882Z" fill="#66CBFF" stroke="#263238" stroke-linecap="round" stroke-linejoin="round"/>
<path d="M445.693 330.882L453.375 323.525" stroke="#263238" stroke-width="0.5" stroke-linecap="round" stroke-linejoin="round"/>
<path d="M440.258 318.185L445.305 309.953" stroke="#263238" stroke-width="2" stroke-linecap="round" stroke-linejoin="round"/>
<path d="M443.723 312.424C443.512 311.371 443.53 310.286 443.774 309.24C444.019 308.195 444.484 307.214 445.139 306.364C446.501 304.525 454.483 298.985 455.966 301.932C457.627 305.067 450.044 313.565 443.723 312.424Z" fill="#66CBFF" stroke="#263238" stroke-linecap="round" stroke-linejoin="round"/>
<path d="M443.767 312.424L451.449 305.067" stroke="#263238" stroke-width="0.5" stroke-linecap="round" stroke-linejoin="round"/>
<path d="M437.435 291.119L442.482 282.887" stroke="#263238" stroke-width="2" stroke-linecap="round" stroke-linejoin="round"/>
<path d="M440.944 285.357C440.734 284.306 440.752 283.222 440.996 282.179C441.241 281.135 441.706 280.156 442.361 279.308C443.723 277.469 451.704 271.918 453.188 274.876C454.793 278.001 447.221 286.499 440.944 285.357Z" fill="#66CBFF" stroke="#263238" stroke-linecap="round" stroke-linejoin="round"/>
<path d="M440.944 285.357L448.626 278.012" stroke="#263238" stroke-width="0.5" stroke-linecap="round" stroke-linejoin="round"/>
<path d="M435.276 273.824C435.07 272.77 435.09 271.684 435.337 270.639C435.583 269.594 436.049 268.614 436.704 267.763C438.055 265.924 446.048 260.385 447.531 263.332C449.147 266.467 441.564 274.965 435.276 273.824Z" fill="#66CBFF" stroke="#263238" stroke-linecap="round" stroke-linejoin="round"/>
<path d="M435.276 273.824L442.958 266.467" stroke="#263238" stroke-width="0.5" stroke-linecap="round" stroke-linejoin="round"/>
<path d="M435.73 274.156C434.663 274.255 433.586 274.122 432.574 273.769C431.562 273.415 430.638 272.848 429.863 272.107C428.169 270.567 423.498 262.036 426.542 260.861C429.874 259.565 437.523 268.007 435.73 274.156Z" fill="#66CBFF" stroke="#263238" stroke-linecap="round" stroke-linejoin="round"/>
<path d="M435.729 274.134L429.232 265.725" stroke="#263238" stroke-width="0.5" stroke-linecap="round" stroke-linejoin="round"/>
<path d="M474 293.933L459.453 434.274" stroke="#263238" stroke-width="2" stroke-linecap="round" stroke-linejoin="round"/>
<path d="M462.663 407.506L457.616 399.274" stroke="#263238" stroke-width="2" stroke-linecap="round" stroke-linejoin="round"/>
<path d="M459.155 401.745C459.365 400.694 459.347 399.61 459.102 398.567C458.858 397.523 458.392 396.544 457.738 395.696C456.376 393.857 448.383 388.317 446.9 391.264C445.295 394.4 452.878 402.898 459.155 401.745Z" fill="#66CBFF" stroke="#263238" stroke-linecap="round" stroke-linejoin="round"/>
<path d="M459.154 401.745L451.904 394.787" stroke="#263238" stroke-width="0.5" stroke-linecap="round" stroke-linejoin="round"/>
<path d="M466.704 368.563L461.656 360.331" stroke="#263238" stroke-width="2" stroke-linecap="round" stroke-linejoin="round"/>
<path d="M463.195 362.791C463.405 361.737 463.387 360.65 463.14 359.605C462.894 358.559 462.425 357.579 461.767 356.73C460.416 354.891 452.424 349.351 450.94 352.298C449.335 355.456 456.918 363.898 463.195 362.791Z" fill="#66CBFF" stroke="#263238" stroke-linecap="round" stroke-linejoin="round"/>
<path d="M463.194 362.801L455.944 355.833" stroke="#263238" stroke-width="0.5" stroke-linecap="round" stroke-linejoin="round"/>
<path d="M465.055 384.517L460.007 376.296" stroke="#263238" stroke-width="2" stroke-linecap="round" stroke-linejoin="round"/>
<path d="M461.546 378.766C461.752 377.713 461.732 376.627 461.485 375.582C461.239 374.537 460.773 373.556 460.118 372.706C458.767 370.867 450.774 365.327 449.291 368.274C447.675 371.41 455.269 379.908 461.546 378.766Z" fill="#66CBFF" stroke="#263238" stroke-linecap="round" stroke-linejoin="round"/>
<path d="M461.545 378.767L454.284 371.798" stroke="#263238" stroke-width="0.5" stroke-linecap="round" stroke-linejoin="round"/>
<path d="M469.394 342.626L464.346 334.405" stroke="#263238" stroke-width="2" stroke-linecap="round" stroke-linejoin="round"/>
<path d="M465.863 336.876C466.07 335.822 466.049 334.737 465.803 333.691C465.557 332.646 465.091 331.666 464.435 330.816C463.085 328.976 455.092 323.437 453.609 326.384C452.015 329.553 459.609 338.017 465.863 336.876Z" fill="#66CBFF" stroke="#263238" stroke-linecap="round" stroke-linejoin="round"/>
<path d="M465.885 336.876L458.635 329.907" stroke="#263238" stroke-width="0.5" stroke-linecap="round" stroke-linejoin="round"/>
<path d="M472.095 316.59L467.048 308.358" stroke="#263238" stroke-width="2" stroke-linecap="round" stroke-linejoin="round"/>
<path d="M468.586 310.829C468.793 309.777 468.772 308.693 468.526 307.649C468.28 306.606 467.813 305.628 467.158 304.779C465.808 302.929 457.815 297.401 456.332 300.348C454.715 303.483 462.31 311.981 468.586 310.829Z" fill="#66CBFF" stroke="#263238" stroke-linecap="round" stroke-linejoin="round"/>
<path d="M468.585 310.829L461.335 303.86" stroke="#263238" stroke-width="0.5" stroke-linecap="round" stroke-linejoin="round"/>
<path d="M463.516 398.033L470.146 391.02" stroke="#263238" stroke-width="2" stroke-linecap="round" stroke-linejoin="round"/>
<path d="M468.133 393.125C468.146 392.051 468.389 390.992 468.846 390.019C469.302 389.047 469.961 388.183 470.778 387.486C472.472 385.968 481.439 382.19 482.291 385.348C483.21 388.782 474.044 395.53 468.133 393.125Z" fill="#66CBFF" stroke="#263238" stroke-linecap="round" stroke-linejoin="round"/>
<path d="M468.133 393.126L477.165 387.52" stroke="#263238" stroke-width="0.5" stroke-linecap="round" stroke-linejoin="round"/>
<path d="M467.878 356.032L474.508 349.019" stroke="#263238" stroke-width="2" stroke-linecap="round" stroke-linejoin="round"/>
<path d="M472.505 351.124C472.516 350.05 472.756 348.991 473.211 348.018C473.665 347.045 474.323 346.181 475.14 345.485C476.845 343.967 485.801 340.189 486.653 343.346C487.572 346.781 478.395 353.528 472.505 351.124Z" fill="#66CBFF" stroke="#263238" stroke-linecap="round" stroke-linejoin="round"/>
<path d="M472.494 351.124L481.515 345.507" stroke="#263238" stroke-width="0.5" stroke-linecap="round" stroke-linejoin="round"/>
<path d="M469.793 337.574L476.423 330.561" stroke="#263238" stroke-width="2" stroke-linecap="round" stroke-linejoin="round"/>
<path d="M474.409 332.666C474.42 331.592 474.66 330.533 475.115 329.56C475.569 328.587 476.227 327.723 477.044 327.027C478.749 325.509 487.705 321.731 488.557 324.888C489.487 328.323 480.31 335.092 474.409 332.666Z" fill="#66CBFF" stroke="#263238" stroke-linecap="round" stroke-linejoin="round"/>
<path d="M474.409 332.666L483.431 327.049" stroke="#263238" stroke-width="0.5" stroke-linecap="round" stroke-linejoin="round"/>
<path d="M472.594 310.518L479.224 303.494" stroke="#263238" stroke-width="2" stroke-linecap="round" stroke-linejoin="round"/>
<path d="M477.21 305.599C477.223 304.527 477.465 303.471 477.919 302.5C478.374 301.529 479.03 300.667 479.845 299.971C481.549 298.442 490.505 294.664 491.358 297.822C492.288 301.256 483.121 308.015 477.21 305.599Z" fill="#66CBFF" stroke="#263238" stroke-linecap="round" stroke-linejoin="round"/>
<path d="M477.21 305.599L486.242 299.993" stroke="#263238" stroke-width="0.5" stroke-linecap="round" stroke-linejoin="round"/>
<path d="M474.044 293.135C474.057 292.063 474.299 291.007 474.754 290.036C475.208 289.065 475.864 288.203 476.679 287.507C478.384 285.978 487.34 282.2 488.192 285.369C489.111 288.803 479.956 295.55 474.044 293.135Z" fill="#66CBFF" stroke="#263238" stroke-linecap="round" stroke-linejoin="round"/>
<path d="M474.044 293.135L483.076 287.529" stroke="#263238" stroke-width="0.5" stroke-linecap="round" stroke-linejoin="round"/>
<path d="M474.409 293.545C473.344 293.42 472.319 293.068 471.402 292.511C470.485 291.955 469.699 291.208 469.096 290.321C467.756 288.471 464.945 279.164 468.166 278.644C471.675 278.079 477.431 287.917 474.409 293.545Z" fill="#66CBFF" stroke="#263238" stroke-linecap="round" stroke-linejoin="round"/>
<path d="M474.409 293.545L469.782 283.961" stroke="#263238" stroke-width="0.5" stroke-linecap="round" stroke-linejoin="round"/>
<path d="M457.328 236.775V414.254" stroke="#263238" stroke-width="2" stroke-linecap="round" stroke-linejoin="round"/>
<path d="M457.471 387.575L451.594 379.908" stroke="#263238" stroke-width="2" stroke-linecap="round" stroke-linejoin="round"/>
<path d="M453.387 382.201C453.485 381.133 453.352 380.056 452.999 379.043C452.646 378.03 452.08 377.105 451.339 376.329C449.812 374.645 441.287 369.959 440.114 373.006C438.83 376.329 447.254 383.996 453.387 382.201Z" fill="#66CBFF" stroke="#263238" stroke-linecap="round" stroke-linejoin="round"/>
<path d="M453.386 382.201L445.45 376.03" stroke="#263238" stroke-width="0.5" stroke-linecap="round" stroke-linejoin="round"/>
<path d="M457.471 354.215L451.594 346.559" stroke="#263238" stroke-width="2" stroke-linecap="round" stroke-linejoin="round"/>
<path d="M453.387 348.852C453.485 347.784 453.353 346.707 453 345.694C452.647 344.681 452.08 343.756 451.339 342.98C449.812 341.285 441.287 336.599 440.114 339.657C438.83 342.98 447.254 350.603 453.387 348.852Z" fill="#66CBFF" stroke="#263238" stroke-linecap="round" stroke-linejoin="round"/>
<path d="M453.386 348.853L445.45 342.67" stroke="#263238" stroke-width="0.5" stroke-linecap="round" stroke-linejoin="round"/>
<path d="M457.471 315.061L451.594 307.394" stroke="#263238" stroke-width="2" stroke-linecap="round" stroke-linejoin="round"/>
<path d="M453.387 309.699C453.485 308.629 453.353 307.55 452.999 306.535C452.646 305.521 452.08 304.593 451.339 303.815C449.812 302.131 441.287 297.445 440.114 300.492C438.83 303.815 447.254 311.482 453.387 309.699Z" fill="#66CBFF" stroke="#263238" stroke-linecap="round" stroke-linejoin="round"/>
<path d="M453.386 309.698L445.45 303.516" stroke="#263238" stroke-width="0.5" stroke-linecap="round" stroke-linejoin="round"/>
<path d="M457.471 288.992L451.594 281.325" stroke="#263238" stroke-width="2" stroke-linecap="round" stroke-linejoin="round"/>
<path d="M453.387 283.629C453.485 282.561 453.353 281.484 453 280.471C452.647 279.458 452.08 278.532 451.339 277.757C449.812 276.062 441.287 271.375 440.114 274.433C438.83 277.757 447.254 285.413 453.387 283.629Z" fill="#66CBFF" stroke="#263238" stroke-linecap="round" stroke-linejoin="round"/>
<path d="M453.386 283.629L445.45 277.447" stroke="#263238" stroke-width="0.5" stroke-linecap="round" stroke-linejoin="round"/>
<path d="M457.471 262.811L451.594 255.144" stroke="#263238" stroke-width="2" stroke-linecap="round" stroke-linejoin="round"/>
<path d="M453.387 257.449C453.485 256.379 453.353 255.3 452.999 254.285C452.646 253.271 452.08 252.343 451.339 251.566C449.812 249.882 441.287 245.195 440.114 248.242C438.83 251.566 447.254 259.233 453.387 257.449Z" fill="#66CBFF" stroke="#263238" stroke-linecap="round" stroke-linejoin="round"/>
<path d="M453.386 257.449L445.45 251.267" stroke="#263238" stroke-width="0.5" stroke-linecap="round" stroke-linejoin="round"/>
<path d="M457.339 397.756L463.205 390.09" stroke="#263238" stroke-width="2" stroke-linecap="round" stroke-linejoin="round"/>
<path d="M461.435 392.394C461.337 391.325 461.468 390.247 461.819 389.232C462.17 388.218 462.734 387.29 463.472 386.511C465.011 384.827 473.535 380.14 474.708 383.187C475.97 386.511 467.546 394.178 461.435 392.394Z" fill="#66CBFF" stroke="#263238" stroke-linecap="round" stroke-linejoin="round"/>
<path d="M461.424 392.394L469.825 385.88" stroke="#263238" stroke-width="0.5" stroke-linecap="round" stroke-linejoin="round"/>
<path d="M457.339 344.709L463.205 337.042" stroke="#263238" stroke-width="2" stroke-linecap="round" stroke-linejoin="round"/>
<path d="M461.435 339.347C461.337 338.279 461.468 337.203 461.819 336.19C462.17 335.177 462.734 334.252 463.472 333.475C465.011 331.779 473.535 327.093 474.708 330.151C475.97 333.475 467.546 341.13 461.435 339.347Z" fill="#66CBFF" stroke="#263238" stroke-linecap="round" stroke-linejoin="round"/>
<path d="M461.424 339.347L469.825 332.832" stroke="#263238" stroke-width="0.5" stroke-linecap="round" stroke-linejoin="round"/>
<path d="M457.339 318.529L463.205 310.862" stroke="#263238" stroke-width="2" stroke-linecap="round" stroke-linejoin="round"/>
<path d="M461.435 313.166C461.337 312.097 461.468 311.019 461.819 310.005C462.17 308.99 462.734 308.062 463.472 307.283C465.011 305.599 473.535 300.913 474.708 303.959C475.97 307.283 467.546 314.95 461.435 313.166Z" fill="#66CBFF" stroke="#263238" stroke-linecap="round" stroke-linejoin="round"/>
<path d="M461.424 313.166L469.825 306.652" stroke="#263238" stroke-width="0.5" stroke-linecap="round" stroke-linejoin="round"/>
<path d="M457.339 283.928L463.205 276.261" stroke="#263238" stroke-width="2" stroke-linecap="round" stroke-linejoin="round"/>
<path d="M461.435 278.588C461.337 277.521 461.468 276.444 461.819 275.432C462.17 274.419 462.734 273.493 463.472 272.716C465.011 271.021 473.535 266.345 474.708 269.392C475.97 272.683 467.546 280.35 461.435 278.588Z" fill="#66CBFF" stroke="#263238" stroke-linecap="round" stroke-linejoin="round"/>
<path d="M461.424 278.555L469.825 272.051" stroke="#263238" stroke-width="0.5" stroke-linecap="round" stroke-linejoin="round"/>
<path d="M457.339 256.717L463.205 249.051" stroke="#263238" stroke-width="2" stroke-linecap="round" stroke-linejoin="round"/>
<path d="M461.435 251.355C461.337 250.286 461.468 249.208 461.819 248.193C462.17 247.179 462.734 246.251 463.472 245.472C465.011 243.788 473.535 239.101 474.708 242.148C475.97 245.472 467.546 253.106 461.435 251.355Z" fill="#66CBFF" stroke="#263238" stroke-linecap="round" stroke-linejoin="round"/>
<path d="M461.424 251.355L469.825 244.84" stroke="#263238" stroke-width="0.5" stroke-linecap="round" stroke-linejoin="round"/>
<path d="M457.007 239.29C456.909 238.22 457.042 237.141 457.395 236.127C457.748 235.112 458.314 234.185 459.055 233.407C460.583 231.723 469.107 227.036 470.28 230.083C471.542 233.407 463.118 241.074 457.007 239.29Z" fill="#66CBFF" stroke="#263238" stroke-linecap="round" stroke-linejoin="round"/>
<path d="M456.985 239.29L465.386 232.775" stroke="#263238" stroke-width="0.5" stroke-linecap="round" stroke-linejoin="round"/>
<path d="M457.395 239.644C456.323 239.631 455.266 239.387 454.296 238.93C453.326 238.474 452.465 237.814 451.771 236.996C450.254 235.29 446.49 226.316 449.645 225.474C453.088 224.554 459.819 233.739 457.395 239.644Z" fill="#66CBFF" stroke="#263238" stroke-linecap="round" stroke-linejoin="round"/>
<path d="M457.394 239.645L451.804 230.604" stroke="#263238" stroke-width="0.5" stroke-linecap="round" stroke-linejoin="round"/>
<path d="M464.623 460.288H445.837L443.49 412.813H466.97L464.623 460.288Z" fill="#263238" stroke="#263238" stroke-linecap="round" stroke-linejoin="round"/>
<path d="M502.66 0H200.731V180.503H502.66V0Z" fill="#263238"/>
<path opacity="0.1" d="M502.66 0H200.731V180.503H502.66V0Z" fill="white"/>
<path d="M502.66 0H200.731V42.8657H502.66V0Z" fill="#263238"/>
<path d="M281.976 83.1496V71.2173H283.304V81.942H286.713V83.1496H281.976Z" fill="white"/>
<path d="M287.633 74.0982C287.633 72.2701 288.54 71.0957 290.367 71.0957C292.193 71.0957 293.101 72.2701 293.101 74.0982V80.2693C293.101 82.0753 292.204 83.2718 290.367 83.2718C288.529 83.2718 287.633 82.0753 287.633 80.2693V74.0982ZM288.95 80.3358C288.95 81.4437 289.404 82.0642 290.367 82.0642C291.33 82.0642 291.772 81.4327 291.772 80.3358V74.0317C291.772 72.9238 291.33 72.3033 290.367 72.3033C289.404 72.3033 288.95 72.957 288.95 74.0317V80.3358Z" fill="white"/>
<path d="M295.525 83.1496H294.33V71.2173H296.012L298.78 79.848V71.2173H299.953V83.1496H298.569L295.525 73.4996V83.1496Z" fill="white"/>
<path d="M304.116 71.2173C305.975 71.2173 306.828 72.3252 306.828 74.1865V80.2026C306.828 82.0306 305.975 83.1496 304.116 83.1496H301.315V71.2173H304.116ZM304.116 81.942C305.068 81.942 305.532 81.3437 305.532 80.258V74.12C305.532 73.0121 305.068 72.4249 304.105 72.4249H302.666V81.942H304.116Z" fill="white"/>
<path d="M307.969 74.0982C307.969 72.2701 308.865 71.0957 310.692 71.0957C312.518 71.0957 313.437 72.2701 313.437 74.0982V80.2693C313.437 82.0753 312.529 83.2718 310.692 83.2718C308.854 83.2718 307.969 82.0753 307.969 80.2693V74.0982ZM309.275 80.3358C309.275 81.4437 309.74 82.0642 310.692 82.0642C311.644 82.0642 312.108 81.4327 312.108 80.3358V74.0317C312.108 72.9238 311.666 72.3033 310.692 72.3033C309.718 72.3033 309.275 72.957 309.275 74.0317V80.3358Z" fill="white"/>
<path d="M315.872 83.1496H314.677V71.2173H316.415L319.171 79.848V71.2173H320.344V83.1496H318.972L315.917 73.4996L315.872 83.1496Z" fill="white"/>
<path d="M434.678 74.0982V75.2061H433.416V74.0982C433.416 72.9903 432.984 72.3698 432.01 72.3698C431.036 72.3698 430.615 73.0235 430.615 74.0982V80.4023C430.615 81.5102 431.058 82.1306 432.01 82.1306C432.962 82.1306 433.416 81.477 433.416 80.4023V78.8512H434.678V80.2693C434.678 82.0753 433.825 83.2718 431.977 83.2718C430.128 83.2718 429.331 82.0753 429.331 80.2693V74.0982C429.331 72.2923 430.184 71.0957 431.999 71.0957C433.814 71.0957 434.678 72.2923 434.678 74.0982Z" fill="#66CBFF"/>
<path d="M437.224 80.7454L436.77 83.1496H435.542L437.822 71.2173H439.748L442.039 83.1496H440.7L440.246 80.7454H437.224ZM437.401 79.6375H440.058L438.707 72.7462L437.401 79.6375Z" fill="#66CBFF"/>
<path d="M444.254 83.1496H443.058V71.2173H444.741L447.508 79.848V71.2173H448.681V83.1496H447.298L444.254 73.4996V83.1496Z" fill="#66CBFF"/>
<path d="M455.312 74.0982V75.2061H454.05V74.0982C454.05 72.9903 453.63 72.3698 452.656 72.3698C451.682 72.3698 451.261 73.0235 451.261 74.0982V80.4023C451.261 81.5102 451.704 82.1306 452.656 82.1306C453.608 82.1306 454.05 81.477 454.05 80.4023V78.8512H455.312V80.2693C455.312 82.0753 454.46 83.2718 452.623 83.2718C450.785 83.2718 449.944 82.0753 449.944 80.2693V74.0982C449.944 72.2923 450.796 71.0957 452.623 71.0957C454.449 71.0957 455.312 72.2923 455.312 74.0982Z" fill="#66CBFF"/>
<path d="M460.77 76.5021V77.6987H457.848V81.942H461.434V83.1496H456.519V71.2173H461.434V72.4249H457.848V76.5021H460.77Z" fill="#66CBFF"/>
<path d="M462.664 83.1496V71.2173H463.992V81.942H467.401V83.1496H462.664Z" fill="#66CBFF"/>
<path d="M468.398 83.1496V71.2173H469.726V81.942H473.135V83.1496H468.398Z" fill="#66CBFF"/>
<path d="M478.394 76.5021V77.6987H475.472V81.942H479.058V83.1496H474.143V71.2173H479.058V72.4249H475.472V76.5021H478.394Z" fill="#66CBFF"/>
<path d="M483.077 71.2173C484.937 71.2173 485.789 72.3252 485.789 74.1865V80.2026C485.789 82.0306 484.937 83.1496 483.077 83.1496H480.254V71.2173H483.077ZM483.077 81.942C484.029 81.942 484.483 81.3437 484.483 80.258V74.12C484.483 73.0121 484.029 72.4249 483.055 72.4249H481.627V81.942H483.077Z" fill="#66CBFF"/>
<path d="M283.204 103.702H282.009V91.7698H283.702L286.458 100.401V91.7698H287.632V103.702H286.193L283.204 94.0521V103.702Z" fill="white"/>
<path d="M293.167 97.0546V98.2512H290.245V102.495H293.831V103.702H288.916V91.7698H293.831V92.9774H290.245V97.0546H293.167Z" fill="white"/>
<path d="M298.248 103.702H296.422L294.784 91.7698H296.079L297.485 101.929L298.813 91.7809H300.119L301.436 101.952L302.787 91.7698H303.894L302.278 103.702H300.518L299.411 95.6032L298.248 103.702Z" fill="white"/>
<path d="M309.773 99.4255L307.249 91.7698H308.666L310.514 97.6307L312.396 91.7698H313.658L311.112 99.4255V103.702H309.773V99.4255Z" fill="white"/>
<path d="M314.201 94.6724C314.201 92.8443 315.097 91.6699 316.924 91.6699C318.75 91.6699 319.735 92.8222 319.735 94.6724V100.844C319.735 102.649 318.827 103.846 316.99 103.846C315.153 103.846 314.267 102.649 314.267 100.844L314.201 94.6724ZM315.507 100.91C315.507 102.018 315.972 102.638 316.924 102.638C317.876 102.638 318.34 102.007 318.34 100.91V94.6059C318.34 93.498 317.898 92.8776 316.924 92.8776C315.95 92.8776 315.507 93.5312 315.507 94.6059V100.91Z" fill="white"/>
<path d="M323.61 91.7698C325.481 91.7698 326.267 92.7226 326.267 94.4953V95.4703C326.267 96.7776 325.813 97.5975 324.783 97.9188C325.89 98.2511 326.289 99.1375 326.289 100.412V102.273C326.247 102.761 326.327 103.252 326.521 103.702H325.182C324.992 103.243 324.916 102.745 324.961 102.251V100.378C324.961 99.0267 324.33 98.6057 323.223 98.6057H322.282V103.702H320.954V91.7698H323.61ZM323.267 97.398C324.374 97.398 324.961 97.0546 324.961 95.7583V94.6504C324.961 93.5425 324.562 93.0107 323.577 93.0107H322.282V97.4424L323.267 97.398Z" fill="white"/>
<path d="M329.699 98.5171L328.991 99.7025V103.702H327.662V91.7698H328.991V97.531L332.167 91.7698H333.507L330.496 97.2097L333.617 103.702H332.245L329.699 98.5171Z" fill="white"/>
<path d="M434.677 94.6724V95.7803H433.416V94.6724C433.416 93.5645 432.984 92.944 432.01 92.944C431.036 92.944 430.615 93.5977 430.615 94.6724V100.977C430.615 102.084 431.058 102.705 432.01 102.705C432.962 102.705 433.416 102.051 433.416 100.977V99.4254H434.677V100.91C434.677 102.716 433.825 103.913 431.977 103.913C430.128 103.913 429.309 102.716 429.309 100.91V94.6724C429.309 92.8665 430.161 91.6699 431.977 91.6699C433.792 91.6699 434.677 92.8443 434.677 94.6724Z" fill="#66CBFF"/>
<path d="M437.224 101.32L436.77 103.724H435.542L437.822 91.7917H439.748L442.039 103.724H440.7L440.246 101.32H437.224ZM437.401 100.212H440.058L438.707 93.3207L437.401 100.212Z" fill="#66CBFF"/>
<path d="M444.254 103.702H443.058V91.7698H444.741L447.508 100.401V91.7698H448.681V103.702H447.298L444.254 94.0521V103.702Z" fill="#66CBFF"/>
<path d="M455.312 94.6724V95.7803H454.05V94.6724C454.05 93.5645 453.63 92.944 452.656 92.944C451.682 92.944 451.261 93.5977 451.261 94.6724V100.977C451.261 102.084 451.704 102.705 452.656 102.705C453.608 102.705 454.05 102.051 454.05 100.977V99.4254H455.312V100.91C455.312 102.716 454.46 103.913 452.623 103.913C450.785 103.913 449.944 102.716 449.944 100.91V94.6724C449.944 92.8665 450.796 91.6699 452.623 91.6699C454.449 91.6699 455.312 92.8443 455.312 94.6724Z" fill="#66CBFF"/>
<path d="M460.77 97.0546V98.2512H457.848V102.495H461.434V103.702H456.519V91.7698H461.434V92.9774H457.848V97.0546H460.77Z" fill="#66CBFF"/>
<path d="M462.664 103.702V91.7698H463.992V102.495H467.401V103.702H462.664Z" fill="#66CBFF"/>
<path d="M468.398 103.702V91.7698H469.726V102.495H473.135V103.702H468.398Z" fill="#66CBFF"/>
<path d="M478.394 97.0546V98.2512H475.472V102.495H479.058V103.702H474.143V91.7698H479.058V92.9774H475.472V97.0546H478.394Z" fill="#66CBFF"/>
<path d="M483.077 91.7698C484.937 91.7698 485.789 92.8777 485.789 94.739V100.755C485.789 102.583 484.937 103.702 483.077 103.702H480.254V91.7698H483.077ZM483.077 102.495C484.029 102.495 484.483 101.896 484.483 100.81V94.6725C484.483 93.5646 484.029 92.9885 483.055 92.9885H481.627V102.506L483.077 102.495Z" fill="#66CBFF"/>
<path d="M284.577 112.311C286.458 112.311 287.255 113.418 287.255 115.235V116.665C287.255 118.559 286.37 119.545 284.477 119.545H283.304V124.254H281.976V112.311H284.577ZM284.477 118.349C285.462 118.349 285.938 117.894 285.938 116.753V115.169C285.938 114.061 285.551 113.529 284.577 113.529H283.304V118.349H284.477Z" fill="white"/>
<path d="M289.47 121.85L289.016 124.254H287.788L290.068 112.311H291.994L294.274 124.254H292.946L292.492 121.85H289.47ZM289.647 120.742H292.304L290.953 113.817L289.647 120.742Z" fill="white"/>
<path d="M297.972 112.311C299.854 112.311 300.64 113.274 300.64 115.047V116.022C300.722 116.54 300.618 117.07 300.346 117.518C300.075 117.967 299.653 118.304 299.156 118.471C300.263 118.792 300.651 119.678 300.651 120.963V122.825C300.613 123.314 300.697 123.805 300.894 124.254H299.544C299.355 123.795 299.279 123.297 299.322 122.803V120.93C299.322 119.579 298.691 119.158 297.585 119.158H296.644V124.254H295.315V112.311H297.972ZM297.596 117.939C298.647 117.939 299.278 117.606 299.278 116.31V115.202C299.278 114.094 298.891 113.563 297.894 113.563H296.599V117.994L297.596 117.939Z" fill="white"/>
<path d="M303.363 112.311V124.254H302.024V112.311H303.363Z" fill="white"/>
<path d="M309.894 115.18V115.501H308.665V115.114C308.665 114.006 308.256 113.407 307.304 113.407C306.352 113.407 305.931 114.039 305.931 115.091C305.931 117.773 309.938 118.027 309.938 121.384C309.938 123.201 309.075 124.376 307.248 124.376C305.422 124.376 304.57 123.201 304.57 121.384V120.709H305.821V121.462C305.821 122.57 306.263 123.168 307.215 123.168C308.167 123.168 308.61 122.537 308.61 121.462C308.61 118.792 304.625 118.537 304.625 115.18C304.625 113.341 305.477 112.2 307.271 112.2C309.064 112.2 309.894 113.374 309.894 115.18Z" fill="white"/>
<path d="M434.678 115.202V116.31H433.416V115.202C433.416 114.094 432.984 113.485 432.01 113.485C431.036 113.485 430.615 114.127 430.615 115.202V121.517C430.615 122.625 431.058 123.246 432.01 123.246C432.962 123.246 433.416 122.592 433.416 121.517V119.966H434.678V121.451C434.678 123.257 433.825 124.453 431.977 124.453C430.128 124.453 429.331 123.179 429.331 121.373V115.202C429.331 113.385 430.184 112.2 431.999 112.2C433.814 112.2 434.678 113.385 434.678 115.202Z" fill="#66CBFF"/>
<path d="M437.224 121.85L436.77 124.254H435.542L437.822 112.311H439.748L442.039 124.254H440.7L440.246 121.85H437.224ZM437.401 120.742H440.058L438.707 113.851L437.401 120.742Z" fill="#66CBFF"/>
<path d="M444.254 124.254H443.058V112.311H444.741L447.508 120.941V112.311H448.681V124.254H447.298L444.254 114.615V124.254Z" fill="#66CBFF"/>
<path d="M455.312 115.202V116.31H454.05V115.202C454.05 114.094 453.63 113.485 452.656 113.485C451.682 113.485 451.261 114.128 451.261 115.202V121.517C451.261 122.625 451.704 123.246 452.656 123.246C453.608 123.246 454.05 122.592 454.05 121.517V119.966H455.312V121.451C455.312 123.257 454.46 124.453 452.623 124.453C450.785 124.453 449.944 123.257 449.944 121.451V115.28C449.944 113.463 450.796 112.277 452.623 112.277C454.449 112.277 455.312 113.385 455.312 115.202Z" fill="#66CBFF"/>
<path d="M460.77 117.606V118.792H457.848V123.046H461.434V124.254H456.519V112.311H461.434V113.507H457.848V117.584L460.77 117.606Z" fill="#66CBFF"/>
<path d="M462.664 124.254V112.311H463.992V123.046H467.401V124.254H462.664Z" fill="#66CBFF"/>
<path d="M468.398 124.254V112.311H469.726V123.046H473.135V124.254H468.398Z" fill="#66CBFF"/>
<path d="M478.394 117.606V118.792H475.472V123.046H479.058V124.254H474.143V112.311H479.058V113.507H475.472V117.584L478.394 117.606Z" fill="#66CBFF"/>
<path d="M483.077 112.311C484.937 112.311 485.789 113.418 485.789 115.28V121.263C485.789 123.08 484.937 124.21 483.077 124.21H480.254V112.311H483.077ZM483.077 123.046C484.029 123.046 484.483 122.448 484.483 121.351V115.213C484.483 114.105 484.029 113.529 483.055 113.529H481.627V123.046H483.077Z" fill="#66CBFF"/>
<path d="M286.37 144.784H285.086L283.116 135.289V144.806H281.954V132.863H283.813L285.772 142.402L287.665 132.863H289.525V144.806H288.263V135.2L286.37 144.784Z" fill="white"/>
<path d="M292.226 142.402L291.773 144.806H290.544L292.824 132.863H294.75L297.041 144.806H295.713L295.248 142.402H292.226ZM292.403 141.294H295.06L293.71 134.403L292.403 141.294Z" fill="white"/>
<path d="M300.917 132.863C302.776 132.863 303.628 133.97 303.628 135.832V141.859C303.628 143.676 302.776 144.806 300.917 144.806H298.127V132.863H300.917ZM300.917 143.598C301.868 143.598 302.322 143 302.322 141.903V135.765C302.322 134.657 301.868 134.081 300.894 134.081H299.466V143.598H300.917Z" fill="white"/>
<path d="M307.492 132.863C309.363 132.863 310.149 133.815 310.149 135.599V136.563C310.149 137.881 309.684 138.701 308.665 139.023C309.772 139.344 310.16 140.23 310.16 141.515V143.421C310.123 143.91 310.206 144.401 310.403 144.85H309.053C308.865 144.391 308.789 143.893 308.831 143.399V141.527C308.831 140.175 308.2 139.754 307.094 139.754H306.153V144.85H304.824V132.863H307.492ZM307.149 138.491C308.2 138.491 308.831 138.147 308.831 136.862V135.754C308.831 134.646 308.444 134.126 307.448 134.126H306.153V138.557L307.149 138.491Z" fill="white"/>
<path d="M312.872 132.863V144.806H311.544V132.863H312.872Z" fill="white"/>
<path d="M317.034 132.863C318.894 132.863 319.735 133.97 319.735 135.832V141.859C319.735 143.676 318.894 144.806 317.034 144.806H314.201V132.863H317.034ZM317.034 143.598C317.986 143.598 318.451 143 318.451 141.903V135.765C318.451 134.657 317.986 134.081 317.023 134.081H315.584V143.598H317.034Z" fill="white"/>
<path d="M434.677 135.743V136.851H433.416V135.743C433.416 134.635 432.984 134.026 432.01 134.026C431.036 134.026 430.615 134.669 430.615 135.743V142.058C430.615 143.166 431.058 143.776 432.01 143.776C432.962 143.776 433.416 143.133 433.416 142.058V140.507H434.677V141.992C434.677 143.798 433.825 144.994 431.977 144.994C430.128 144.994 429.309 143.798 429.309 141.992V135.81C429.309 134.004 430.161 132.818 431.977 132.818C433.792 132.818 434.677 133.937 434.677 135.743Z" fill="#66CBFF"/>
<path d="M437.224 142.402L436.77 144.806H435.542L437.822 132.863H439.748L442.039 144.806H440.7L440.246 142.402H437.224ZM437.401 141.294H440.058L438.707 134.403L437.401 141.294Z" fill="#66CBFF"/>
<path d="M444.254 144.806H443.058V132.863H444.741L447.508 141.493V132.863H448.681V144.806H447.298L444.254 135.156V144.806Z" fill="#66CBFF"/>
<path d="M455.312 135.743V136.851H454.05V135.743C454.05 134.635 453.63 134.026 452.656 134.026C451.682 134.026 451.261 134.669 451.261 135.743V142.058C451.261 143.166 451.704 143.776 452.656 143.776C453.608 143.776 454.05 143.133 454.05 142.058V140.507H455.312V141.992C455.312 143.798 454.46 144.994 452.623 144.994C450.785 144.994 449.944 143.798 449.944 141.992V135.81C449.944 134.004 450.796 132.818 452.623 132.818C454.449 132.818 455.312 133.937 455.312 135.743Z" fill="#66CBFF"/>
<path d="M460.77 138.147V139.344H457.848V143.598H461.434V144.806H456.519V132.863H461.434V134.081H457.848V138.147H460.77Z" fill="#66CBFF"/>
<path d="M462.664 144.806V132.863H463.992V143.598H467.401V144.806H462.664Z" fill="#66CBFF"/>
<path d="M468.398 144.806V132.863H469.726V143.598H473.135V144.806H468.398Z" fill="#66CBFF"/>
<path d="M478.394 138.147V139.344H475.472V143.598H479.058V144.806H474.143V132.863H479.058V134.081H475.472V138.147H478.394Z" fill="#66CBFF"/>
<path d="M483.077 132.863C484.937 132.863 485.789 133.97 485.789 135.832V141.859C485.789 143.676 484.937 144.806 483.077 144.806H480.254V132.863H483.077ZM483.077 143.598C484.029 143.598 484.483 143 484.483 141.903V135.765C484.483 134.657 484.029 134.081 483.055 134.081H481.627V143.598H483.077Z" fill="#66CBFF"/>
<path d="M284.632 153.393C286.503 153.393 287.289 154.345 287.289 156.118V157.093C287.289 158.411 286.824 159.231 285.805 159.553C286.912 159.874 287.311 160.76 287.311 162.045V163.896C287.269 164.388 287.349 164.882 287.543 165.336H286.193C286.012 164.875 285.936 164.379 285.971 163.885V162.034C285.971 160.683 285.352 160.251 284.234 160.251H283.304V165.358H281.976V153.393H284.632ZM284.311 159.043C285.418 159.043 285.994 158.7 285.994 157.403V156.295C285.994 155.187 285.606 154.656 284.621 154.656H283.326V159.087L284.311 159.043Z" fill="white"/>
<path d="M288.584 156.295C288.584 154.478 289.492 153.292 291.307 153.292C293.123 153.292 294.053 154.478 294.053 156.295V162.477C294.053 164.283 293.156 165.48 291.307 165.48C289.459 165.48 288.584 164.283 288.584 162.477V156.295ZM289.902 162.544C289.902 163.652 290.355 164.261 291.307 164.261C292.259 164.261 292.724 163.629 292.724 162.544V156.228C292.724 155.121 292.281 154.511 291.307 154.511C290.333 154.511 289.902 155.154 289.902 156.228V162.544Z" fill="white"/>
<path d="M299.71 165.336H298.437L296.488 155.841V165.358H295.382V153.393H297.23L299.189 162.932L301.082 153.393H302.942V165.358H301.68V155.752L299.71 165.336Z" fill="white"/>
<path d="M308.477 158.7V159.896H305.566V164.139H309.142V165.358H304.238V153.393H309.153V154.6H305.566V158.677L308.477 158.7Z" fill="white"/>
<path d="M377.644 74.0981V74.4083C377.703 74.919 377.593 75.4351 377.332 75.8775C377.07 76.3198 376.67 76.6638 376.194 76.8568C376.673 77.0559 377.073 77.4061 377.335 77.8541C377.597 78.302 377.705 78.8233 377.644 79.3386V80.2692C377.644 82.0862 376.791 83.2828 374.954 83.2828C373.117 83.2828 372.275 82.0862 372.275 80.2692V79.4494H373.526V80.3468C373.526 81.4547 373.969 82.0752 374.921 82.0752C375.873 82.0752 376.316 81.4436 376.316 80.236V79.3164C376.316 78.1309 375.829 77.577 374.821 77.5327H374.102V76.3472H374.888C375.094 76.3494 375.299 76.3068 375.487 76.2222C375.676 76.1376 375.844 76.013 375.98 75.8571C376.115 75.7012 376.216 75.5177 376.274 75.3192C376.332 75.1207 376.346 74.912 376.316 74.7075V74.1646C376.316 72.9348 375.895 72.3032 374.921 72.3032C373.947 72.3032 373.526 72.968 373.526 74.0427V74.6521H372.275V74.1092C372.275 72.2811 373.128 71.1067 374.954 71.1067C376.78 71.1067 377.644 72.27 377.644 74.0981Z" fill="white"/>
<path d="M381.375 73.3781C380.876 73.6837 380.31 73.8625 379.726 73.8988V72.7909C380.197 72.8011 380.657 72.6494 381.029 72.3611C381.402 72.0727 381.665 71.6652 381.774 71.2065H382.692V83.15H381.375V73.3781Z" fill="white"/>
<path d="M377.71 94.6724C377.71 98.2732 373.681 99.5695 373.659 102.317V102.505H377.577V103.713H372.341V102.694C372.341 98.8382 376.382 98.0849 376.382 94.7278C376.382 93.498 375.972 92.8554 374.987 92.8554C374.002 92.8554 373.592 93.5534 373.592 94.606V95.7139H372.341V94.6724C372.341 92.8444 373.183 91.6367 375.02 91.6367C376.858 91.6367 377.71 92.8444 377.71 94.6724Z" fill="white"/>
<path d="M382.913 92.9553H378.862V91.7698H384.264V92.8777L381.198 103.658H379.869L382.913 92.9553Z" fill="white"/>
<path d="M377.71 115.213C377.71 118.814 373.681 120.11 373.659 122.858V123.046H377.577V124.254H372.341V123.235C372.341 119.379 376.382 118.626 376.382 115.269C376.382 114.039 375.972 113.385 374.987 113.385C374.002 113.385 373.592 114.094 373.592 115.147V116.255H372.341V115.291C372.341 113.463 373.183 112.255 375.02 112.255C376.858 112.255 377.71 113.385 377.71 115.213Z" fill="white"/>
<path d="M384.418 115.147V115.523C384.482 116.026 384.384 116.537 384.137 116.979C383.89 117.422 383.507 117.774 383.046 117.983C383.514 118.199 383.9 118.56 384.147 119.013C384.395 119.466 384.49 119.987 384.418 120.498V121.384C384.418 121.754 384.346 122.12 384.204 122.461C384.063 122.803 383.856 123.113 383.595 123.374C383.334 123.635 383.024 123.843 382.683 123.984C382.342 124.126 381.976 124.198 381.607 124.198C381.238 124.198 380.872 124.126 380.531 123.984C380.19 123.843 379.88 123.635 379.619 123.374C379.358 123.113 379.151 122.803 379.009 122.461C378.868 122.12 378.795 121.754 378.795 121.384V120.498C378.72 119.986 378.814 119.464 379.061 119.011C379.309 118.557 379.697 118.196 380.168 117.983C379.703 117.778 379.318 117.427 379.07 116.983C378.822 116.539 378.726 116.027 378.795 115.523V115.147C378.795 114.777 378.868 114.411 379.009 114.07C379.151 113.728 379.358 113.418 379.619 113.157C379.88 112.895 380.19 112.688 380.531 112.547C380.872 112.405 381.238 112.333 381.607 112.333C381.976 112.333 382.342 112.405 382.683 112.547C383.024 112.688 383.334 112.895 383.595 113.157C383.856 113.418 384.063 113.728 384.204 114.07C384.346 114.411 384.418 114.777 384.418 115.147ZM380.101 115.147V115.723C380.101 116.886 380.666 117.396 381.607 117.396C382.548 117.396 383.101 116.886 383.101 115.723V115.147C383.101 113.917 382.537 113.352 381.607 113.352C380.677 113.352 380.101 113.95 380.101 115.18V115.147ZM380.101 120.321V121.318C380.101 122.548 380.644 123.135 381.607 123.135C382.57 123.135 383.09 122.548 383.101 121.318V120.321C383.101 119.157 382.592 118.592 381.607 118.592C380.622 118.592 380.101 119.191 380.101 120.354V120.321Z" fill="white"/>
<path d="M377.71 135.765C377.71 139.366 373.681 140.662 373.659 143.41V143.598H377.577V144.806H372.341V143.787C372.341 139.931 376.382 139.178 376.382 135.821C376.382 134.591 375.972 133.937 374.987 133.937C374.002 133.937 373.592 134.635 373.592 135.699V136.774H372.341V135.81C372.341 133.982 373.183 132.774 375.02 132.774C376.858 132.774 377.71 133.937 377.71 135.765Z" fill="white"/>
<path d="M384.297 135.743V141.837C384.297 143.731 383.445 144.928 381.53 144.928C379.615 144.928 378.84 143.742 378.84 141.925V141.704H380.091V142.003C380.091 143.111 380.545 143.709 381.497 143.709C382.449 143.709 382.969 143.067 382.969 141.803V139.122C382.828 139.513 382.564 139.848 382.217 140.076C381.869 140.304 381.457 140.412 381.043 140.385C379.504 140.385 378.829 139.277 378.829 137.571V135.743C378.829 133.926 379.715 132.752 381.552 132.752C383.389 132.752 384.297 133.926 384.297 135.743ZM380.135 135.677V137.471C380.135 138.579 380.6 139.189 381.552 139.189C382.504 139.189 382.969 138.546 382.969 137.471V135.666C382.969 134.558 382.526 133.948 381.552 133.948C380.578 133.948 380.135 134.558 380.135 135.666V135.677Z" fill="white"/>
<path d="M377.19 162.954V165.358H375.895V162.954H372.043V161.735L375.74 153.415H377.19V161.735H378.142V162.954H377.19ZM373.272 161.735H375.895V155.907L373.272 161.735Z" fill="white"/>
<path d="M379.061 156.295C379.061 154.478 379.969 153.292 381.784 153.292C383.6 153.292 384.529 154.478 384.529 156.295V162.455C384.529 164.283 383.633 165.48 381.784 165.48C379.936 165.48 379.061 164.283 379.061 162.455V156.295ZM380.378 162.544C380.378 163.652 380.832 164.261 381.784 164.261C382.736 164.261 383.201 163.618 383.201 162.544V156.228C383.201 155.121 382.758 154.489 381.784 154.489C380.81 154.489 380.378 155.143 380.378 156.228V162.544Z" fill="white"/>
<path d="M223.901 73.3781C223.397 73.6822 222.828 73.8608 222.241 73.8988V72.7909C222.712 72.8011 223.172 72.6494 223.544 72.3611C223.917 72.0727 224.18 71.6652 224.288 71.2065H225.207V83.15H223.901V73.3781Z" fill="white"/>
<path d="M232.591 74.1202C232.591 77.7099 228.551 79.0062 228.54 81.7538V81.9422H232.458V83.1498H227.222V82.1305C227.222 78.2749 231.263 77.5215 231.263 74.1645C231.263 72.9347 230.853 72.2921 229.868 72.2921C228.883 72.2921 228.462 72.9901 228.462 74.0427V75.1506H227.222V74.1756C227.222 72.3475 228.053 71.1399 229.901 71.1399C231.75 71.1399 232.591 72.2921 232.591 74.1202Z" fill="white"/>
<path d="M235.093 75.0066V76.6574H233.82V75.0066H235.093ZM235.093 81.499V83.1498H233.82V81.499H235.093Z" fill="white"/>
<path d="M241.757 74.0981V74.4083C241.816 74.919 241.707 75.4351 241.445 75.8775C241.183 76.3198 240.783 76.6638 240.307 76.8568C240.786 77.0559 241.187 77.4061 241.448 77.8541C241.71 78.302 241.818 78.8233 241.757 79.3386V80.2692C241.757 82.0862 240.905 83.2828 239.067 83.2828C237.23 83.2828 236.389 82.0862 236.389 80.2692V79.4494H237.639V80.3468C237.639 81.4547 238.082 82.0752 239.034 82.0752C239.986 82.0752 240.429 81.4436 240.429 80.236V79.3164C240.429 78.1309 239.931 77.577 238.934 77.5327H238.215V76.3472H239.001C239.207 76.3494 239.412 76.3068 239.601 76.2222C239.789 76.1376 239.957 76.013 240.093 75.8571C240.229 75.7012 240.329 75.5177 240.387 75.3192C240.445 75.1207 240.459 74.912 240.429 74.7075V74.1646C240.429 72.9348 240.008 72.3032 239.034 72.3032C238.06 72.3032 237.639 72.968 237.639 74.0427V74.6521H236.389V74.1092C236.389 72.2811 237.241 71.1067 239.067 71.1067C240.894 71.1067 241.757 72.27 241.757 74.0981Z" fill="white"/>
<path d="M248.41 74.0982V80.1918C248.41 82.0753 247.558 83.2718 245.643 83.2718C243.728 83.2718 242.953 82.0974 242.953 80.2693V80.0478H244.193V80.358C244.193 81.4659 244.658 82.0642 245.61 82.0642C246.562 82.0642 247.082 81.4105 247.082 80.1585V77.4774C246.941 77.8685 246.677 78.2032 246.33 78.431C245.983 78.6588 245.571 78.7674 245.156 78.7404C243.618 78.7404 242.942 77.6325 242.942 75.9263V74.0982C242.942 72.2701 243.839 71.0957 245.676 71.0957C247.514 71.0957 248.41 72.2701 248.41 74.0982ZM244.248 74.0317V75.8376C244.248 76.9456 244.713 77.566 245.665 77.566C246.617 77.566 247.082 76.9123 247.082 75.8376V74.0539C247.082 72.9459 246.639 72.3255 245.665 72.3255C244.691 72.3255 244.248 72.9349 244.248 74.0317Z" fill="white"/>
<path d="M284.765 48.4053C286.624 48.4053 287.477 49.5132 287.477 51.3745V57.3906C287.477 59.2186 286.624 60.3487 284.765 60.3487H281.976V48.4053H284.765ZM284.765 59.13C285.717 59.13 286.171 58.5428 286.171 57.446V51.308C286.171 50.2001 285.717 49.6129 284.743 49.6129H283.315V59.13H284.765Z" fill="white"/>
<path d="M292.968 53.679V54.8756H290.045V59.1189H293.632V60.3266H288.739V48.4053H293.654V49.6129H290.067V53.679H292.968Z" fill="white"/>
<path d="M300.02 51.2746V51.5959H298.758V51.2081C298.758 50.1002 298.348 49.5019 297.396 49.5019C296.444 49.5019 296.035 50.1334 296.035 51.186C296.035 53.8672 300.042 54.122 300.042 57.479C300.042 59.2849 299.167 60.4704 297.341 60.4704C295.515 60.4704 294.673 59.2849 294.673 57.479V56.8032H295.913V57.5455C295.913 58.6534 296.356 59.2517 297.308 59.2517C298.26 59.2517 298.713 58.6202 298.713 57.5455C298.713 54.8864 294.718 54.6316 294.718 51.2746C294.718 49.4244 295.57 48.2832 297.363 48.2832C299.156 48.2832 300.02 49.4687 300.02 51.2746Z" fill="white"/>
<path d="M302.92 60.3266V49.6129H300.706V48.4053H306.451V49.6129H304.237V60.3266H302.92Z" fill="white"/>
<path d="M308.665 48.4053V60.3266H307.337V48.4053H308.665Z" fill="white"/>
<path d="M311.201 60.3266H310.005V48.4053H311.699L314.455 57.0028V48.4053H315.628V60.3266H314.256L311.201 50.6654V60.3266Z" fill="white"/>
<path d="M318.341 57.9445L317.887 60.3265H316.659L318.939 48.3831H320.843L323.145 60.3265H321.817L321.363 57.9223L318.341 57.9445ZM318.518 56.8365H321.175L319.824 49.9452L318.518 56.8365Z" fill="white"/>
<path d="M325.271 60.3266V49.6129H323.057V48.4053H328.769V49.6129H326.555V60.3266H325.271Z" fill="white"/>
<path d="M331.005 48.4053V60.3266H329.699V48.4053H331.005Z" fill="white"/>
<path d="M332.268 51.2857C332.268 49.4687 333.175 48.2832 334.99 48.2832C336.806 48.2832 337.736 49.4687 337.736 51.2857V57.4679C337.736 59.2738 336.839 60.4704 334.99 60.4704C333.142 60.4704 332.268 59.2738 332.268 57.4679V51.2857ZM333.585 57.5344C333.585 58.6423 334.039 59.2517 334.99 59.2517C335.942 59.2517 336.407 58.6202 336.407 57.5344V51.2192C336.407 50.1113 335.965 49.5019 334.99 49.5019C334.016 49.5019 333.585 50.1445 333.585 51.2192V57.5344Z" fill="white"/>
<path d="M340.183 60.3266H338.987V48.4053H340.67L343.437 57.036V48.4053H344.61V60.3266H343.227L340.183 50.6654V60.3266Z" fill="white"/>
<path d="M432.065 48.4053C433.936 48.4053 434.722 49.3581 434.722 51.1308V52.1058C434.722 53.4242 434.268 54.2441 433.238 54.5653C434.345 54.8866 434.744 55.773 434.744 57.0582V58.9084C434.702 59.4003 434.782 59.8949 434.976 60.3487H433.637C433.449 59.8893 433.374 59.3918 433.416 58.8973V57.0028C433.416 55.6511 432.785 55.219 431.678 55.219H430.737V60.3266H429.409V48.4053H432.065ZM431.722 54.0335C432.829 54.0335 433.416 53.6901 433.416 52.3938V51.2859C433.416 50.178 433.017 49.6462 432.032 49.6462H430.737V54.0779L431.722 54.0335Z" fill="white"/>
<path d="M440.401 53.679V54.8756H437.479V59.1189H441.065V60.3266H436.151V48.4053H441.065V49.6129H437.479V53.679H440.401Z" fill="white"/>
<path d="M446.656 60.3266H445.372L443.401 50.8316V60.3266H442.294V48.4053H444.154L446.113 57.9445L448.006 48.4053H449.866V60.3266H448.604V50.743L446.656 60.3266Z" fill="white"/>
<path d="M452.578 57.9445L452.058 60.3265H450.83L453.121 48.3831H455.036L457.327 60.3265H455.999L455.534 57.9223L452.578 57.9445ZM452.744 56.8365H455.401L454.062 49.9452L452.744 56.8365Z" fill="white"/>
<path d="M461.025 48.4053C462.896 48.4053 463.682 49.3581 463.682 51.1308V52.1058C463.682 53.4242 463.217 54.2441 462.198 54.5653C463.305 54.8866 463.704 55.773 463.704 57.0582V58.9084C463.662 59.4003 463.742 59.8949 463.936 60.3487H462.541C462.36 59.8875 462.285 59.3916 462.32 58.8973V57.0028C462.32 55.6511 461.7 55.219 460.582 55.219H459.652V60.3266H458.324V48.4053H461.025ZM460.682 54.0335C461.789 54.0335 462.364 53.6901 462.364 52.3938V51.2859C462.364 50.178 461.977 49.6462 460.992 49.6462H459.697V54.0779L460.682 54.0335Z" fill="white"/>
<path d="M467.102 55.1636L466.405 56.338V60.3266H465.077V48.4053H466.405V54.1665L469.582 48.4053H470.921L467.911 53.8452L471.032 60.3266H469.659L467.102 55.1636Z" fill="white"/>
<path d="M477.132 51.2746V51.5959H475.825V51.2081C475.825 50.1002 475.416 49.5019 474.464 49.5019C473.512 49.5019 473.102 50.1334 473.102 51.186C473.102 53.8672 477.098 54.122 477.098 57.479C477.098 59.2849 476.235 60.4704 474.409 60.4704C472.582 60.4704 471.73 59.2849 471.73 57.479V56.8032H472.981V57.5455C472.981 58.6534 473.423 59.2517 474.375 59.2517C475.327 59.2517 475.77 58.6202 475.77 57.5455C475.77 54.8864 471.785 54.6316 471.785 51.2746C471.785 49.4244 472.638 48.2832 474.431 48.2832C476.224 48.2832 477.132 49.4687 477.132 51.2746Z" fill="white"/>
<path d="M377.61 51.2857V52.3161H376.349V51.2081C376.349 50.1002 375.928 49.4908 374.954 49.4908C373.98 49.4908 373.559 50.1334 373.559 51.2081V57.5233C373.559 58.6312 374.002 59.2406 374.954 59.2406C375.906 59.2406 376.349 58.598 376.349 57.5233V55.1413H375.087V53.9447H377.577V57.4679C377.577 59.2738 376.725 60.4704 374.887 60.4704C373.05 60.4704 372.209 59.2738 372.209 57.4679V51.2857C372.209 49.4798 373.061 48.2832 374.887 48.2832C376.714 48.2832 377.61 49.4798 377.61 51.2857Z" fill="white"/>
<path d="M380.201 57.9445L379.747 60.3265H378.519L380.799 48.3831H382.725L385.049 60.3265H383.721L383.267 57.9223L380.201 57.9445ZM380.378 56.8365H383.035L381.729 49.912L380.378 56.8365Z" fill="white"/>
<path d="M387.12 60.3266V49.6129H384.906V48.4053H390.618V49.6129H388.404V60.3266H387.12Z" fill="white"/>
<path d="M395.777 53.679V54.8756H392.866V59.1189H396.441V60.3266H391.538V48.4053H396.441V49.6129H392.866V53.679H395.777Z" fill="white"/>
<path d="M223.203 60.3266V49.6129H220.99V48.4053H226.746V49.6129H224.532V60.3266H223.203Z" fill="white"/>
<path d="M228.96 48.4053V60.3266H227.632V48.4053H228.96Z" fill="white"/>
<path d="M234.738 60.3266H233.454L231.484 50.8316V60.3266H230.322V48.4053H232.182L234.141 57.9445L236.034 48.4053H237.893V60.3266H236.631V50.743L234.738 60.3266Z" fill="white"/>
<path d="M243.495 53.679V54.8756H240.584V59.1189H244.159V60.3266H239.256V48.4053H244.159V49.6129H240.584V53.679H243.495Z" fill="white"/>
<path d="M259.879 14.5469C262.724 14.5469 264.019 16.2642 264.019 19.0783V28.2741C264.019 31.0661 262.724 32.7833 259.879 32.7833H255.617V14.5469H259.879ZM259.879 30.9331C261.34 30.9331 262.093 30.0246 262.093 28.3516V18.9786C262.093 17.3056 261.395 16.3971 259.879 16.3971H257.665V30.9331H259.879Z" fill="white"/>
<path d="M272.399 22.6569V24.4739H267.971V30.9663H273.439V32.8166H265.946V14.5469H273.439V16.3971H267.971V22.6569H272.399Z" fill="white"/>
<path d="M279.274 14.5469C282.13 14.5469 283.359 16.242 283.359 18.9786V21.1944C283.359 24.0861 282.008 25.6261 279.119 25.6261H277.315V32.8166H275.289V14.5469H279.274ZM279.119 23.7648C280.624 23.7648 281.333 23.0668 281.333 21.3163V18.901C281.333 17.2281 280.735 16.3971 279.252 16.3971H277.293V23.7648H279.119Z" fill="white"/>
<path d="M286.658 29.105L285.961 32.7833H284.079L287.632 14.5469H290.566L294.053 32.7833H292.027L291.319 29.105H286.658ZM286.924 27.3656H290.953L288.894 16.8403L286.924 27.3656Z" fill="white"/>
<path d="M299.643 14.5469C302.51 14.5469 303.706 16.0093 303.706 18.7127V20.1973C303.706 22.2026 303.008 23.4546 301.492 23.9532C303.152 24.4407 303.772 25.8034 303.772 27.7534V30.5897C303.711 31.347 303.837 32.1078 304.137 32.8055H302.023C301.729 32.1062 301.611 31.3453 301.68 30.5897V27.698C301.68 25.6483 300.717 24.9946 299.023 24.9946H297.595V32.7501H295.559V14.5469H299.643ZM299.123 23.1444C300.739 23.1444 301.702 22.6237 301.702 20.6405V18.901C301.702 17.2502 301.104 16.3971 299.599 16.3971H297.595V23.1444H299.123Z" fill="white"/>
<path d="M308.466 32.7833V16.3971H305.145V14.5469H313.868V16.3971H310.547V32.7833H308.466Z" fill="white"/>
<path d="M317.134 28.4846C317.134 30.1243 317.787 31.1104 319.271 31.1104C320.754 31.1104 321.374 30.1243 321.374 28.4846V14.5469H323.278V28.3849C323.278 31.1436 322.005 32.9938 319.193 32.9938C316.382 32.9938 315.131 31.1436 315.131 28.3849V14.5469H317.134V28.4846Z" fill="white"/>
<path d="M329.344 14.5469C332.2 14.5469 333.396 16.0093 333.396 18.7127V20.1973C333.396 22.2026 332.698 23.4546 331.182 23.9532C332.842 24.4407 333.473 25.8034 333.473 27.7534V30.5897C333.407 31.3473 333.532 32.1094 333.838 32.8055H331.78C331.491 32.1046 331.373 31.3451 331.436 30.5897V27.698C331.436 25.6483 330.473 24.9946 328.78 24.9946H327.352V32.7501H325.271V14.5469H329.344ZM328.824 23.1444C330.429 23.1444 331.392 22.6237 331.392 20.6405V18.901C331.392 17.2502 330.794 16.3971 329.289 16.3971H327.308V23.1444H328.824Z" fill="white"/>
<path d="M342.009 22.6569V24.4739H337.581V30.9663H342.983V32.8166H335.489V14.5469H342.983V16.3971H337.559V22.6569H342.009Z" fill="white"/>
<path d="M352.791 18.9233V19.4219H350.865V18.8236C350.865 17.1728 350.234 16.2089 348.784 16.2089C347.334 16.2089 346.692 17.1728 346.692 18.7904C346.692 22.8786 352.813 23.2775 352.813 28.4072C352.813 31.1659 351.485 32.9608 348.695 32.9608C345.906 32.9608 344.611 31.1659 344.611 28.4072V27.3657H346.515V28.4737C346.515 30.1134 347.19 31.0773 348.651 31.0773C350.112 31.0773 350.787 30.1134 350.787 28.4737C350.787 24.4076 344.688 24.042 344.688 18.8901C344.688 16.076 345.994 14.3254 348.728 14.3254C351.462 14.3254 352.791 16.1646 352.791 18.9233Z" fill="white"/>
<path d="M223.901 93.9299C223.398 94.2351 222.828 94.4102 222.241 94.4396V93.3316C222.712 93.3419 223.172 93.1902 223.544 92.9018C223.917 92.6135 224.18 92.206 224.288 91.7473H225.207V103.68H223.901V93.9299Z" fill="white"/>
<path d="M232.591 94.6724C232.591 98.2732 228.551 99.5695 228.54 102.317V102.505H232.458V103.713H227.222V102.694C227.222 98.8382 231.263 98.0849 231.263 94.7278C231.263 93.498 230.853 92.8554 229.868 92.8554C228.883 92.8554 228.462 93.5534 228.462 94.606V95.7139H227.222V94.6724C227.222 92.8444 228.053 91.6367 229.901 91.6367C231.75 91.6367 232.591 92.8444 232.591 94.6724Z" fill="white"/>
<path d="M235.093 95.5474V97.2093H233.82V95.5474H235.093ZM235.093 102.051V103.702H233.82V102.051H235.093Z" fill="white"/>
<path d="M237.816 96.6223C237.993 96.3086 238.253 96.0502 238.568 95.876C238.882 95.7019 239.239 95.6189 239.598 95.6363C241.126 95.6363 241.812 96.7442 241.812 98.4726V100.81C241.812 102.627 240.938 103.824 239.111 103.824C237.285 103.824 236.444 102.627 236.444 100.81V100.002H237.684V100.888C237.684 101.996 238.126 102.616 239.078 102.616C240.03 102.616 240.484 101.963 240.484 100.888V98.5723C240.484 97.4644 240.041 96.8439 239.078 96.8439C238.905 96.8364 238.732 96.8642 238.57 96.9254C238.408 96.9866 238.259 97.0801 238.134 97.2002C238.009 97.3203 237.91 97.4645 237.842 97.6242C237.774 97.7838 237.739 97.9556 237.739 98.1291V98.4061H236.488L236.82 91.7585H241.524V92.944H238.005L237.816 96.6223Z" fill="white"/>
<path d="M242.953 94.6724C242.953 92.8443 243.861 91.6699 245.676 91.6699C247.491 91.6699 248.421 92.8443 248.421 94.6724V100.832C248.421 102.649 247.525 103.846 245.676 103.846C243.828 103.846 242.953 102.649 242.953 100.832V94.6724ZM244.27 100.91C244.27 102.018 244.724 102.638 245.676 102.638C246.628 102.638 247.093 101.985 247.093 100.91V94.6059C247.093 93.498 246.65 92.8665 245.676 92.8665C244.702 92.8665 244.27 93.5091 244.27 94.6059V100.91Z" fill="white"/>
<path d="M223.901 114.482C223.398 114.787 222.828 114.962 222.241 114.992V113.884C222.714 113.895 223.176 113.743 223.549 113.452C223.923 113.161 224.184 112.75 224.288 112.288H225.207V124.254H223.901V114.482Z" fill="white"/>
<path d="M232.524 115.202V115.501C232.581 116.013 232.47 116.529 232.208 116.973C231.947 117.416 231.549 117.763 231.074 117.961C231.552 118.158 231.953 118.506 232.214 118.952C232.476 119.398 232.585 119.918 232.524 120.432V121.351C232.524 123.179 231.672 124.376 229.835 124.376C227.997 124.376 227.156 123.179 227.156 121.351V120.531H228.396V121.44C228.396 122.548 228.838 123.168 229.79 123.168C230.742 123.168 231.196 122.537 231.196 121.318V120.398C231.196 119.224 230.698 118.659 229.691 118.626H228.96V117.429H229.735C229.942 117.431 230.147 117.388 230.336 117.304C230.525 117.219 230.693 117.095 230.83 116.939C230.967 116.784 231.068 116.6 231.127 116.402C231.187 116.203 231.203 115.994 231.174 115.789V115.246C231.174 114.017 230.742 113.385 229.768 113.385C228.794 113.385 228.373 114.05 228.373 115.125V115.723H227.134V115.18C227.134 113.352 227.986 112.177 229.812 112.177C231.639 112.177 232.524 113.374 232.524 115.202Z" fill="white"/>
<path d="M235.093 116.099V117.761H233.82V116.099H235.093ZM235.093 122.603V124.254H233.82V122.603H235.093Z" fill="white"/>
<path d="M241.757 115.202V115.501C241.817 116.014 241.708 116.531 241.446 116.976C241.184 117.42 240.784 117.766 240.307 117.961C240.785 118.158 241.185 118.506 241.447 118.952C241.709 119.398 241.818 119.918 241.757 120.432V121.351C241.757 123.179 240.905 124.376 239.067 124.376C237.23 124.376 236.389 123.179 236.389 121.351V120.531H237.639V121.44C237.639 122.548 238.082 123.168 239.034 123.168C239.986 123.168 240.429 122.537 240.429 121.318V120.398C240.429 119.224 239.931 118.659 238.934 118.626H238.215V117.429H239.001C239.207 117.431 239.412 117.389 239.601 117.304C239.789 117.219 239.957 117.095 240.093 116.939C240.229 116.783 240.329 116.6 240.387 116.401C240.445 116.203 240.459 115.994 240.429 115.789V115.246C240.429 114.017 240.008 113.385 239.034 113.385C238.06 113.385 237.639 114.05 237.639 115.125V115.723H236.389V115.18C236.389 113.352 237.241 112.177 239.067 112.177C240.894 112.177 241.757 113.374 241.757 115.202Z" fill="white"/>
<path d="M248.421 115.213C248.421 118.814 244.381 120.11 244.37 122.858V123.046H248.289V124.254H243.053V123.235C243.053 119.379 247.093 118.626 247.093 115.269C247.093 114.039 246.684 113.385 245.698 113.385C244.713 113.385 244.304 114.094 244.304 115.147V116.255H243.053V115.291C243.053 113.463 243.894 112.255 245.732 112.255C247.569 112.255 248.421 113.385 248.421 115.213Z" fill="white"/>
<path d="M223.901 135.034C223.396 135.335 222.827 135.509 222.241 135.544V134.436C222.713 134.45 223.175 134.3 223.548 134.011C223.922 133.722 224.183 133.312 224.288 132.851H225.207V144.795H223.901V135.034Z" fill="white"/>
<path d="M232.524 135.743V136.053C232.581 136.565 232.47 137.081 232.208 137.525C231.947 137.968 231.549 138.315 231.074 138.513C231.552 138.71 231.953 139.058 232.214 139.504C232.476 139.95 232.585 140.47 232.524 140.984V141.903C232.524 143.731 231.672 144.928 229.835 144.928C227.997 144.928 227.156 143.731 227.156 141.903V141.083H228.396V141.992C228.396 143.1 228.838 143.709 229.79 143.709C230.742 143.709 231.196 143.078 231.196 141.87V140.95C231.196 139.776 230.698 139.211 229.691 139.178H228.96V137.981H229.735C229.942 137.983 230.147 137.94 230.336 137.856C230.525 137.771 230.693 137.647 230.83 137.491C230.967 137.336 231.068 137.152 231.127 136.954C231.187 136.756 231.203 136.547 231.174 136.341V135.799C231.174 134.569 230.742 133.937 229.768 133.937C228.794 133.937 228.373 134.602 228.373 135.677V136.297H227.134V135.743C227.134 133.926 227.986 132.752 229.812 132.752C231.639 132.752 232.524 133.926 232.524 135.743Z" fill="white"/>
<path d="M235.093 136.652V138.302H233.82V136.652H235.093ZM235.093 143.155V144.806H233.82V143.155H235.093Z" fill="white"/>
<path d="M241.303 142.402V144.806H240.03V142.402H236.156V141.205L239.853 132.885H241.303V141.205H242.244V142.424L241.303 142.402ZM237.385 141.183H240.03V135.355L237.385 141.183Z" fill="white"/>
<path d="M248.753 135.666V136.042C248.818 136.544 248.72 137.053 248.473 137.494C248.225 137.936 247.842 138.285 247.381 138.491C247.849 138.71 248.234 139.074 248.481 139.528C248.728 139.983 248.823 140.504 248.753 141.017V141.903C248.777 142.288 248.722 142.674 248.592 143.037C248.461 143.401 248.258 143.733 247.994 144.014C247.73 144.296 247.411 144.52 247.057 144.673C246.703 144.826 246.322 144.905 245.936 144.905C245.551 144.905 245.169 144.826 244.815 144.673C244.462 144.52 244.143 144.296 243.879 144.014C243.615 143.733 243.411 143.401 243.281 143.037C243.15 142.674 243.095 142.288 243.119 141.903V141.017C243.048 140.503 243.144 139.98 243.394 139.525C243.643 139.07 244.032 138.707 244.503 138.491C244.037 138.29 243.649 137.942 243.399 137.5C243.15 137.057 243.051 136.546 243.119 136.042V135.666C243.095 135.28 243.15 134.894 243.281 134.531C243.411 134.168 243.615 133.836 243.879 133.555C244.143 133.273 244.462 133.049 244.815 132.896C245.169 132.743 245.551 132.664 245.936 132.664C246.322 132.664 246.703 132.743 247.057 132.896C247.411 133.049 247.73 133.273 247.994 133.555C248.258 133.836 248.461 134.168 248.592 134.531C248.722 134.894 248.777 135.28 248.753 135.666ZM244.436 135.666V136.242C244.436 137.35 245.001 137.915 245.931 137.915C246.86 137.915 247.436 137.405 247.436 136.242V135.666C247.436 134.436 246.872 133.871 245.931 133.871C244.99 133.871 244.458 134.558 244.458 135.732L244.436 135.666ZM244.436 140.829V141.837C244.436 143.067 244.979 143.643 245.931 143.643C246.883 143.643 247.414 143.067 247.436 141.837V140.829C247.436 139.721 246.927 139.111 245.931 139.111C244.934 139.111 244.458 139.743 244.458 140.895L244.436 140.829Z" fill="white"/>
<path d="M223.901 155.608C223.396 155.909 222.827 156.084 222.241 156.118V155.01C222.713 155.025 223.175 154.874 223.548 154.585C223.922 154.296 224.183 153.886 224.288 153.426H225.207V165.358H223.901V155.608Z" fill="white"/>
<path d="M228.551 158.279C228.724 157.965 228.982 157.706 229.295 157.532C229.608 157.357 229.964 157.275 230.322 157.292C231.86 157.292 232.535 158.4 232.535 160.118V162.455C232.535 164.283 231.672 165.48 229.846 165.48C228.019 165.48 227.167 164.283 227.167 162.455V161.658H228.418V162.544C228.418 163.652 228.86 164.261 229.812 164.261C230.764 164.261 231.207 163.619 231.207 162.544V160.217C231.207 159.109 230.764 158.5 229.812 158.5C229.64 158.493 229.467 158.52 229.305 158.58C229.143 158.641 228.994 158.733 228.869 158.852C228.743 158.971 228.642 159.114 228.572 159.272C228.502 159.43 228.465 159.601 228.462 159.774V160.04H227.222L227.543 153.393H232.281V154.589H228.739L228.551 158.279Z" fill="white"/>
<path d="M235.093 157.204V158.854H233.82V157.204H235.093ZM235.093 163.696V165.358H233.82V163.696H235.093Z" fill="white"/>
<path d="M238.923 155.608C238.419 155.909 237.849 156.084 237.263 156.118V155.01C237.735 155.025 238.197 154.874 238.571 154.585C238.944 154.296 239.206 153.886 239.311 153.426H240.23V165.358H238.923V155.608Z" fill="white"/>
<path d="M242.123 156.295C242.123 154.478 243.019 153.292 244.846 153.292C246.672 153.292 247.591 154.478 247.591 156.295V162.455C247.591 164.283 246.683 165.48 244.846 165.48C243.008 165.48 242.123 164.283 242.123 162.455V156.295ZM243.429 162.544C243.429 163.652 243.894 164.261 244.846 164.261C245.798 164.261 246.263 163.618 246.263 162.544V156.228C246.263 155.121 245.82 154.489 244.846 154.489C243.872 154.489 243.429 155.143 243.429 156.228V162.544Z" fill="white"/>
<path d="M434.678 156.295V157.403H433.416V156.295C433.416 155.187 432.984 154.578 432.01 154.578C431.036 154.578 430.615 155.22 430.615 156.295V162.61C430.615 163.718 431.058 164.327 432.01 164.327C432.962 164.327 433.416 163.685 433.416 162.61V161.059H434.678V162.544C434.678 164.35 433.825 165.546 431.977 165.546C430.128 165.546 429.331 164.283 429.331 162.477V156.295C429.331 154.489 430.184 153.292 431.999 153.292C433.814 153.292 434.678 154.5 434.678 156.295Z" fill="#66CBFF"/>
<path d="M437.224 162.954L436.77 165.358H435.542L437.822 153.393H439.748L442.039 165.336H440.7L440.246 162.932L437.224 162.954ZM437.401 161.846H440.058L438.707 154.955L437.401 161.846Z" fill="#66CBFF"/>
<path d="M444.254 165.358H443.058V153.393H444.741L447.508 162.023V153.393H448.681V165.358H447.298L444.254 155.697V165.358Z" fill="#66CBFF"/>
<path d="M455.312 156.295V157.403H454.05V156.295C454.05 155.187 453.63 154.578 452.656 154.578C451.682 154.578 451.261 155.22 451.261 156.295V162.61C451.261 163.718 451.704 164.328 452.656 164.328C453.608 164.328 454.05 163.685 454.05 162.61V161.059H455.312V162.544C455.312 164.35 454.46 165.546 452.623 165.546C450.785 165.546 449.944 164.35 449.944 162.544V156.362C449.944 154.556 450.796 153.359 452.623 153.359C454.449 153.359 455.312 154.5 455.312 156.295Z" fill="#66CBFF"/>
<path d="M460.77 158.7V159.896H457.848V164.139H461.434V165.358H456.519V153.393H461.434V154.6H457.848V158.677L460.77 158.7Z" fill="#66CBFF"/>
<path d="M462.664 165.358V153.393H463.992V164.117H467.401V165.336L462.664 165.358Z" fill="#66CBFF"/>
<path d="M468.398 165.358V153.393H469.726V164.117H473.135V165.336L468.398 165.358Z" fill="#66CBFF"/>
<path d="M478.394 158.7V159.896H475.472V164.139H479.058V165.358H474.143V153.393H479.058V154.6H475.472V158.677L478.394 158.7Z" fill="#66CBFF"/>
<path d="M483.077 153.393C484.937 153.393 485.789 154.5 485.789 156.362V162.378C485.789 164.206 484.937 165.336 483.077 165.336H480.254V153.393H483.077ZM483.077 164.117C484.029 164.117 484.483 163.53 484.483 162.433V156.295C484.483 155.187 484.029 154.6 483.055 154.6H481.627V164.117H483.077Z" fill="#66CBFF"/>
<path d="M229.669 24.319C229.669 25.3051 229.669 26.2136 229.669 27.1221C229.794 27.9148 229.76 28.7246 229.569 29.5041C229.281 30.1467 228.462 30.5456 227.842 31.0552C227.773 31.0941 227.71 31.1426 227.654 31.1992C227.58 31.2915 227.534 31.403 227.521 31.5205C227.521 32.0745 227.521 32.6285 227.521 33.2267C228.551 32.9165 229.514 32.6063 230.477 32.3515C230.801 32.2738 231.138 32.2738 231.462 32.3515C232.425 32.5952 233.388 32.8944 234.351 33.1713C234.584 31.5205 234.54 31.3876 233.333 30.4126C233.056 30.1799 232.757 29.9694 232.492 29.7257C232.372 29.6164 232.297 29.4663 232.281 29.3047C232.281 27.6539 232.281 25.9809 232.281 24.2636L241.99 27.2661C241.99 26.6124 241.99 26.0474 241.99 25.4934C242.012 25.3161 241.977 25.1363 241.889 24.9806C241.802 24.8249 241.666 24.7017 241.503 24.6292C238.602 22.9119 235.713 21.1614 232.802 19.4441C232.624 19.3638 232.476 19.2297 232.379 19.0608C232.281 18.8918 232.24 18.6965 232.259 18.5024C232.259 16.2865 232.259 14.1482 232.259 11.9767C232.289 11.7041 232.232 11.429 232.097 11.1904C231.962 10.9518 231.755 10.7618 231.506 10.6472C231.3 10.5498 231.07 10.5099 230.843 10.5317C230.616 10.5534 230.398 10.6361 230.214 10.7709C230.029 10.9058 229.884 11.0879 229.794 11.2981C229.704 11.5083 229.672 11.7389 229.702 11.9656C229.702 14.1815 229.702 16.3973 229.702 18.6132C229.721 18.7873 229.686 18.963 229.6 19.1159C229.515 19.2688 229.384 19.3913 229.226 19.4663C226.281 21.2057 223.348 22.9673 220.425 24.7179C220.248 24.8287 220.004 25.0059 219.993 25.161C219.993 25.8701 219.993 26.5792 219.993 27.3769L229.669 24.319Z" fill="white"/>
<path d="M229.669 24.319L219.949 27.3547C219.949 26.568 219.949 25.859 219.949 25.1388C219.949 24.9837 220.204 24.8064 220.381 24.6956C223.303 22.9451 226.237 21.1835 229.181 19.4441C229.34 19.3691 229.47 19.2466 229.556 19.0937C229.641 18.9408 229.677 18.7651 229.657 18.591C229.657 16.3751 229.657 14.1593 229.657 11.9434C229.628 11.7167 229.66 11.4861 229.75 11.2759C229.84 11.0657 229.985 10.8836 230.169 10.7487C230.354 10.6139 230.571 10.5312 230.799 10.5094C231.026 10.4877 231.255 10.5276 231.462 10.625C231.711 10.7396 231.918 10.9296 232.053 11.1682C232.188 11.4068 232.244 11.6819 232.215 11.9545C232.215 14.1703 232.215 16.3086 232.215 18.4802C232.195 18.6742 232.237 18.8696 232.334 19.0385C232.432 19.2075 232.58 19.3416 232.757 19.4219C235.669 21.1392 238.558 22.8897 241.458 24.607C241.622 24.6795 241.757 24.8027 241.845 24.9584C241.933 25.114 241.968 25.2939 241.945 25.4712C241.945 26.0252 241.945 26.5791 241.945 27.2439L232.281 24.3079C232.281 26.0473 232.281 27.6981 232.281 29.3489C232.315 29.4993 232.402 29.6328 232.525 29.7256C232.79 29.9694 233.089 30.1799 233.366 30.4125C234.573 31.3875 234.617 31.5205 234.384 33.1713C233.421 32.8943 232.458 32.5952 231.495 32.3514C231.171 32.2738 230.834 32.2738 230.51 32.3514C229.547 32.6062 228.584 32.9165 227.554 33.2267C227.554 32.6284 227.554 32.1188 227.554 31.5205C227.567 31.4029 227.613 31.2914 227.687 31.1992C227.743 31.1425 227.806 31.094 227.875 31.0551C228.473 30.5455 229.314 30.1466 229.602 29.504C229.793 28.7245 229.827 27.9148 229.702 27.122C229.68 26.2135 229.669 25.305 229.669 24.319Z" fill="white"/>
<path d="M109.502 113.662L112.823 115.656C112.801 114.176 112.875 112.696 113.044 111.225C113.266 110.56 117.018 110.781 117.018 110.781C116.12 106.626 114.22 102.754 111.483 99.5027C107.055 94.4062 98.8743 88.8777 90.2506 88.8777C81.6269 88.8777 72.35 92.4563 67.4902 100.212C65.5227 103.382 64.2317 106.924 63.6983 110.618C63.1648 114.311 63.4005 118.075 64.3906 121.672C65.9404 126.547 67.7116 139.82 67.7116 139.82C67.7116 139.82 71.9072 140.042 73.0142 138.934C74.1213 137.826 73.6785 128.962 75.8925 123.888C78.1066 118.814 82.5346 116.809 88.5015 115.922C94.4683 115.036 107.066 113.263 107.066 113.263L109.502 113.662Z" fill="#263238" stroke="#263238" stroke-linecap="round" stroke-linejoin="round"/>
<path d="M92.4316 367.222C92.4316 367.222 88.7341 387.165 90.5828 401.202C92.4316 415.24 94.6456 441.819 94.6456 444.777V449.951C94.6456 449.951 93.1622 449.951 93.1622 453.64C93.1622 457.33 92.4316 469.151 92.4316 471.002C92.4316 472.852 99.8043 473.949 101.288 473.949C102.771 473.949 109.768 477.649 114.572 479.123C119.376 480.596 126.749 481.339 127.48 477.273C128.21 473.206 123.428 467.301 120.838 465.085C118.247 462.869 112.358 455.114 112.358 455.114C112.358 455.114 111.982 449.209 111.251 447.735C111.186 447.557 111.077 447.399 110.933 447.275C110.79 447.152 110.617 447.067 110.432 447.029C110.246 446.992 110.054 447.002 109.874 447.06C109.694 447.117 109.531 447.22 109.402 447.359C109.402 447.359 116.786 398.244 116.786 393.447C116.786 388.65 118.258 375.343 118.258 370.18C118.258 365.017 92.4316 367.222 92.4316 367.222Z" fill="#FFBE9D" stroke="#263238" stroke-linecap="round" stroke-linejoin="round"/>
<path d="M118.258 370.18C118.258 365.006 92.4315 367.222 92.4315 367.222C92.4315 367.222 91.6788 371.255 91.0256 376.961C93.7651 377.417 96.5406 377.621 99.3172 377.57C106.152 377.542 112.793 375.299 118.247 371.177C118.258 370.823 118.258 370.479 118.258 370.18Z" fill="#263238" stroke="#263238" stroke-linecap="round" stroke-linejoin="round"/>
<path d="M127.48 477.273C128.222 473.217 123.428 467.301 120.838 465.085C118.247 462.869 112.358 455.114 112.358 455.114C112.358 455.114 111.982 449.209 111.251 447.735C110.897 447.026 110.454 446.915 110.144 446.993L109.446 447.358C107.447 447.529 105.471 447.9 103.546 448.466C101.697 449.209 101.332 452.533 101.332 452.533L94.6899 449.951C94.6899 449.951 93.2065 449.951 93.2065 453.64C93.2065 457.33 92.4758 469.151 92.4758 471.002C92.4758 472.852 99.8486 473.949 101.332 473.949C102.815 473.949 109.812 477.649 114.616 479.123C119.421 480.596 126.749 481.339 127.48 477.273Z" fill="#263238" stroke="#263238" stroke-linecap="round" stroke-linejoin="round"/>
<path d="M114.572 479.123C119.365 480.596 126.749 481.338 127.48 477.272C127.558 476.754 127.558 476.228 127.48 475.71C120.373 481.25 106.446 473.35 103.468 471.367C100.812 469.594 94.8668 467.356 92.5864 466.525C92.4757 468.675 92.3982 470.381 92.3982 470.957C92.3982 472.796 99.771 473.904 101.254 473.904C102.738 473.904 109.767 477.649 114.572 479.123Z" fill="white" stroke="#263238" stroke-linecap="round" stroke-linejoin="round"/>
<path d="M62.1656 370.911C60.0479 378.752 58.8115 386.805 58.4792 394.92C57.7375 409.323 64.3796 431.847 65.1213 436.279C65.863 440.711 63.2726 458.072 63.2726 458.072C60.9264 462.377 58.8343 466.817 57.0069 471.367C54.7928 477.272 56.6305 480.973 61.8003 481.704C66.9701 482.435 71.3981 481.704 74.3428 479.488C77.2875 477.272 79.1473 471.001 79.8779 469.893C80.6086 468.785 82.8337 467.301 82.8337 462.138C82.8337 456.975 81.3613 445.142 81.3613 442.195C81.3613 439.248 82.092 422.618 83.199 417.444C84.306 412.27 85.7894 396.028 85.7894 389.015C85.615 383.083 85.1198 377.166 84.306 371.288C84.306 371.288 67.3354 369.803 62.1656 370.911Z" fill="#FFBE9D" stroke="#263238" stroke-linecap="round" stroke-linejoin="round"/>
<path d="M84.937 376.462C84.6049 373.448 84.306 371.288 84.306 371.288C84.306 371.288 67.3354 369.803 62.1656 370.911C62.1656 370.911 61.6896 372.484 61.0586 375.276C64.3213 376.631 67.7501 377.544 71.2543 377.991C75.8714 378.615 80.5711 378.09 84.937 376.462Z" fill="#263238" stroke="#263238" stroke-linecap="round" stroke-linejoin="round"/>
<path d="M79.8779 469.893C80.6196 468.785 82.8337 467.301 82.8337 462.138C82.8337 459.446 82.4351 454.97 82.0477 450.859C79.8336 453.64 78.4056 452.898 78.4056 452.898C78.4056 452.898 76.9332 446.993 72.1288 446.627C68.1546 446.317 65.1988 449.308 64.3021 450.338C63.7929 454.582 63.2726 458.094 63.2726 458.094C60.9264 462.399 58.8343 466.839 57.0069 471.389C54.7928 477.294 56.6305 480.995 61.8003 481.726C66.9701 482.457 71.3981 481.726 74.3428 479.51C77.2875 477.294 79.1473 471.001 79.8779 469.893Z" fill="#263238" stroke="#263238" stroke-linecap="round" stroke-linejoin="round"/>
<path d="M82.8336 463.279C81.4388 464.797 79.7229 466.603 78.0845 468.043C74.3871 471.367 74.7634 477.649 67.0143 479.123C65.1156 479.436 63.1729 479.358 61.3055 478.893C59.438 478.428 57.6851 477.586 56.1544 476.419C56.409 479.366 58.3685 481.206 61.8445 481.704C67.0143 482.446 71.4424 481.704 74.3871 479.488C77.3317 477.272 79.1915 471.002 79.9222 469.894C80.6528 468.786 82.4905 467.523 82.8336 463.279Z" fill="white" stroke="#263238" stroke-linecap="round" stroke-linejoin="round"/>
<path d="M49.3462 233.44L36.0619 240.364C36.0619 240.364 28.036 294.93 28.036 296.038C28.036 297.146 32.7409 299.915 38.8295 299.915C44.9181 299.915 52.944 294.653 52.944 294.653C52.944 294.653 56.5418 240.364 56.5418 238.702C56.5418 237.04 53.4975 228.454 49.3462 233.44Z" fill="#263238" stroke="#263238" stroke-linecap="round" stroke-linejoin="round"/>
<path d="M50.3646 273.791C50.3646 273.791 45.9365 310.718 46.3018 318.108C46.6671 325.498 46.6671 340.266 46.6671 343.956C46.6671 347.645 45.5601 363.156 47.4088 365.372C49.2576 367.588 54.4163 372.396 65.8629 374.235C77.3095 376.074 79.5125 374.978 81.7265 373.87C83.9405 372.762 89.841 370.546 89.841 370.546C89.841 370.546 91.3244 373.504 104.609 374.235C117.893 374.966 116.409 373.504 119.365 372.396C122.321 371.288 126.373 369.438 128.221 367.588C130.07 365.737 125.266 328.445 125.266 324.379C125.266 320.312 126.373 296.68 126.749 291.141C127.125 285.601 124.159 281.546 124.159 278.588V267.143C124.159 267.143 100.181 275.63 86.1546 275.63C72.1286 275.63 49.9882 270.09 49.9882 270.09L50.3646 273.791Z" fill="#008BB7" stroke="#263238" stroke-linecap="round" stroke-linejoin="round"/>
<path d="M94.269 280.804C94.269 280.804 92.0552 291.141 93.5385 292.249C95.0217 293.357 97.2244 295.207 96.1175 298.531C95.4988 300.423 94.7593 302.273 93.9037 304.07" stroke="#263238" stroke-linecap="round" stroke-linejoin="round"/>
<path d="M75.45 302.597L86.8965 308.868" stroke="#263238" stroke-linecap="round" stroke-linejoin="round"/>
<path d="M96.1179 311.46L106.081 303.705" stroke="#263238" stroke-linecap="round" stroke-linejoin="round"/>
<path d="M121.945 280.438C121.945 280.438 111.982 284.87 106.823 287.817" stroke="#263238" stroke-linecap="round" stroke-linejoin="round"/>
<path d="M117.893 284.87C117.893 284.87 109.037 290.775 105.339 291.517" stroke="#263238" stroke-linecap="round" stroke-linejoin="round"/>
<path d="M62.5419 280.438C62.8552 283.73 61.9317 287.021 59.9515 289.667C57.534 292.612 54.5142 295.003 51.0953 296.681" stroke="#263238" stroke-linecap="round" stroke-linejoin="round"/>
<path d="M52.9437 278.222C52.9437 278.222 49.9883 298.531 49.9883 309.61C49.9883 320.689 49.623 331.026 49.623 331.026" stroke="#263238" stroke-linecap="round" stroke-linejoin="round"/>
<path d="M47.4089 329.918C47.4089 329.918 48.8813 332.511 58.1138 333.984C67.3464 335.458 72.8704 334.35 72.8704 336.566C72.5825 339.309 72.0903 342.028 71.3981 344.698C67.2069 345.314 62.9341 345.061 58.8445 343.956C54.9229 342.779 51.0994 341.298 47.4089 339.524" stroke="#263238" stroke-linecap="round" stroke-linejoin="round"/>
<path d="M71.398 344.698C71.398 344.698 70.291 362.048 70.6563 364.264C71.0216 366.48 71.0216 368.33 66.9699 367.964C62.9182 367.599 49.9882 362.425 48.5159 360.209" stroke="#263238" stroke-linecap="round" stroke-linejoin="round"/>
<path d="M93.5381 312.934L89.8411 370.546" stroke="#263238" stroke-linecap="round" stroke-linejoin="round"/>
<path d="M120.838 340.997C120.838 340.997 120.472 360.574 120.472 362.425C120.472 364.275 120.107 366.114 123.052 366.114C125.996 366.114 131.177 365.006 131.543 362.79C131.908 360.574 128.963 349.495 128.222 347.279C127.559 344.606 127.067 341.894 126.749 339.158L120.838 340.997Z" fill="#008BB7" stroke="#263238" stroke-linecap="round" stroke-linejoin="round"/>
<path d="M125.642 332.134L120.838 335.092V340.997C120.838 340.997 128.221 340.632 128.221 339.158C128.221 337.685 125.642 332.134 125.642 332.134Z" fill="#008BB7" stroke="#263238" stroke-linecap="round" stroke-linejoin="round"/>
<path d="M72.0401 137.604L72.5937 152.284C71.1931 152.96 69.7012 153.426 68.1656 153.669C65.9515 153.946 56.2651 153.115 47.9624 155.054C39.6598 156.993 35.7852 162.533 33.5711 165.025C31.3571 167.518 27.7593 171.95 24.715 174.443C21.6707 176.936 11.165 184.735 11.165 184.735L16.9769 202.141C17.1513 202.626 17.446 203.058 17.8333 203.397C18.2207 203.736 18.6879 203.971 19.1909 204.08C20.8515 204.357 18.3607 204.634 23.0655 202.972C27.7704 201.31 37.7225 194.109 37.7225 194.109L39.1063 197.986L49.0694 195.77C49.0694 195.77 49.0694 235.656 49.3462 246.181C49.623 256.706 49.0694 269.448 48.7927 271.386C48.5159 273.325 48.2392 274.987 48.2392 274.987C48.2392 274.987 72.3169 283.02 81.4498 281.912C90.5827 280.804 107.465 279.419 112.17 276.372C116.875 273.325 127.945 269.725 127.945 269.725C127.945 269.725 123.24 222.915 123.517 217.652C123.793 212.389 124.347 201.033 124.347 201.033L128.498 173.058C128.498 173.058 149.532 162.533 150.362 162.533C151.492 162.357 152.603 162.079 153.683 161.702C153.683 161.702 148.978 150.899 145.934 143.144C142.889 135.388 140.952 133.727 140.952 133.727L130.159 137.881C126.561 139.266 117.705 142.867 115.491 146.191C113.943 148.393 112.078 150.353 109.956 152.007H101.93L102.206 141.205L72.0401 137.604Z" fill="#66CBFF" stroke="#263238" stroke-linecap="round" stroke-linejoin="round"/>
<path d="M102.483 151.176C102.483 151.176 80.0661 184.968 67.0586 203.803C59.649 214.84 52.9027 226.309 46.8555 238.148L49.623 241.195C49.623 241.195 73.7007 209.896 85.0477 188.846C91.997 175.99 99.762 163.593 108.295 151.73L102.483 151.176Z" fill="#263238" stroke="#263238" stroke-linecap="round" stroke-linejoin="round"/>
<path d="M128.498 173.058L131.542 154.777" stroke="#263238" stroke-linecap="round" stroke-linejoin="round"/>
<path d="M124.735 183.096L124.347 188.292" stroke="#263238" stroke-linecap="round" stroke-linejoin="round"/>
<path d="M126.561 158.932L125.122 178.055" stroke="#263238" stroke-linecap="round" stroke-linejoin="round"/>
<path d="M100.203 184.935C99.616 186.331 98.9962 187.727 98.332 189.123L100.203 184.935Z" fill="white"/>
<path d="M100.203 184.935C99.616 186.331 98.9962 187.727 98.332 189.123" stroke="#263238" stroke-linecap="round" stroke-linejoin="round"/>
<path d="M108.571 156.162C107.154 164.407 104.968 172.501 102.041 180.337L108.571 156.162Z" fill="white"/>
<path d="M108.571 156.162C107.154 164.407 104.968 172.501 102.041 180.337" stroke="#263238" stroke-linecap="round" stroke-linejoin="round"/>
<path d="M94.3022 215.547C93.4721 217.164 92.6087 218.793 91.6899 220.422" stroke="#263238" stroke-linecap="round" stroke-linejoin="round"/>
<path d="M108.295 175.274C105.647 188.079 101.477 200.521 95.8745 212.334" stroke="#263238" stroke-linecap="round" stroke-linejoin="round"/>
<path d="M84.7709 207.404C84.7709 207.404 76.1915 221.53 75.0845 224.577" stroke="#263238" stroke-linecap="round" stroke-linejoin="round"/>
<path d="M49.0696 195.77L59.0328 191.616" stroke="#263238" stroke-linecap="round" stroke-linejoin="round"/>
<path d="M103.38 152.007H101.93L102.206 141.205L72.04 137.604L72.5935 152.284C72.5935 152.284 78.4054 163.364 88.9221 163.641C98.0993 163.884 102.428 154.423 103.38 152.007Z" fill="#FFBE9D" stroke="#263238" stroke-linecap="round" stroke-linejoin="round"/>
<path d="M108.838 109.242C108.838 109.242 107.952 135.355 108.173 140.264C108.395 145.172 103.745 152.451 98.8854 155.775C96.7965 157.165 94.3524 157.925 91.844 157.964C89.3357 158.004 86.869 157.32 84.7377 155.996C81.1952 153.78 74.7745 148.473 73.6674 145.161C72.5604 141.848 71.6748 128.542 71.6748 126.791C71.6748 125.041 73.2246 116.609 78.3169 114.604C81.0783 113.612 83.6284 112.109 85.8336 110.172L84.2838 113.718C84.2838 113.718 89.5864 113.274 92.6861 111.502C94.7357 110.296 96.6603 108.89 98.4315 107.303L98.6529 110.394C98.6529 110.394 102.417 111.502 103.745 110.172C105.074 108.843 106.181 107.956 106.181 107.956L108.838 109.242Z" fill="#FFBE9D" stroke="#263238" stroke-linecap="round" stroke-linejoin="round"/>
<path d="M88.8776 131.145C88.8776 132.253 88.2135 133.228 87.3944 133.228C86.5753 133.228 85.9111 132.297 85.9111 131.145C85.9111 129.993 86.5753 129.073 87.3944 129.073C88.2135 129.073 88.8776 130.004 88.8776 131.145Z" fill="#263238"/>
<path d="M104.332 130.126C104.332 131.234 103.668 132.209 102.848 132.209C102.029 132.209 101.365 131.278 101.365 130.126C101.365 128.974 102.029 128.054 102.848 128.054C103.668 128.054 104.332 128.941 104.332 130.126Z" fill="#263238"/>
<path d="M93.3613 139.998C94.0255 140.662 97.9997 141.327 98.8964 139.333C99.7931 137.339 98.2322 128.486 98.2322 128.486L100.003 124.287C100.003 124.287 101.775 121.185 105.76 122.736" stroke="#263238" stroke-linecap="round" stroke-linejoin="round"/>
<path d="M98.8856 144.872C98.8856 144.872 93.583 145.094 90.7047 146.412C87.8265 147.731 90.4833 148.185 90.4833 148.185C90.4833 148.185 97.1255 148.185 97.7897 147.299C98.4539 146.412 99.3284 146.412 98.8856 144.872Z" stroke="#263238" stroke-linecap="round" stroke-linejoin="round"/>
<path d="M90.7036 125.395C90.7036 125.395 85.1691 124.065 82.3022 126.06" stroke="#263238" stroke-linecap="round" stroke-linejoin="round"/>
<path d="M24.715 174.443C21.6707 176.936 11.165 184.735 11.165 184.735L16.9769 202.141C17.1513 202.626 17.446 203.058 17.8333 203.397C18.2207 203.736 18.6879 203.971 19.1909 204.08C20.8515 204.357 18.3607 204.634 23.0655 202.972C27.7704 201.31 37.7225 194.108 37.7225 194.108L26.3091 173.002C25.7666 173.523 25.2685 174.022 24.715 174.443Z" stroke="#263238" stroke-linecap="round" stroke-linejoin="round"/>
<path d="M157.004 100.766C142.89 98.5498 116.321 99.6577 116.321 99.6577C116.321 99.6577 109.402 91.0713 107.188 88.8555C104.974 86.6396 103.867 84.9777 99.7159 85.5317C95.5645 86.0856 90.8597 86.6396 88.9224 86.9166C86.9851 87.1936 86.9851 92.1792 86.9851 92.1792C86.9851 92.1792 86.9851 94.9491 88.9224 95.78C90.8597 96.6109 91.6899 95.78 91.6899 95.78L93.0737 94.6721L98.0553 95.226L99.1623 97.1538C101.609 98.9819 107.509 103.336 109.679 104.643C112.447 106.305 115.491 105.751 119.089 106.859C125.932 109.23 132.592 112.1 139.015 115.446C143.325 117.934 147.401 120.808 151.192 124.032L141.008 133.771C141.318 134.081 143.166 136.086 145.934 143.144C147.229 146.468 148.834 150.312 150.24 153.658C155.122 149.138 165.739 139.255 169.735 133.449C174.717 126.248 184.957 114.061 184.68 112.399C184.403 110.737 171.119 102.982 157.004 100.766Z" fill="#FFBE9D" stroke="#263238" stroke-linecap="round" stroke-linejoin="round"/>
<path d="M98.0553 88.3015C98.0553 88.3015 91.6899 90.5174 90.3062 91.0713C88.9224 91.6253 86.7083 90.5174 86.9851 92.1793" stroke="#263238" stroke-linecap="round" stroke-linejoin="round"/>
<path d="M151.192 124.032C151.192 124.032 156.451 124.863 162.816 120.708" stroke="#263238" stroke-linecap="round" stroke-linejoin="round"/>
<path d="M122.686 99.9347L121.856 107.69L126.837 109.906L128.221 99.6577L122.686 99.9347Z" fill="#263238" stroke="#263238" stroke-linecap="round" stroke-linejoin="round"/>
<path d="M127.982 96.562L122.778 96.2389C122.284 96.2082 121.858 96.5844 121.828 97.079L121.765 98.0853C121.735 98.58 122.111 99.0059 122.605 99.0366L127.808 99.3597C128.302 99.3904 128.728 99.0142 128.759 98.5195L128.821 97.5132C128.852 97.0186 128.476 96.5927 127.982 96.562Z" fill="#263238" stroke="#263238" stroke-linecap="round" stroke-linejoin="round"/>
<path d="M60.4165 132.065L74.531 152.008L79.7894 140.097L66.5051 121.54L60.4165 132.065Z" fill="#263238" stroke="#263238" stroke-linecap="round" stroke-linejoin="round"/>
<path d="M69.7043 143.099C69.7043 143.099 69.9257 153.946 67.7117 158.367C65.4977 162.787 26.8626 200.357 21.7814 203.459C16.7002 206.562 9.60416 205.886 8.0654 203.016C6.52664 200.147 6.07276 189.721 8.2868 186.198C10.5008 182.675 55.1581 157.259 57.3721 155.929C59.5862 154.6 58.2577 150.179 58.0363 145.315C57.8149 140.452 57.8149 136.241 58.922 134.469C60.029 132.696 66.4386 127.389 68.2099 126.503C69.9811 125.616 72.8483 123.622 73.5125 125.616C74.1767 127.611 73.0697 128.264 73.0697 128.264C73.0697 128.264 74.3981 128.264 73.9553 130.702C73.5125 133.139 68.4202 137.349 68.4202 137.349C70.7004 136.379 72.9186 135.269 75.0623 134.026C76.1694 133.139 76.6122 134.912 75.2837 136.906C73.9553 138.9 69.9811 140.884 69.9811 140.884L69.7043 143.099Z" fill="#FFBE9D" stroke="#263238" stroke-linecap="round" stroke-linejoin="round"/>
<path d="M73.0144 128.264C73.0144 128.264 63.0512 136.707 62.7413 137.46C62.3099 138.224 61.8057 138.943 61.2357 139.61" fill="white"/>
<path d="M73.0144 128.264C73.0144 128.264 63.0512 136.707 62.7413 137.46C62.3099 138.224 61.8057 138.943 61.2357 139.61" stroke="#263238" stroke-linecap="round" stroke-linejoin="round"/>
<path d="M68.6416 126.492C68.6416 126.492 61.6563 133.804 60.6932 135.355C60.1908 136.103 59.7608 136.897 59.4091 137.726" fill="white"/>
<path d="M68.6416 126.492C68.6416 126.492 61.6563 133.804 60.6932 135.355C60.1908 136.103 59.7608 136.897 59.4091 137.726" stroke="#263238" stroke-linecap="round" stroke-linejoin="round"/>
<path d="M68.3757 137.339C68.3757 137.339 64.7782 139.61 64.6675 140.363C64.6066 140.819 64.4601 141.259 64.2358 141.66" fill="white"/>
<path d="M68.3757 137.339C68.3757 137.339 64.7782 139.61 64.6675 140.363C64.6066 140.819 64.4601 141.259 64.2358 141.66" stroke="#263238" stroke-linecap="round" stroke-linejoin="round"/>
<path d="M209.588 228.177V331.214" stroke="#263238" stroke-width="4" stroke-linecap="round" stroke-linejoin="round"/>
<path d="M246.12 228.177V225.685C246.12 223.848 245.391 222.087 244.093 220.788C242.795 219.49 241.036 218.76 239.201 218.76H216.507C214.672 218.76 212.912 219.49 211.614 220.788C210.317 222.087 209.588 223.848 209.588 225.685V228.177" stroke="#263238" stroke-width="6" stroke-linecap="round" stroke-linejoin="round"/>
<path d="M246.119 329.553V228.177" stroke="#263238" stroke-width="4" stroke-linecap="round" stroke-linejoin="round"/>
<path d="M216.23 473.583C219.287 473.583 221.765 471.103 221.765 468.043C221.765 464.984 219.287 462.504 216.23 462.504C213.173 462.504 210.695 464.984 210.695 468.043C210.695 471.103 213.173 473.583 216.23 473.583Z" fill="#263238" stroke="#263238" stroke-linecap="round" stroke-linejoin="round"/>
<path d="M215.609 467.944C215.12 467.944 214.635 467.847 214.184 467.659C213.732 467.471 213.321 467.196 212.976 466.849C212.63 466.503 212.356 466.091 212.17 465.638C211.984 465.185 211.889 464.7 211.89 464.21V457.341H219.34V464.21C219.34 465.2 218.947 466.15 218.247 466.85C217.547 467.55 216.599 467.944 215.609 467.944Z" fill="#636363" stroke="#263238" stroke-linecap="round" stroke-linejoin="round"/>
<path d="M173.676 473.583C176.733 473.583 179.211 471.103 179.211 468.043C179.211 464.984 176.733 462.504 173.676 462.504C170.619 462.504 168.141 464.984 168.141 468.043C168.141 471.103 170.619 473.583 173.676 473.583Z" fill="#263238" stroke="#263238" stroke-linecap="round" stroke-linejoin="round"/>
<path d="M173.056 467.944C172.066 467.944 171.118 467.55 170.418 466.85C169.718 466.15 169.325 465.2 169.325 464.21V457.341H176.786V464.21C176.786 464.7 176.689 465.186 176.502 465.639C176.315 466.092 176.04 466.503 175.693 466.85C175.347 467.197 174.936 467.472 174.483 467.659C174.031 467.847 173.546 467.944 173.056 467.944Z" fill="#636363" stroke="#263238" stroke-linecap="round" stroke-linejoin="round"/>
<path d="M242.799 473.583C245.855 473.583 248.334 471.103 248.334 468.043C248.334 464.984 245.855 462.504 242.799 462.504C239.742 462.504 237.263 464.984 237.263 468.043C237.263 471.103 239.742 473.583 242.799 473.583Z" fill="#263238" stroke="#263238" stroke-linecap="round" stroke-linejoin="round"/>
<path d="M242.178 467.944C241.689 467.944 241.204 467.847 240.752 467.659C240.3 467.471 239.89 467.196 239.544 466.849C239.199 466.503 238.925 466.091 238.739 465.638C238.552 465.185 238.457 464.7 238.459 464.21V457.341H245.908V464.21C245.908 465.2 245.515 466.15 244.816 466.85C244.116 467.55 243.167 467.944 242.178 467.944Z" fill="#636363" stroke="#263238" stroke-linecap="round" stroke-linejoin="round"/>
<path d="M199.691 473.583C202.748 473.583 205.226 471.103 205.226 468.043C205.226 464.984 202.748 462.504 199.691 462.504C196.634 462.504 194.156 464.984 194.156 468.043C194.156 471.103 196.634 473.583 199.691 473.583Z" fill="#263238" stroke="#263238" stroke-linecap="round" stroke-linejoin="round"/>
<path d="M199.071 467.944C198.081 467.944 197.132 467.55 196.433 466.85C195.733 466.15 195.34 465.2 195.34 464.21V457.341H202.801V464.21C202.801 465.2 202.408 466.15 201.708 466.85C201.009 467.55 200.06 467.944 199.071 467.944Z" fill="#636363" stroke="#263238" stroke-linecap="round" stroke-linejoin="round"/>
<path d="M219.075 460.842H166.757C162.24 460.842 158.598 456.698 158.664 451.646L160.159 334.062C160.214 329.109 163.823 325.121 168.251 325.121H217.58C222.008 325.121 225.617 329.109 225.684 334.062L227.167 451.646C227.233 456.698 223.591 460.842 219.075 460.842Z" fill="#66CBFF" stroke="#263238" stroke-linecap="round" stroke-linejoin="round"/>
<path d="M248.256 460.842H212.831C209.776 460.842 207.296 456.698 207.352 451.646L208.359 334.062C208.359 329.109 210.839 325.121 213.894 325.121H247.282C250.282 325.121 252.717 329.109 252.762 334.062L253.769 451.646C253.78 456.698 251.312 460.842 248.256 460.842Z" fill="#66CBFF" stroke="#263238" stroke-linecap="round" stroke-linejoin="round"/>
<path d="M235.049 325.121H230.068V460.842H235.049V325.121Z" fill="#263238" stroke="#263238" stroke-linecap="round" stroke-linejoin="round"/>
<path d="M235.049 325.121C227.3 326.229 203.499 332.876 186.34 332.876H184.99C168.572 332.732 157.524 329.863 156.451 320.689C155.919 316.136 158.233 311.449 162.583 307.505C167.222 303.306 174.185 299.96 182.51 298.531C198.562 295.761 220.149 294.099 220.149 294.099C220.149 294.099 241.736 291.883 248.378 302.409C255.02 312.934 242.798 324.013 235.049 325.121Z" fill="white" stroke="#263238" stroke-linecap="round" stroke-linejoin="round"/>
<path d="M219.551 299.638C215.123 302.408 196.857 302.962 183.573 310.718C170.288 318.473 170.288 330.106 183.019 332.322C183.695 332.423 184.357 332.605 184.99 332.865C168.572 332.721 157.524 329.852 156.451 320.678C155.919 316.124 158.233 311.438 162.583 307.494C167.994 304.219 174.026 302.106 180.296 301.289C201.883 298.519 214.06 299.073 214.06 299.073C214.06 299.073 223.979 296.869 219.551 299.638Z" fill="white" stroke="#263238" stroke-linecap="round" stroke-linejoin="round"/>
<path d="M198.44 323.437C214.326 321.442 238.193 319.26 247.78 310.142" stroke="#263238" stroke-linecap="round" stroke-linejoin="round"/>
<path d="M176.93 324.013C176.93 324.013 178.381 325.95 191.233 324.39" stroke="#263238" stroke-linecap="round" stroke-linejoin="round"/>
<path d="M236.709 316.257C234.854 318.12 233.185 320.161 231.728 322.351" stroke="#263238" stroke-linecap="round" stroke-linejoin="round"/>
<path d="M216.783 320.135C216.783 320.135 217.337 323.459 215.676 325.121" stroke="#263238" stroke-linecap="round" stroke-linejoin="round"/>
<path d="M156.451 320.689C156.451 320.689 163.646 326.229 170.288 325.121" stroke="#263238" stroke-linecap="round" stroke-linejoin="round"/>
</svg>
