<svg width="562" height="419" viewBox="0 0 562 419" fill="none" xmlns="http://www.w3.org/2000/svg">
<path d="M561.191 367.468H0V367.748H561.191V367.468Z" fill="#EBEBEB"/>
<path d="M504.96 385.527H467.787V385.808H504.96V385.527Z" fill="#EBEBEB"/>
<path d="M371.755 388.58H362.002V388.861H371.755V388.58Z" fill="#EBEBEB"/>
<path d="M466.664 375.111H445.126V375.392H466.664V375.111Z" fill="#EBEBEB"/>
<path d="M107.356 376.997H58.8802V377.278H107.356V376.997Z" fill="#EBEBEB"/>
<path d="M124.461 376.997H117.356V377.278H124.461V376.997Z" fill="#EBEBEB"/>
<path d="M252.704 381.734H147.56V382.014H252.704V381.734Z" fill="#EBEBEB"/>
<path d="M266.005 317.41H49.2839C47.5862 317.407 45.9589 316.73 44.7595 315.529C43.56 314.327 42.8863 312.699 42.8864 311.001V6.35268C42.9011 4.66465 43.5813 3.05061 44.7792 1.86116C45.977 0.671699 47.5958 0.00289169 49.2839 0H266.005C267.704 0 269.335 0.675212 270.536 1.8771C271.738 3.07898 272.414 4.70908 272.414 6.4088V311.001C272.414 312.701 271.738 314.331 270.536 315.533C269.335 316.735 267.704 317.41 266.005 317.41ZM49.2839 0.224477C47.6606 0.227451 46.1047 0.874409 44.9579 2.02335C43.8111 3.17229 43.1669 4.72933 43.1669 6.35268V311.001C43.1669 312.624 43.8111 314.181 44.9579 315.33C46.1047 316.479 47.6606 317.126 49.2839 317.129H266.005C267.629 317.126 269.186 316.48 270.335 315.331C271.483 314.182 272.13 312.625 272.133 311.001V6.35268C272.13 4.72829 271.483 3.17128 270.335 2.02266C269.186 0.874044 267.629 0.227444 266.005 0.224477H49.2839Z" fill="#EBEBEB"/>
<path d="M508.787 317.41H292.055C290.356 317.407 288.728 316.731 287.527 315.529C286.326 314.328 285.649 312.7 285.646 311.001V6.35268C285.664 4.66363 286.347 3.0496 287.547 1.86045C288.746 0.671307 290.366 0.00286016 292.055 0H508.787C510.473 0.00584143 512.089 0.675954 513.285 1.86509C514.48 3.05423 515.159 4.66659 515.174 6.35268V311.001C515.174 312.697 514.502 314.323 513.305 315.525C512.107 316.726 510.483 317.404 508.787 317.41ZM292.055 0.224477C290.431 0.227444 288.874 0.874044 287.725 2.02266C286.577 3.17128 285.93 4.72829 285.927 6.35268V311.001C285.93 312.625 286.577 314.182 287.725 315.331C288.874 316.48 290.431 317.126 292.055 317.129H508.787C510.412 317.126 511.969 316.48 513.117 315.331C514.266 314.182 514.913 312.625 514.916 311.001V6.35268C514.913 4.72829 514.266 3.17128 513.117 2.02266C511.969 0.874044 510.412 0.227444 508.787 0.224477H292.055Z" fill="#EBEBEB"/>
<path d="M376.447 151.342C402.203 151.342 423.082 130.463 423.082 104.707C423.082 78.9512 402.203 58.072 376.447 58.072C350.691 58.072 329.812 78.9512 329.812 104.707C329.812 130.463 350.691 151.342 376.447 151.342Z" fill="#F5F5F5"/>
<path d="M459.672 95.5148C459.672 93.4995 458.871 91.5668 457.446 90.1418C456.021 88.7168 454.088 87.9162 452.073 87.9162C451.335 87.914 450.601 88.0237 449.896 88.2417C450.003 87.4681 450.059 86.6882 450.064 85.9072C450.068 83.5397 449.549 81.2006 448.543 79.0573C447.538 76.914 446.071 75.0195 444.248 73.5094C442.424 71.9993 440.29 70.9109 437.997 70.3222C435.704 69.7335 433.309 69.659 430.984 70.104C429.397 67.4995 427.007 65.4811 424.174 64.3532C421.341 63.2253 418.217 63.0489 415.275 63.8507C412.333 64.6525 409.731 66.3889 407.861 68.7983C405.992 71.2077 404.956 74.1595 404.911 77.2087H404.675C401.304 77.3079 398.105 78.7166 395.756 81.1359C393.407 83.5551 392.093 86.7945 392.093 90.1666C392.093 93.5387 393.407 96.7781 395.756 99.1973C398.105 101.617 401.304 103.025 404.675 103.125H452.32C454.294 103.06 456.166 102.23 457.538 100.809C458.91 99.3889 459.676 97.4899 459.672 95.5148Z" fill="#EBEBEB"/>
<path d="M339.644 137.313C339.644 135.299 338.845 133.368 337.423 131.944C336 130.519 334.07 129.717 332.057 129.714C331.296 129.707 330.539 129.817 329.812 130.039C330.157 127.753 330.003 125.419 329.361 123.197C328.719 120.975 327.603 118.919 326.091 117.169C324.579 115.42 322.706 114.018 320.601 113.06C318.496 112.102 316.209 111.612 313.897 111.621C312.903 111.623 311.911 111.717 310.934 111.902C309.341 109.323 306.957 107.327 304.138 106.214C301.319 105.101 298.215 104.929 295.29 105.724C292.365 106.52 289.775 108.239 287.908 110.627C286.04 113.015 284.995 115.942 284.928 118.973H284.692C281.322 119.072 278.122 120.481 275.773 122.9C273.424 125.319 272.11 128.559 272.11 131.931C272.11 135.303 273.424 138.542 275.773 140.961C278.122 143.381 281.322 144.789 284.692 144.889H332.225C334.206 144.845 336.091 144.027 337.478 142.612C338.864 141.196 339.642 139.294 339.644 137.313Z" fill="#EBEBEB"/>
<path d="M130.196 151.69C130.196 149.677 129.397 147.746 127.975 146.321C126.552 144.896 124.622 144.094 122.609 144.091C121.85 144.087 121.093 144.193 120.364 144.406C120.481 143.637 120.541 142.86 120.544 142.082C120.538 139.718 120.012 137.383 119.003 135.245C117.995 133.106 116.528 131.215 114.708 129.706C112.887 128.197 110.757 127.107 108.468 126.513C106.179 125.919 103.788 125.835 101.463 126.268C99.8794 123.66 97.4895 121.638 94.6549 120.509C91.8204 119.379 88.6951 119.203 85.7514 120.006C82.8078 120.81 80.2058 122.55 78.3386 124.964C76.4714 127.377 75.4405 130.333 75.4017 133.384H75.166C71.7953 133.483 68.596 134.892 66.2469 137.311C63.8978 139.73 62.5839 142.97 62.5839 146.342C62.5839 149.714 63.8978 152.953 66.2469 155.373C68.596 157.792 71.7953 159.2 75.166 159.3H122.744C124.737 159.267 126.638 158.45 128.033 157.026C129.428 155.601 130.206 153.684 130.196 151.69Z" fill="#EBEBEB"/>
<path d="M455.283 187.932C455.283 186.714 454.8 185.547 453.939 184.686C453.078 183.825 451.91 183.341 450.693 183.341C450.244 183.341 449.798 183.405 449.368 183.532C449.57 182.151 449.471 180.743 449.08 179.403C448.689 178.064 448.015 176.824 447.103 175.768C446.19 174.712 445.061 173.864 443.793 173.283C442.524 172.701 441.145 172.4 439.749 172.398C439.151 172.397 438.553 172.453 437.965 172.566C436.999 171.01 435.556 169.808 433.851 169.139C432.146 168.469 430.271 168.369 428.504 168.852C426.737 169.335 425.174 170.376 424.047 171.821C422.921 173.265 422.291 175.034 422.252 176.865H422.016C419.932 176.865 417.934 177.693 416.46 179.166C414.987 180.64 414.159 182.638 414.159 184.722C414.159 186.806 414.987 188.804 416.46 190.277C417.934 191.751 419.932 192.579 422.016 192.579H450.771C451.373 192.57 451.966 192.443 452.519 192.204C453.071 191.966 453.571 191.621 453.99 191.19C454.409 190.758 454.739 190.248 454.961 189.689C455.183 189.13 455.292 188.533 455.283 187.932Z" fill="#EBEBEB"/>
<path d="M177.819 40.3049C177.825 39.5883 177.661 38.8804 177.342 38.2388C177.022 37.5972 176.556 37.04 175.981 36.6125C175.406 36.1849 174.738 35.8991 174.031 35.7781C173.325 35.6572 172.6 35.7045 171.915 35.9164C172.116 34.5354 172.018 33.1273 171.627 31.7876C171.236 30.4479 170.562 29.2079 169.65 28.1518C168.737 27.0958 167.608 26.2483 166.34 25.6669C165.071 25.0856 163.692 24.7839 162.296 24.7824C161.694 24.7812 161.092 24.8375 160.501 24.9507C159.535 23.3945 158.092 22.1922 156.387 21.5228C154.682 20.8534 152.806 20.7529 151.04 21.2362C149.273 21.7195 147.71 22.7608 146.583 24.2048C145.456 25.6488 144.827 27.4183 144.787 29.2494H144.653C142.569 29.2494 140.57 30.0772 139.097 31.5506C137.624 33.024 136.796 35.0224 136.796 37.1061C136.796 39.1898 137.624 41.1882 139.097 42.6616C140.57 44.135 142.569 44.9628 144.653 44.9628H173.408C174.606 44.916 175.738 44.4026 176.562 43.5322C177.386 42.6618 177.837 41.5035 177.819 40.3049Z" fill="#EBEBEB"/>
<path d="M100.857 211.749L131.251 349.813L136.774 347.22L104.853 210.974L100.857 211.749Z" fill="#EBEBEB"/>
<path d="M449.829 349.151C449.829 349.151 430.995 219.426 473.331 85.3009L466.698 80.1829C466.698 80.1829 417.134 181.646 424.35 352.832L449.829 349.151Z" fill="#E6E6E6"/>
<path d="M484.869 50.0358C500.381 39.8671 523.333 56.0406 526.487 81.3166C524.207 80.0021 521.824 78.876 519.36 77.9495C518.159 71.5856 517.003 65.9625 517.003 65.9625L517.834 77.3771C516.464 76.8832 514.972 76.4006 513.344 75.9629L512.222 69.8235L511.717 75.5588C509.52 75.0459 507.293 74.671 505.05 74.4364L502.154 56.4783L500.695 74.0773C498.397 74.0135 496.098 74.1148 493.815 74.3803L492.041 62.1913V74.6272C490.076 74.9448 488.134 75.391 486.227 75.9629L484.106 57.7803C484.106 57.7803 484.162 68.0052 484.05 76.6812C478.561 78.6702 473.486 81.6531 469.077 85.4807L468.909 83.2359C468.909 83.2359 470.694 59.3067 484.869 50.0358Z" fill="#E0E0E0"/>
<path d="M463.42 41.9098C451.074 28.0484 424.721 37.656 415.079 61.226C417.621 60.5437 420.215 60.0744 422.835 59.823C425.652 53.9979 428.245 48.8686 428.245 48.8686L424.463 59.6659C425.91 59.5537 427.471 59.4863 429.143 59.4863L431.781 53.8744L430.77 59.5424C433.026 59.6038 435.275 59.8062 437.505 60.1485L444.991 43.6046L441.826 61.0015C444.063 61.5331 446.258 62.2309 448.392 63.0892L453.297 51.7868L450.075 63.7514C451.895 64.5644 453.654 65.5059 455.339 66.5686L462.152 49.5645C462.152 49.5645 459.414 59.419 457.259 67.8144C462.036 71.1747 466.152 75.3867 469.403 80.2392L470.155 78.1179C470.155 78.1179 474.656 54.5703 463.42 41.9098Z" fill="#E0E0E0"/>
<path d="M451.557 74.7844C463.903 62.7412 473.174 73.2243 473.174 73.2243C468.539 74.4252 464.397 77.3995 460.828 81.1819L459.155 79.0045L459.425 82.7196C458.572 83.7073 457.741 84.7399 456.944 85.8062L454.116 79.3749L455.328 88.0846C454.206 89.7457 453.083 91.4517 452.152 93.1578L450.906 86.7826L451.007 95.2342C449.974 97.1422 449.054 99.0166 448.235 100.779L446.888 89.0723L446.708 104.213C444.733 108.882 443.7 112.16 443.7 112.16C443.7 112.16 439.211 86.8387 451.557 74.7844Z" fill="#E0E0E0"/>
<path d="M484.869 103.259L482.322 104.73C481.951 102.765 481.513 100.711 481.031 98.6238L482.759 95.4475L480.582 96.7943C480.413 96.0985 480.223 95.4138 480.043 94.7179L482.288 88.4999L478.921 90.9804C477.125 85.3685 474.835 80.4412 471.973 78.0842C471.973 78.0842 500.28 87.1306 484.319 117.648C484.319 117.648 483.803 112.822 482.669 106.48L484.869 103.259Z" fill="#E0E0E0"/>
<path d="M457.034 78.2862L452.545 69.7561L454.408 78.6454C453.959 78.7127 453.499 78.8025 453.039 78.8923L447.169 71.5856L448.616 79.9922C446.611 80.5996 444.643 81.3267 442.724 82.1696C440.632 83.1072 438.59 84.1524 436.607 85.3011L433.745 77.8372L435.08 86.1878C433.139 87.3101 431.242 88.5784 429.469 89.858L428.054 83.2808L428.189 90.7671C425.944 92.3833 423.857 94.022 421.926 95.627L422.106 83.7073L420.366 96.9402C418.391 98.6238 416.606 100.24 415.091 101.677L414.878 93.4047L412.779 103.91C410.601 106.076 409.355 107.457 409.355 107.457C410.478 78.5107 421.702 67.0511 440.266 63.9085C458.83 60.7658 472.209 80.082 472.209 80.082C472.209 80.082 466.44 77.3434 457.034 78.2862Z" fill="#E0E0E0"/>
<path d="M511.178 113.664L509.483 122.34C508.664 120.196 507.553 117.446 506.116 114.382L507.642 101.755L504.859 111.711C502.683 107.184 500.161 102.831 497.316 98.691L499.965 89.9364L495.678 96.435C494.814 95.3126 493.927 94.1903 493.007 93.1577L494.51 87.6468L492.187 92.2598C491.559 91.5639 490.908 90.9017 490.245 90.2619L492.075 82.9103L489.168 89.2742C487.359 87.6196 485.367 86.1773 483.231 84.9755L486.182 75.9965L481.558 84.1449C478.65 82.7811 475.464 82.1161 472.254 82.2032C472.254 82.2032 477.866 73.2242 488.18 70.1376C498.495 67.0511 520.729 85.7275 511.077 126.93C511.077 126.93 510.785 125.999 510.201 124.394L511.178 113.664Z" fill="#E0E0E0"/>
<path d="M494.162 33.6043L495.925 38.8346C495.274 38.8714 494.628 38.9653 493.994 39.1152L491.873 32.3024L493.287 39.2836C491.941 39.6858 490.657 40.2712 489.471 41.0233L486.553 31.831L488.236 41.8538C487.765 42.2018 487.293 42.5834 486.811 42.9762L483.511 34.3451L485.991 43.7731C483.553 46.2145 481.471 48.988 479.807 52.0114L478.943 39.2836L477.484 56.557C475.064 61.9585 473.112 67.5572 471.647 73.2918C471.647 73.2918 469.852 27.2741 480.93 22.1111C492.007 16.9482 498.596 39.0479 498.596 39.0479C498.103 38.9027 497.594 38.8198 497.081 38.8009L494.162 33.6043Z" fill="#E0E0E0"/>
<path d="M478.337 84.7959L477.349 93.5168L473.982 85.1102L469.493 91.6873L467.719 85.5591L462.534 89.9139C462.534 89.9139 463.174 78.7911 466.485 73.7067C469.796 68.6223 479.74 72.1915 478.337 84.7959Z" fill="#E0E0E0"/>
<path d="M340.082 225.027V164.216C340.082 164.216 327.736 177.336 319.576 175.541C311.416 173.745 300.799 179.952 300.799 179.952C300.799 179.952 311.495 178.392 315.468 182.735C319.441 187.079 337.175 187.539 337.175 187.539V227.249L340.082 225.027Z" fill="#EBEBEB"/>
<path d="M394.517 206.384H391.712V210.211H382.463V206.384H373.372V210.211H364.123V206.384H355.043V210.211H345.784V206.384H336.704V210.211H327.455V206.384H318.364V210.211H309.115V206.384H300.024V210.211H290.776V206.384H287.667L278.654 278.441L403.833 277.924L394.517 206.384Z" fill="#E0E0E0"/>
<path d="M414.428 258.687H410.579V263.94H397.873V258.687H385.392V263.94H372.676V258.687H360.195V263.94H347.49V258.687H335.009V263.94H322.292V258.687H309.811V263.94H297.095V258.687H284.614V263.94H271.908V258.687H267.632L255.241 357.692L427.246 356.974L414.428 258.687Z" fill="#EBEBEB"/>
<path d="M477.966 346.03C475.306 343.034 472.803 339.97 470.02 337.051C469.876 336.906 469.744 336.748 469.627 336.58C468.711 335.987 467.754 335.458 466.765 334.997C466.585 334.941 466.002 334.706 465.407 334.481C464.285 334.077 463.162 333.639 462.04 333.19C455.07 330.384 448.807 327.13 443.543 321.596C440.658 318.566 438.358 315.03 435.372 312.09C435.293 312.191 434.71 311.876 434.429 311.652L432.184 311.36C430.984 311.36 429.771 311.36 428.57 311.439C426.853 311.517 425.136 311.652 423.419 311.809C416.684 321.596 408.266 334.964 404.54 336.726C398.76 339.465 345.492 353.562 341.563 352.697C337.635 351.833 317.073 353.528 311.91 353.337C306.747 353.146 297.398 350.857 283.85 344.627C270.303 338.398 262.918 338.365 246.61 333.168C230.302 327.971 219.37 325.996 209.829 333.987C200.289 341.979 174.081 325.109 165.91 322.707C157.74 320.305 142.116 306.466 131.453 312.92C120.791 319.374 111.924 322.449 98.6012 333.987C85.2785 345.525 58.8464 367.827 58.8464 367.827H508.922L503.748 358.792C498.816 358.492 493.995 357.208 489.567 355.016C485.14 352.825 481.195 349.769 477.966 346.03Z" fill="#F5F5F5"/>
<path d="M48.4645 235.7C48.4645 235.7 61.5627 212.13 97.0524 191.793C97.0524 191.793 125.943 189.335 158.559 203.555C158.559 203.555 165.17 214.532 157.65 218.865C150.13 223.197 143.901 214.487 143.901 214.487C143.901 214.487 142.509 227.754 132.677 228.136C122.845 228.517 119.994 218.865 119.994 218.865C119.994 218.865 119.029 231.043 107.322 234.118C97.1983 236.823 90.913 228.136 90.913 228.136C90.913 228.136 88.8927 238.147 79.7902 241.032C72.4722 243.344 67.444 237.047 67.444 237.047C67.444 237.047 65.3451 247.912 57.5782 247.912C50.9 247.912 48.4645 235.7 48.4645 235.7Z" fill="#E0E0E0"/>
<path d="M280.596 418.155C400.783 418.155 498.214 412.466 498.214 405.449C498.214 398.433 400.783 392.744 280.596 392.744C160.408 392.744 62.9769 398.433 62.9769 405.449C62.9769 412.466 160.408 418.155 280.596 418.155Z" fill="#F5F5F5"/>
<path d="M430.995 350.083C430.995 350.083 435.877 342.933 440.322 340.935C444.767 338.937 445.485 331.339 447.898 330.923C450.311 330.508 452.971 337.512 457.191 339.555C461.411 341.597 467.798 350.038 467.798 350.038L430.995 350.083Z" fill="#59D1F8"/>
<path opacity="0.8" d="M430.995 350.083C430.995 350.083 435.877 342.933 440.322 340.935C444.767 338.937 445.485 331.339 447.898 330.923C450.311 330.508 452.971 337.512 457.191 339.555C461.411 341.597 467.798 350.038 467.798 350.038L430.995 350.083Z" fill="white"/>
<path d="M466.485 401.555H430.973L426.483 350.038H470.974L466.485 401.555Z" fill="#59D1F8"/>
<path d="M473.118 347.366H424.328V352.787H473.118V347.366Z" fill="#59D1F8"/>
<path opacity="0.2" d="M473.118 347.366H424.328V352.787H473.118V347.366Z" fill="white"/>
<path d="M446.63 351.182C449.862 356.256 463.701 377.188 472.276 378.714L473.331 376.178C473.331 376.178 465.654 377.098 448.639 349.903C448.478 349.639 448.222 349.447 447.923 349.365C447.625 349.284 447.307 349.32 447.034 349.465C446.89 349.547 446.764 349.657 446.664 349.79C446.565 349.922 446.494 350.074 446.456 350.235C446.418 350.397 446.414 350.564 446.444 350.727C446.474 350.89 446.537 351.045 446.63 351.182Z" fill="#263238"/>
<path d="M396.1 334.93C396.465 334.815 396.849 334.774 397.23 334.81C397.61 334.846 397.98 334.957 398.317 335.138C398.654 335.319 398.951 335.566 399.191 335.864C399.431 336.162 399.609 336.504 399.714 336.872L405.775 358.074L413.632 354.92C413.632 354.92 418.379 372.598 409.411 375.392C400.691 378.12 393.956 361.8 393.956 361.8L401.97 359.555L394.315 338.612C394.187 338.253 394.131 337.872 394.151 337.492C394.171 337.111 394.267 336.739 394.434 336.396C394.6 336.053 394.833 335.747 395.119 335.495C395.405 335.243 395.739 335.051 396.1 334.93Z" fill="#59D1F8"/>
<path opacity="0.4" d="M409.445 375.392C400.691 378.12 393.956 361.8 393.956 361.8L401.97 359.555C401.97 359.555 403.351 361.912 404.9 361.329C406.448 360.745 405.82 358.04 405.82 358.04L413.677 354.886C413.677 354.886 418.413 372.631 409.445 375.392Z" fill="white"/>
<path d="M476.642 405.91C472.231 403.721 467.719 401.656 466.271 401.555C463.174 401.353 461.389 399.972 459.178 397.335C456.967 394.697 456.069 391.644 452.073 387.402C448.078 383.159 452.511 381.453 444.071 380.364C435.63 379.275 438.896 379.96 433.711 376.223C428.526 372.485 429.581 372.496 423.509 369.825C417.437 367.154 420.983 366.144 413.879 365.549C408.974 365.133 401.218 367.715 397.189 370.588C395.404 371.857 394.495 373.955 392.699 375.078C390.713 376.346 387.626 373.955 387.952 378.232C388.167 379.322 388.217 380.438 388.097 381.543C387.525 383.945 377.637 383.933 375.123 384.685C374.524 384.792 373.987 385.121 373.619 385.606C373.046 386.627 373.911 388.434 372.799 388.805C372.451 388.928 372.059 388.804 371.677 388.861C370.341 389.119 370.689 391.521 369.432 392.071C368.175 392.621 366.727 391.498 365.336 392.071C364.269 392.475 363.91 393.911 362.979 394.484C361.351 395.471 359.667 396.201 358.062 397.256C355.279 399.074 352.866 401.308 349.88 402.868L341.889 405.045L339.498 405.887L476.642 405.91Z" fill="#59D1F8"/>
<path opacity="0.8" d="M476.642 405.91C472.231 403.721 467.719 401.656 466.271 401.555C463.174 401.353 461.389 399.972 459.178 397.335C456.967 394.697 456.069 391.644 452.073 387.402C448.078 383.159 452.511 381.453 444.071 380.364C435.63 379.275 438.896 379.96 433.711 376.223C428.526 372.485 429.581 372.496 423.509 369.825C417.437 367.154 420.983 366.144 413.879 365.549C408.974 365.133 401.218 367.715 397.189 370.588C395.404 371.857 394.495 373.955 392.699 375.078C390.713 376.346 387.626 373.955 387.952 378.232C388.167 379.322 388.217 380.438 388.097 381.543C387.525 383.945 377.637 383.933 375.123 384.685C374.524 384.792 373.987 385.121 373.619 385.606C373.046 386.627 373.911 388.434 372.799 388.805C372.451 388.928 372.059 388.804 371.677 388.861C370.341 389.119 370.689 391.521 369.432 392.071C368.175 392.621 366.727 391.498 365.336 392.071C364.269 392.475 363.91 393.911 362.979 394.484C361.351 395.471 359.667 396.201 358.062 397.256C355.279 399.074 352.866 401.308 349.88 402.868L341.889 405.045L339.498 405.887L476.642 405.91Z" fill="white"/>
<path d="M382.452 385.482C382.457 385.564 382.457 385.647 382.452 385.729C382.419 389.531 381.314 393.246 379.264 396.448C379.096 396.706 378.928 396.964 378.737 397.222C377.559 398.896 376.136 400.383 374.517 401.633C374.157 401.926 373.782 402.199 373.394 402.453C373.306 402.52 373.212 402.58 373.114 402.632L372.743 402.868C372.552 402.998 372.353 403.118 372.148 403.227C371.834 403.407 371.509 403.586 371.183 403.743C367.275 405.711 362.838 406.367 358.528 405.615C354.218 404.863 350.265 402.743 347.254 399.568C345.881 398.15 344.727 396.535 343.831 394.776C342.352 391.897 341.582 388.707 341.586 385.471V385.404C341.586 384.831 341.586 384.281 341.665 383.698C341.884 381.066 342.62 378.503 343.831 376.155C344.129 375.566 344.459 374.992 344.818 374.438C345.995 372.614 347.449 370.986 349.128 369.612C349.662 369.175 350.22 368.771 350.801 368.4C351.003 368.255 351.213 368.12 351.429 367.996C353.036 367.007 354.774 366.252 356.592 365.751L357.064 365.627C358.686 365.224 360.352 365.021 362.025 365.021C362.548 365.021 363.065 365.044 363.573 365.089H363.966C366.236 365.304 368.452 365.904 370.521 366.862L370.779 366.985C373.851 368.439 376.511 370.639 378.517 373.383C380.522 376.128 381.809 379.33 382.261 382.699C382.393 383.621 382.456 384.551 382.452 385.482Z" fill="#59D1F8"/>
<path opacity="0.6" d="M382.452 385.482C382.455 389.28 381.398 393.002 379.399 396.231C377.4 399.459 374.539 402.065 371.138 403.755C370.672 403.378 370.289 402.908 370.016 402.374C373.787 391.375 370.016 385.482 370.016 385.482V385.37L370.285 383.608V383.283C370.869 380.016 372.339 373.899 375.527 370.196C377.699 372.107 379.441 374.458 380.635 377.094C381.829 379.729 382.448 382.589 382.452 385.482Z" fill="white"/>
<path opacity="0.6" d="M346.356 381.947C346.356 381.947 342.776 385.527 343.831 394.787C341.697 390.621 341.059 385.848 342.023 381.267C342.987 376.686 345.496 372.576 349.128 369.623C347.148 373.42 346.192 377.668 346.356 381.947Z" fill="white"/>
<path opacity="0.2" d="M375.583 370.196C371.093 375.403 369.971 385.482 369.971 385.482C357.625 388.502 346.322 381.947 346.322 381.947C346.158 377.661 347.114 373.405 349.095 369.601C352.855 366.542 357.581 364.92 362.427 365.025C367.274 365.129 371.925 366.954 375.549 370.173L375.583 370.196Z" fill="white"/>
<path opacity="0.2" d="M371.127 403.755C367.224 405.708 362.798 406.355 358.5 405.601C354.201 404.847 350.259 402.732 347.254 399.568C351.081 401.813 358.904 405.034 370.005 402.363C370.277 402.901 370.659 403.375 371.127 403.755Z" fill="white"/>
<g opacity="0.2">
<path d="M370.79 367.019C370.256 367.769 369.765 368.548 369.32 369.354C368.489 370.901 367.773 372.506 367.176 374.158C366.548 375.807 366.054 377.525 365.605 379.197C365.156 380.869 364.774 382.632 364.483 384.371C364.6 382.601 364.848 380.841 365.223 379.107C365.603 377.365 366.09 375.649 366.682 373.967C367.294 372.298 368.045 370.683 368.927 369.141C369.416 368.363 369.948 367.614 370.521 366.896L370.79 367.019Z" fill="black"/>
<path d="M363.966 365.134C363.686 365.639 363.428 366.155 363.181 366.671C362.356 368.412 361.677 370.218 361.149 372.07C360.554 373.911 360.105 375.796 359.679 377.682C359.252 379.567 358.893 381.475 358.556 383.383C358.671 381.441 358.903 379.507 359.252 377.592C359.588 375.674 360.038 373.777 360.599 371.913C361.159 370.034 361.892 368.212 362.788 366.469C363.035 366.009 363.293 365.549 363.562 365.111L363.966 365.134Z" fill="black"/>
<path d="M357.064 365.65L356.716 366.559C356.097 368.226 355.591 369.932 355.2 371.666C354.763 373.395 354.426 375.145 354.078 376.908C353.73 378.67 353.483 380.432 353.225 382.205C353.264 380.41 353.411 378.618 353.663 376.84C353.908 375.047 354.245 373.268 354.673 371.509C355.083 369.75 355.635 368.027 356.323 366.357C356.413 366.155 356.502 365.942 356.603 365.74L357.064 365.65Z" fill="black"/>
<path d="M351.429 368.007C351.048 369.264 350.688 370.521 350.43 371.8C350.172 373.08 349.869 374.674 349.645 376.122C349.42 377.57 349.263 379.029 349.128 380.499C349.052 379.025 349.082 377.547 349.218 376.077C349.36 374.603 349.581 373.138 349.88 371.688C350.131 370.581 350.438 369.487 350.801 368.411C351.003 368.266 351.213 368.131 351.429 368.007Z" fill="black"/>
<path d="M375.751 392.295C375.81 394.409 375.534 396.519 374.932 398.547C374.632 399.557 374.257 400.544 373.809 401.499C373.664 401.824 373.495 402.15 373.327 402.464C373.239 402.532 373.145 402.592 373.046 402.644C373.661 401.289 374.145 399.88 374.494 398.435C375.02 396.436 375.247 394.371 375.168 392.306C375.135 390.241 374.818 388.19 374.225 386.212C373.643 384.212 372.813 382.293 371.755 380.499C373.009 382.203 373.98 384.098 374.629 386.111C375.312 388.104 375.69 390.189 375.751 392.295Z" fill="black"/>
<path d="M379.781 391.712L379.724 393.406L379.489 395.09C379.438 395.547 379.36 396.001 379.253 396.448C379.085 396.706 378.916 396.964 378.726 397.222C378.893 396.502 379.006 395.771 379.062 395.034L379.231 393.373V391.712C379.27 391.155 379.27 390.596 379.231 390.039C379.175 389.489 379.175 388.917 379.073 388.389C378.817 386.181 378.262 384.017 377.424 381.958C376.613 379.876 375.501 377.925 374.124 376.167C375.677 377.804 376.927 379.704 377.816 381.778C378.734 383.857 379.347 386.057 379.635 388.311C379.724 388.872 379.713 389.433 379.758 390.005C379.805 390.573 379.813 391.143 379.781 391.712Z" fill="black"/>
<path d="M382.452 385.482C382.457 385.565 382.457 385.647 382.452 385.729L382.385 385.348C381.907 383.021 381.154 380.761 380.14 378.613C379.146 376.439 377.838 374.424 376.256 372.631C378.003 374.3 379.446 376.26 380.521 378.423C381.235 379.825 381.828 381.286 382.295 382.789C382.411 383.682 382.463 384.582 382.452 385.482Z" fill="black"/>
<path d="M345.357 378.714C344.456 379.739 343.683 380.87 343.056 382.082C342.473 383.161 341.981 384.287 341.586 385.449C341.586 384.876 341.586 384.326 341.665 383.743C341.965 383.093 342.306 382.463 342.686 381.857C343.386 380.661 344.29 379.598 345.357 378.714Z" fill="black"/>
<path d="M346.322 373.282C345.469 374.247 344.639 375.202 343.831 376.167C344.129 375.577 344.459 375.004 344.818 374.45C345.297 374.032 345.799 373.643 346.322 373.282Z" fill="black"/>
<path d="M346.322 386.279C348.186 386.998 350.071 387.626 351.934 388.187C353.838 388.752 355.772 389.213 357.726 389.568C361.615 390.406 365.643 390.357 369.511 389.422C367.628 390.128 365.64 390.507 363.63 390.544C361.617 390.584 359.606 390.426 357.625 390.073C355.654 389.7 353.711 389.19 351.811 388.546C349.927 387.931 348.092 387.173 346.322 386.279Z" fill="black"/>
<path d="M346.322 391.162C348.198 391.906 350.117 392.536 352.069 393.047C354.016 393.56 355.996 393.935 357.995 394.17C359.988 394.443 362.001 394.537 364.011 394.45L365.515 394.383L367.019 394.203C368.029 394.136 368.995 393.844 370.005 393.698C368.07 394.336 366.065 394.736 364.034 394.888C361.998 395.032 359.953 394.979 357.928 394.731C355.907 394.463 353.91 394.035 351.957 393.451C350.009 392.871 348.122 392.104 346.322 391.162Z" fill="black"/>
<path d="M346.816 395.382C348.582 396.204 350.41 396.887 352.282 397.425C354.148 397.959 356.055 398.334 357.984 398.547C358.949 398.704 359.914 398.727 360.88 398.794C361.845 398.861 362.821 398.794 363.798 398.738C365.741 398.628 367.671 398.35 369.567 397.907C367.713 398.56 365.787 398.985 363.831 399.175C361.863 399.372 359.88 399.349 357.917 399.108C355.959 398.866 354.03 398.43 352.159 397.806C350.291 397.206 348.498 396.392 346.816 395.382Z" fill="black"/>
<path d="M347.658 398.558C349.324 399.328 351.046 399.97 352.81 400.477C354.563 401.002 356.358 401.377 358.175 401.6C359.987 401.869 361.824 401.94 363.652 401.813L365.021 401.712L366.368 401.488C367.289 401.398 368.153 401.083 369.062 400.904C367.341 401.599 365.531 402.052 363.686 402.251C361.822 402.473 359.938 402.473 358.074 402.251C356.23 402.016 354.414 401.598 352.653 401.005C350.899 400.386 349.223 399.564 347.658 398.558Z" fill="black"/>
</g>
<path d="M127.716 353.371C127.716 353.371 131.712 347.366 138.816 346.928C145.921 346.491 151.914 355.548 151.914 355.548H149.67C149.67 355.548 143.934 349.364 139.826 349.364C135.718 349.364 131.723 354.471 131.723 354.471L127.716 353.371Z" fill="#263238"/>
<path d="M67.4327 400.758C69.8908 396.661 97.4228 399.321 103.641 396.874L107.008 402.655C107.008 402.655 102.26 405.281 94.3811 404.349C86.502 403.418 74.5935 403.171 71.4845 405.909L67.4327 400.758Z" fill="#263238"/>
<path opacity="0.3" d="M67.4327 400.758C69.8908 396.661 97.4228 399.321 103.641 396.874L107.008 402.655C107.008 402.655 102.26 405.281 94.3811 404.349C86.502 403.418 74.5935 403.171 71.4845 405.909L67.4327 400.758Z" fill="black"/>
<path d="M183.397 388.266C183.173 389.242 182.926 390.196 182.645 391.128C180.401 398.771 176.944 404.956 174.429 405.91H103.057C102.076 405.91 101.107 405.685 100.226 405.254C99.3447 404.822 98.5739 404.194 97.9728 403.418L97.9166 403.339C97.6531 402.992 97.4308 402.616 97.2544 402.217C92.3272 391.925 87.355 371.34 94.3475 361.957C95.0789 360.979 95.9227 360.09 96.8616 359.308L97.0636 359.151C98.5446 357.943 100.183 356.942 101.935 356.177H101.991C106.907 353.932 112.945 352.933 118.827 352.496C120.544 352.361 122.194 352.282 123.922 352.249C128.3 352.125 132.385 352.249 135.64 352.327C147.111 352.619 156.135 356.031 162.285 355.436C164.544 355.2 166.827 355.383 169.02 355.975C169.651 356.152 170.273 356.362 170.883 356.603C173.682 357.787 176.285 359.388 178.605 361.351C185.631 366.929 185.732 378.366 183.397 388.266Z" fill="#263238"/>
<path opacity="0.1" d="M183.397 388.266C183.173 389.242 182.926 390.196 182.645 391.128C180.401 398.771 176.944 404.956 174.429 405.91H103.057C102.076 405.91 101.107 405.685 100.226 405.254C99.3447 404.822 98.5739 404.194 97.9728 403.418L97.9166 403.339C97.6531 402.992 97.4308 402.616 97.2544 402.217C92.3272 391.925 87.355 371.34 94.3475 361.957C95.0789 360.979 95.9227 360.09 96.8616 359.308L97.0636 359.151C98.5446 357.943 100.183 356.942 101.935 356.177H101.991C106.907 353.932 112.945 352.933 118.827 352.496C120.544 352.361 122.194 352.282 123.922 352.249C128.3 352.125 132.385 352.249 135.64 352.327C147.111 352.619 156.135 356.031 162.285 355.436C164.544 355.2 166.827 355.383 169.02 355.975C169.651 356.152 170.273 356.362 170.883 356.603C173.682 357.787 176.285 359.388 178.605 361.351C185.631 366.929 185.732 378.366 183.397 388.266Z" fill="white"/>
<path opacity="0.2" d="M172.465 387.559C167.358 387.559 157.145 389.994 142.049 386.672C135.01 385 127.684 384.946 120.622 386.515C120.454 384.27 120.274 381.767 120.072 379.051C118.737 360.812 108.332 353.158 101.991 356.188H101.935C100.214 357.011 98.582 358.008 97.0636 359.162L96.8616 359.32C95.9227 360.101 95.0789 360.99 94.3475 361.968C87.355 371.351 92.3272 391.936 97.2544 402.228C97.4308 402.627 97.6531 403.003 97.9166 403.351L97.9728 403.429C98.5794 404.117 99.3256 404.668 100.162 405.045C100.998 405.423 101.904 405.618 102.821 405.618H115.605C120.824 405.618 121.442 400.836 120.858 390.567C121.745 390.062 122.834 389.444 124.046 388.614C127.222 386.549 139.579 387.57 144.911 389.568C150.242 391.566 164.227 392.452 170.995 391.352C174.846 390.781 178.754 390.709 182.623 391.139C182.903 390.207 183.15 389.253 183.375 388.277C181.063 388.019 176.214 387.559 172.465 387.559Z" fill="black"/>
<path opacity="0.2" d="M126.066 361.8C129.175 373.125 131.307 377.121 132.127 378.232C132.946 379.343 155.551 382.025 159.793 382.014C164.69 381.971 169.573 381.49 174.384 380.577C177.269 379.848 178.201 365.324 170.928 356.615C170.318 356.373 169.696 356.163 169.064 355.986C173.026 364.875 173.116 375.762 172.645 377.311C171.971 379.466 165.316 379.152 162.207 379.085C159.098 379.017 139.759 377.816 137.784 377.031C135.876 376.239 134.253 374.889 133.126 373.159C131.566 371.161 131.352 364.28 128.535 358.343C127.339 356.087 125.781 354.044 123.922 352.293C122.25 352.293 120.555 352.406 118.827 352.54C120.601 353.508 122.159 354.828 123.405 356.421C124.65 358.013 125.555 359.844 126.066 361.8Z" fill="black"/>
<path d="M103.641 372.227L97.4228 373.753C97.4228 373.753 93.0118 386.414 95.6494 391.712C98.287 397.009 77.6913 404.383 67.4327 400.691L71.4509 405.842C71.4509 405.842 95.8739 404.305 100.532 395.011C105.19 385.718 98.534 384.281 98.0962 381.666C97.6585 379.051 103.641 372.227 103.641 372.227Z" fill="#263238"/>
<path opacity="0.1" d="M103.641 372.227L97.4228 373.753C97.4228 373.753 93.0118 386.414 95.6494 391.712C98.287 397.009 77.6913 404.383 67.4327 400.691L71.4509 405.842C71.4509 405.842 95.8739 404.305 100.532 395.011C105.19 385.718 98.534 384.281 98.0962 381.666C97.6585 379.051 103.641 372.227 103.641 372.227Z" fill="white"/>
<path d="M158.559 111.116C158.559 111.116 134.54 97.6471 129.568 94.1902C124.596 90.7332 97.9952 64.6154 96.5137 63.8859C96.5137 63.8859 97.5014 60.9003 95.2678 59.1606C93.0343 57.4209 84.3246 51.708 83.09 51.708C81.8554 51.708 78.6004 63.8859 79.1055 66.8714C79.6106 69.8569 91.7884 70.5977 91.7884 70.5977C91.7884 70.5977 117.143 100.116 121.116 104.269C125.09 108.422 152.184 126.055 152.184 126.055L158.559 111.116Z" fill="#E4897B"/>
<path d="M168.414 113.596C168.414 113.596 173.678 124.225 160.894 141.106L132.711 120.387L143.934 100.016L168.414 113.596Z" fill="#59D1F8"/>
<path opacity="0.6" d="M160.893 141.106L147.582 131.319L145.842 130.039L138.334 124.585L132.722 120.443L136.863 112.957L139.175 108.647L143.946 100.016L148.547 102.575L152.521 104.819L168.391 113.641C168.912 114.873 169.234 116.18 169.345 117.514C169.873 121.992 169.109 130.253 160.893 141.106Z" fill="white"/>
<path opacity="0.2" d="M160.894 141.106L147.582 131.319C152.15 121.868 163.969 118.535 169.368 117.469C169.873 121.992 169.109 130.252 160.894 141.106Z" fill="black"/>
<g opacity="0.2">
<path d="M152.543 104.774L148.57 107.086V102.574L152.543 104.774Z" fill="white"/>
<path d="M143.901 110.038L138.917 117.03L136.852 112.9L139.198 108.646L143.901 110.038Z" fill="white"/>
<path d="M147.582 120.555L145.843 130.039L138.334 124.528L147.582 120.555Z" fill="white"/>
<path d="M151.028 115.145L153.8 122.25L159.558 114.415L151.028 115.145Z" fill="white"/>
</g>
<path d="M220.795 108.568C220.795 108.568 244.814 95.0995 249.786 91.6426C254.758 88.1856 281.359 62.0678 282.852 61.3382C282.852 61.3382 281.853 58.3527 284.086 56.613C286.32 54.8733 295.029 49.1604 296.264 49.1604C297.499 49.1604 300.754 61.3382 300.249 64.3238C299.743 67.3093 287.566 68.0501 287.566 68.0501C287.566 68.0501 262.211 97.58 258.238 101.722C254.264 105.863 227.17 123.462 227.17 123.462L220.795 108.568Z" fill="#E4897B"/>
<path d="M192.096 250.796C192.096 250.796 191.579 259.27 190.805 270.606C190.289 277.655 189.683 285.792 188.953 293.66C188.01 304.233 186.944 314.312 185.878 320.597C184.901 326.355 171.938 397.862 171.938 397.862H163.25C165.989 331.181 170.232 305.321 170.389 301.438C170.389 300.17 170.49 298.408 170.546 296.309C170.714 288.699 170.86 276.678 170.95 267.935C171.017 261.627 171.051 257.037 171.051 257.037L192.096 250.796Z" fill="#E4897B"/>
<path d="M225.599 304.749C225.296 310.575 221.828 397.548 221.828 397.548H212.276C207.394 328.275 209.246 304.222 208.37 299.418C206.877 291.247 205.475 280.506 204.509 272.481C203.735 266.072 203.252 261.459 203.252 261.459L222.726 253.041C222.726 253.041 223.904 263.143 224.791 275.242C225.228 281.303 225.61 287.891 225.722 294.019C225.812 297.858 225.79 301.517 225.599 304.749Z" fill="#E4897B"/>
<path opacity="0.2" d="M170.905 267.913L190.805 270.606C190.289 277.655 189.683 285.792 188.953 293.66L170.501 296.309C170.67 288.677 170.815 276.656 170.905 267.913Z" fill="black"/>
<path opacity="0.2" d="M225.734 294.064L208.382 299.407C206.889 291.236 205.486 280.495 204.521 272.469L224.802 275.231C225.24 281.303 225.599 287.891 225.734 294.064Z" fill="black"/>
<path d="M173.969 395.168H162.487C162.299 395.171 162.117 395.236 161.971 395.354C161.825 395.472 161.722 395.636 161.679 395.819L159.827 404.215C159.751 404.575 159.82 404.95 160.02 405.26C160.219 405.569 160.534 405.786 160.894 405.864C160.998 405.875 161.103 405.875 161.208 405.864C164.912 405.808 167.617 405.573 172.263 405.573C175.137 405.573 183.79 405.876 187.741 405.876C191.692 405.876 192.23 401.97 190.603 401.599C183.33 400.017 177.853 397.828 175.529 395.741C175.102 395.357 174.543 395.152 173.969 395.168Z" fill="#59D1F8"/>
<path d="M222.546 394.876H211.087C210.899 394.874 210.716 394.937 210.569 395.053C210.422 395.17 210.32 395.333 210.278 395.516L208.415 403.923C208.38 404.105 208.38 404.292 208.418 404.474C208.455 404.656 208.528 404.829 208.632 404.982C208.736 405.135 208.87 405.267 209.026 405.368C209.181 405.469 209.355 405.539 209.538 405.573H209.841C213.556 405.517 216.25 405.292 220.907 405.292C223.769 405.292 232.423 405.584 236.385 405.584C240.347 405.584 240.875 401.678 239.236 401.319C231.963 399.736 226.497 397.536 224.174 395.449C223.953 395.251 223.696 395.098 223.417 395C223.138 394.902 222.842 394.86 222.546 394.876Z" fill="#59D1F8"/>
<path d="M192.882 288.755C192.971 287.992 193.061 287.195 193.151 286.297C194.273 274.804 195.497 261.01 196.518 247.721C200.39 258.137 202.063 272.784 204.083 288.755H227.653C225.7 247.418 220.582 213.791 217.866 199.447H167.875C167.807 204.588 167.235 254.444 165.944 288.755H192.882Z" fill="#263238"/>
<path opacity="0.2" d="M192.882 288.755C192.971 287.992 193.061 287.195 193.151 286.297C194.273 274.804 195.497 261.01 196.518 247.721C200.39 258.137 202.063 272.784 204.083 288.755H227.653C225.7 247.418 220.582 213.791 217.866 199.447H167.875C167.807 204.588 167.235 254.444 165.944 288.755H192.882Z" fill="white"/>
<path d="M199.784 97.0746C199.675 97.5271 199.54 97.973 199.38 98.4102C198.486 100.906 196.858 103.073 194.711 104.628C194.171 105.024 193.601 105.377 193.005 105.683C190.729 106.901 188.117 107.34 185.568 106.935C183.018 106.53 180.672 105.302 178.885 103.438C174.16 98.6684 174.284 93.1575 173.745 83.8305C173.603 81.8262 173.929 79.8164 174.699 77.9604C175.343 76.4111 176.286 75.0038 177.473 73.8189C178.661 72.634 180.071 71.6948 181.622 71.0548C183.173 70.4148 184.835 70.0867 186.512 70.0891C188.19 70.0916 189.851 70.4245 191.4 71.069C200.514 74.7953 201.771 88.6679 199.784 97.0746Z" fill="#E4897B"/>
<path opacity="0.2" d="M194.677 104.629C194.137 105.025 193.567 105.378 192.971 105.684C191.408 106.517 189.679 106.99 187.91 107.067C186.14 107.145 184.376 106.826 182.746 106.133C183.169 105.011 183.73 103.948 184.419 102.967C187.927 102.528 191.487 103.104 194.677 104.629Z" fill="black"/>
<path d="M175.9 116.728C180.502 120.903 191.759 119.365 191.759 119.365C191.759 119.365 198.785 117.435 197.304 115.246C193.173 114.562 191.164 112.631 190.334 110.151C189.885 108.618 189.744 107.012 189.918 105.425C189.985 104.54 190.101 103.66 190.266 102.788L176.349 92.4844C178.167 99.286 180.401 111.801 175.9 116.728Z" fill="#E4897B"/>
<path d="M194.677 88.5895L196.686 89.3415L195.688 85.2336C195.688 85.2336 198.628 80.7441 195.688 76.8494C195.688 76.8494 203.814 74.3802 199.223 70.1151C197.517 68.5213 195.396 70.1151 189.784 67.6796C186.742 66.3439 177.224 66.2429 176.753 70.1151C176.753 70.1151 169.895 70.1151 169.154 81.7879C168.938 85.2079 169.476 88.6336 170.731 91.8223C171.986 95.0111 173.927 97.8848 176.416 100.24C176.416 100.24 184.699 102.193 188.762 98.8706C192.825 95.5483 194.677 88.5895 194.677 88.5895Z" fill="#263238"/>
<path d="M189.38 89.2516C189.555 90.1292 189.924 90.9565 190.46 91.673C190.996 92.3896 191.685 92.9773 192.477 93.3932C194.374 94.2013 195.631 91.5301 195.351 88.7241C195.092 86.2324 193.802 82.7306 191.77 83.202C189.739 83.6734 188.717 86.7375 189.38 89.2516Z" fill="#E4897B"/>
<path opacity="0.2" d="M196.563 247.665C195.497 260.954 194.318 274.781 193.196 286.275C191.49 269.675 189.402 257.845 189.402 257.845C189.402 257.845 187.449 256.24 182.073 247.665C176.697 239.09 182.073 223.062 182.073 223.062C181.826 237.945 196.563 247.665 196.563 247.665Z" fill="black"/>
<path d="M229.393 286.814L228.36 290.708H203.264V287.106L229.393 286.814Z" fill="#59D1F8"/>
<path d="M194.094 287.352L193.342 290.955H164.923L163.206 287.352H194.094Z" fill="#59D1F8"/>
<path d="M197.595 114.023C197.595 114.023 193.51 107.569 183.218 107.109C172.925 106.648 172.14 113.731 172.14 113.731L197.595 114.023Z" fill="#59D1F8"/>
<path opacity="0.5" d="M197.595 114.023C197.595 114.023 193.51 107.569 183.218 107.109C172.925 106.648 172.14 113.731 172.14 113.731L197.595 114.023Z" fill="white"/>
<path d="M160.635 109.993C163.74 144.936 163.364 180.101 159.513 214.97L219.819 211.288C219.145 149.748 210.896 110.981 210.896 110.981C210.896 110.981 195.351 114.247 182.701 113.776C175.218 113.428 167.807 112.158 160.635 109.993Z" fill="#59D1F8"/>
<path d="M210.941 111.026C210.941 111.026 218.999 129.86 219.864 148.918C220.728 167.976 187.135 194.172 187.135 194.172C187.135 194.172 161.242 176.349 141.263 177.965C121.285 179.581 115.067 186.686 115.067 186.686C115.067 186.686 130.601 153.452 157.65 141.869C157.65 141.869 152.038 122.733 160.635 110.083C160.635 109.993 179.334 116.122 210.941 111.026Z" fill="#59D1F8"/>
<path opacity="0.6" d="M219.864 148.918C219.892 149.456 219.892 149.995 219.864 150.534C219.817 151.366 219.716 152.195 219.561 153.014C219.195 154.942 218.619 156.824 217.843 158.626C215.445 163.901 212.316 168.813 208.55 173.217C206.642 175.552 204.622 177.797 202.624 179.884C197.785 184.987 192.611 189.76 187.135 194.172C180.335 189.671 173.105 185.855 165.552 182.78C163.251 181.86 160.86 180.995 158.424 180.266C152.893 178.475 147.08 177.714 141.274 178.021C135.733 178.39 130.26 179.461 124.989 181.209C124.08 181.523 123.238 181.86 122.463 182.185L121.767 182.488C120.081 183.22 118.471 184.118 116.964 185.171C116.795 185.283 116.638 185.406 116.492 185.519C116.346 185.631 115.965 185.923 115.763 186.102L115.493 186.338C115.425 186.392 115.361 186.452 115.302 186.517L115.168 186.652L115.089 186.731C115.089 186.675 115.224 186.439 115.426 186.035L115.74 185.418C116.054 184.789 116.492 183.947 117.065 182.926L117.312 182.477L117.749 181.702C117.895 181.433 118.052 181.152 118.221 180.872C118.872 179.749 119.635 178.448 120.465 177.067C125.079 169.601 130.54 162.694 136.74 156.482C138.95 154.285 141.289 152.22 143.744 150.298C147.986 146.922 152.649 144.111 157.616 141.936C156.329 137.008 155.743 131.922 155.877 126.829C155.909 125.225 156.041 123.625 156.269 122.037C156.784 117.741 158.278 113.621 160.636 109.993C163.394 110.795 166.207 111.392 169.053 111.778C172.773 112.345 176.519 112.72 180.277 112.9C187.836 113.239 195.41 112.972 202.927 112.103C205.486 111.827 208.146 111.453 210.907 110.981L211.165 111.61C212.951 116.09 214.491 120.665 215.778 125.314C216.272 127.099 216.766 129.007 217.237 131.004C217.709 133.002 218.068 134.787 218.427 136.773C219.169 140.786 219.649 144.843 219.864 148.918Z" fill="white"/>
<g opacity="0.2">
<path d="M212.13 164.216L208.584 173.285C206.676 175.619 204.655 177.864 202.657 179.952L195.441 166.483L212.13 164.216Z" fill="white"/>
<path d="M151.028 155.551L136.774 156.371C138.984 154.173 141.323 152.108 143.777 150.186L151.028 155.551Z" fill="white"/>
<path d="M167.471 119.646L165.944 134.461L155.843 126.818C155.876 125.214 156.007 123.613 156.236 122.025L167.471 119.646Z" fill="white"/>
<path d="M172.14 158.682L167.471 144.451L181.669 141.824L172.14 158.682Z" fill="white"/>
<path d="M196.563 145.124V155.775L206.754 152.116L196.563 145.124Z" fill="white"/>
<path d="M170.344 175.978L165.552 182.713C163.251 181.792 160.86 180.928 158.424 180.198L154.81 171.96L170.344 175.978Z" fill="white"/>
<path d="M133.934 165.765L141.263 168.874L133.934 173.868V165.765Z" fill="white"/>
<path d="M124.977 181.107C117.682 183.655 115.067 186.641 115.067 186.641C116.696 183.319 118.505 180.089 120.488 176.966L124.977 181.107Z" fill="white"/>
<path d="M184.868 167.325L178.56 173.868L188.1 175.541L184.868 167.325Z" fill="white"/>
<path d="M184.868 126.246L192.287 136.235L197.596 124.921L184.868 126.246Z" fill="white"/>
<path d="M218.46 136.819L208.976 130.578L215.812 125.359C216.777 128.816 217.742 132.711 218.46 136.819Z" fill="white"/>
<path d="M219.852 150.534C219.648 153.342 218.964 156.094 217.832 158.671L213.859 148.895L219.852 150.534Z" fill="white"/>
<path d="M211.199 111.655L205.194 117.85L202.949 112.149C205.508 111.872 208.168 111.498 210.929 111.026L211.199 111.655Z" fill="white"/>
<path d="M180.311 112.912L175.9 122.25L169.053 111.823C172.785 112.38 176.542 112.744 180.311 112.912Z" fill="white"/>
</g>
<path opacity="0.2" d="M219.864 148.918C219.892 149.456 219.892 149.996 219.864 150.534C219.817 151.367 219.716 152.195 219.56 153.015C211.704 140.556 213.567 129.287 213.567 129.287L217.282 131.049C217.709 132.901 218.113 134.832 218.472 136.819C219.197 140.817 219.662 144.859 219.864 148.918Z" fill="black"/>
<path d="M188.033 61.4278C201.356 56.8372 204.7 74.5821 191.467 86.5804C178.234 98.5786 163.037 100.049 161.309 93.9656C159.58 87.8823 167.695 68.4651 188.033 61.4278Z" fill="#59D1F8"/>
<path d="M174.688 60.53C181.523 60.53 191.232 67.4888 191.232 67.4888C191.232 67.4888 192.623 74.8965 185.81 81.4063C178.998 87.9162 172.847 88.9488 169.053 86.4234C165.26 83.898 164.205 74.0772 164.205 74.0772C164.55 72.9155 165.172 71.8547 166.016 70.9851C166.86 70.1154 167.902 69.4627 169.053 69.0826C169.053 69.0826 170.176 60.6086 174.688 60.53Z" fill="#59D1F8"/>
<path opacity="0.2" d="M185.81 81.4065C178.998 87.9164 172.869 88.9489 169.053 86.4348C168.388 85.968 167.823 85.3726 167.392 84.6839C164.923 80.9688 164.205 74.1111 164.205 74.1111C170.714 81.9677 178.257 73.8529 179.301 68.3757C179.61 67.0747 179.613 65.7199 179.312 64.4172C179.01 63.1146 178.411 61.8994 177.561 60.8669C182.05 61.8322 186.966 64.7055 189.503 66.3329C190.625 67.0176 191.232 67.4553 191.232 67.4553C191.232 67.4553 192.623 74.8967 185.81 81.4065Z" fill="black"/>
<path opacity="0.6" d="M185.81 81.4061C178.998 87.9159 172.869 88.9485 169.053 86.4344C168.388 85.9675 167.823 85.3722 167.392 84.6835C174.216 86.715 182.342 83.3366 186.708 77.2645C189.023 74.1213 190.025 70.2011 189.503 66.3325C190.625 67.0172 191.231 67.4549 191.231 67.4549C191.231 67.4549 192.623 74.8963 185.81 81.4061Z" fill="white"/>
<path d="M210.941 111.026C210.941 111.026 205.677 121.666 218.461 138.535L246.644 117.85L235.42 97.4788L210.941 111.026Z" fill="#59D1F8"/>
<path opacity="0.6" d="M246.644 117.85L239.292 123.249L228.416 131.251L218.461 138.569C217.81 137.716 217.215 136.874 216.654 136.055C215.514 134.385 214.479 132.646 213.556 130.847C211.279 126.669 210.022 122.012 209.886 117.255C209.809 115.122 210.192 112.998 211.008 111.026L217.271 107.547L228.057 101.564L232.793 98.9266L235.465 97.4451L246.644 117.85Z" fill="white"/>
<g opacity="0.2">
<path d="M239.292 123.215L228.416 131.218L223.624 120.555L239.292 123.215Z" fill="white"/>
<path d="M238.282 106.065L228.248 110.038L227.99 101.564L232.726 98.9268L238.282 106.065Z" fill="white"/>
<path d="M220.795 114.416L209.886 117.255C209.809 115.122 210.192 112.998 211.008 111.026L217.271 107.547L220.795 114.416Z" fill="white"/>
<path d="M218.461 128.03L216.62 136.021C215.48 134.352 214.445 132.612 213.522 130.814L218.461 128.03Z" fill="white"/>
</g>
<path d="M287.824 302.605L270.494 301.236L276.218 228.158L293.604 229.516L287.824 302.605ZM274.052 298.116L284.726 298.946L289.923 232.58L279.26 231.749L274.052 298.116Z" fill="#263238"/>
<path d="M275.848 396.807L278.093 396.987C278.717 396.978 279.337 397.099 279.913 397.343C280.488 397.588 281.006 397.949 281.433 398.405C281.86 398.861 282.188 399.402 282.395 399.991C282.601 400.581 282.682 401.208 282.633 401.831C282.583 402.454 282.405 403.06 282.107 403.609C281.81 404.159 281.402 404.641 280.908 405.024C280.414 405.407 279.846 405.682 279.239 405.833C278.632 405.983 278.001 406.006 277.385 405.898L275.141 405.719C274.515 405.729 273.895 405.609 273.319 405.366C272.743 405.122 272.224 404.761 271.795 404.306C271.367 403.85 271.038 403.31 270.831 402.72C270.623 402.13 270.541 401.504 270.59 400.88C270.638 400.257 270.817 399.65 271.113 399.1C271.41 398.549 271.818 398.067 272.312 397.683C272.806 397.3 273.375 397.024 273.982 396.873C274.589 396.722 275.22 396.7 275.837 396.807H275.848Z" fill="#263238"/>
<path opacity="0.1" d="M270.966 400.825C270.893 401.724 271.088 402.624 271.528 403.412C271.967 404.2 272.63 404.84 273.433 405.25C274.236 405.661 275.143 405.824 276.039 405.719C276.935 405.614 277.779 405.245 278.465 404.66C279.151 404.074 279.648 403.298 279.893 402.43C280.138 401.562 280.12 400.641 279.841 399.783C279.562 398.925 279.034 398.17 278.326 397.612C277.617 397.054 276.758 396.719 275.859 396.65C275.262 396.594 274.66 396.659 274.089 396.841C273.517 397.022 272.988 397.316 272.531 397.705C272.075 398.094 271.702 398.571 271.433 399.106C271.164 399.642 271.005 400.227 270.966 400.825Z" fill="white"/>
<path d="M263.591 395.853L265.836 396.021C266.461 396.011 267.082 396.131 267.658 396.375C268.234 396.618 268.753 396.979 269.182 397.434C269.61 397.89 269.939 398.43 270.146 399.02C270.354 399.61 270.436 400.236 270.387 400.86C270.339 401.483 270.16 402.09 269.864 402.64C269.567 403.191 269.158 403.673 268.664 404.057C268.17 404.44 267.602 404.716 266.995 404.867C266.388 405.018 265.756 405.041 265.14 404.933L262.896 404.765C262.27 404.775 261.65 404.655 261.074 404.412C260.498 404.168 259.979 403.807 259.55 403.352C259.122 402.896 258.793 402.356 258.585 401.766C258.378 401.177 258.296 400.55 258.344 399.926C258.393 399.303 258.572 398.697 258.868 398.146C259.165 397.596 259.573 397.113 260.067 396.73C260.561 396.346 261.13 396.07 261.737 395.919C262.344 395.768 262.975 395.746 263.591 395.853Z" fill="#263238"/>
<path opacity="0.2" d="M258.709 399.871C258.639 400.77 258.836 401.669 259.277 402.456C259.718 403.242 260.382 403.88 261.185 404.289C261.989 404.698 262.895 404.859 263.791 404.753C264.686 404.646 265.529 404.277 266.214 403.691C266.899 403.105 267.395 402.328 267.639 401.46C267.883 400.593 267.864 399.672 267.584 398.815C267.305 397.958 266.777 397.203 266.068 396.646C265.36 396.088 264.502 395.754 263.603 395.685C262.4 395.595 261.21 395.984 260.293 396.769C259.376 397.553 258.807 398.668 258.709 399.871Z" fill="white"/>
<path d="M261.549 397.2L278.915 398.561C280.577 398.691 282.031 397.449 282.161 395.787L290.431 290.236C290.561 288.573 289.319 287.12 287.657 286.99L270.291 285.629C268.628 285.499 267.175 286.741 267.045 288.403L258.775 393.954C258.645 395.617 259.887 397.07 261.549 397.2Z" fill="#263238"/>
<path opacity="0.2" d="M270.219 397.864L278.924 398.546C280.586 398.676 282.04 397.434 282.17 395.772L290.44 290.221C290.57 288.559 289.328 287.106 287.666 286.975L278.96 286.293C277.298 286.163 275.845 287.405 275.714 289.067L267.444 394.618C267.314 396.281 268.556 397.734 270.219 397.864Z" fill="white"/>
<path d="M277.029 230.605L291.676 231.777C292.916 231.876 294.001 230.951 294.1 229.712L294.211 228.331C294.31 227.091 293.385 226.006 292.146 225.907L277.499 224.735C276.259 224.636 275.173 225.56 275.074 226.8L274.964 228.181C274.865 229.42 275.789 230.506 277.029 230.605Z" fill="#263238"/>
<path opacity="0.2" d="M277.029 230.605L291.676 231.777C292.916 231.876 294.001 230.951 294.1 229.712L294.211 228.331C294.31 227.091 293.385 226.006 292.146 225.907L277.499 224.735C276.259 224.636 275.173 225.56 275.074 226.8L274.964 228.181C274.865 229.42 275.789 230.506 277.029 230.605Z" fill="white"/>
<path opacity="0.2" d="M277.365 232.063L278.585 232.158C279.821 232.255 280.901 231.331 280.998 230.095L281.105 228.719C281.202 227.483 280.278 226.403 279.042 226.306L277.823 226.211C276.587 226.114 275.506 227.038 275.41 228.274L275.302 229.65C275.206 230.886 276.129 231.966 277.365 232.063Z" fill="black"/>
<path d="M322.73 298.15L315.255 393.552C315.123 395.237 314.328 396.8 313.044 397.898C311.76 398.997 310.093 399.541 308.408 399.411L273.614 396.683C272.435 396.583 271.342 396.021 270.575 395.119C269.808 394.217 269.428 393.049 269.518 391.868L277.228 292.684C277.326 291.504 277.885 290.41 278.785 289.641C279.685 288.872 280.852 288.489 282.032 288.576L316.826 291.303C317.664 291.363 318.482 291.587 319.233 291.964C319.984 292.341 320.653 292.863 321.201 293.499C321.75 294.135 322.167 294.873 322.43 295.672C322.692 296.47 322.794 297.312 322.73 298.15Z" fill="#59D1F8"/>
<path opacity="0.2" d="M322.73 298.15L315.255 393.552C315.123 395.237 314.328 396.8 313.044 397.898C311.76 398.997 310.093 399.541 308.408 399.411L273.614 396.683C272.435 396.583 271.342 396.021 270.575 395.119C269.808 394.217 269.428 393.049 269.518 391.868L277.228 292.684C277.326 291.504 277.885 290.41 278.785 289.641C279.685 288.872 280.852 288.489 282.032 288.576L316.826 291.303C317.664 291.363 318.482 291.587 319.233 291.964C319.984 292.341 320.653 292.863 321.201 293.499C321.75 294.135 322.167 294.873 322.43 295.672C322.692 296.47 322.794 297.312 322.73 298.15Z" fill="white"/>
<path opacity="0.2" d="M298.801 289.889V290.023L297.555 289.922C296.372 289.836 295.204 290.22 294.304 290.992C293.404 291.763 292.846 292.86 292.751 294.042L284.984 393.193C284.913 394.188 285.176 395.179 285.731 396.008C286.286 396.837 287.101 397.458 288.048 397.772L273.581 396.65C272.401 396.552 271.307 395.993 270.538 395.093C269.769 394.194 269.386 393.026 269.473 391.846L277.228 292.695C277.323 291.513 277.881 290.417 278.781 289.645C279.681 288.873 280.85 288.489 282.032 288.576L298.801 289.889Z" fill="black"/>
<path opacity="0.2" d="M298.506 293.364L297.992 293.324C297.318 293.271 296.729 293.774 296.676 294.448L289.06 391.651C289.008 392.325 289.511 392.914 290.184 392.967L290.699 393.007C291.373 393.06 291.962 392.556 292.014 391.883L299.63 294.679C299.683 294.006 299.18 293.417 298.506 293.364Z" fill="black"/>
<path opacity="0.2" d="M305.475 294.388L304.961 294.348C304.287 294.295 303.698 294.798 303.645 295.472L296.029 392.675C295.977 393.349 296.48 393.938 297.154 393.991L297.668 394.031C298.342 394.084 298.931 393.58 298.983 392.907L306.599 295.703C306.652 295.03 306.149 294.441 305.475 294.388Z" fill="black"/>
<path opacity="0.2" d="M312.448 294.807L311.933 294.767C311.259 294.714 310.67 295.217 310.618 295.891L303.002 393.094C302.949 393.768 303.452 394.357 304.126 394.409L304.641 394.45C305.314 394.503 305.903 393.999 305.956 393.326L313.572 296.122C313.625 295.449 313.121 294.86 312.448 294.807Z" fill="black"/>
<path opacity="0.2" d="M319.399 295.215L318.884 295.174C318.21 295.121 317.621 295.625 317.569 296.298L309.953 393.502C309.9 394.175 310.403 394.764 311.077 394.817L311.591 394.857C312.265 394.91 312.854 394.407 312.907 393.733L320.523 296.53C320.575 295.856 320.072 295.267 319.399 295.215Z" fill="black"/>
</svg>
