<svg width="88" height="62" viewBox="0 0 88 62" fill="none" xmlns="http://www.w3.org/2000/svg">
<path fill-rule="evenodd" clip-rule="evenodd" d="M54.0402 0.549924C43.8294 1.8504 30.2075 6.19631 28.4307 8.72018C27.2731 10.3651 27.1963 12.8902 28.3045 12.8902C28.7531 12.8902 31.5869 11.9005 34.6013 10.6908C44.351 6.77942 53.6584 4.70499 61.9569 4.59496C68.4761 4.50793 69.4363 4.63661 71.0156 5.80343C76.2022 9.63711 70.8001 13.817 52.7907 19.9048C39.836 24.2836 40.2565 24.4757 46.6807 17.1155C53.3411 9.48356 54.6786 7.56952 53.7497 6.99761C53.3804 6.77071 52.1247 6.89877 50.9583 7.2817C49.4208 7.78648 47.1199 9.99455 42.5893 15.3115C35.8577 23.2126 33.7329 24.7014 29.1904 24.7014C25.1359 24.7014 22.4907 25.3516 22.4907 26.3487C22.4907 27.3944 24.9997 28.4313 27.5292 28.4313C28.7425 28.4313 29.3629 28.7464 29.3629 29.3637C29.3629 30.5641 31.7812 30.5523 33.3868 29.3438C34.054 28.8422 35.1786 28.4275 35.8858 28.4232C36.5936 28.4188 39.4212 27.684 42.1701 26.7901C48.976 24.5777 62.1912 23.9896 65.5979 25.7482C66.888 26.414 67.8632 27.4254 67.9763 28.2143C68.4317 31.394 61.4383 36.282 53.103 38.6094C46.6919 40.3998 37.1678 41.4702 33.2662 40.8399C28.9899 40.1486 27.871 38.9998 28.4457 35.891C28.6669 34.6943 28.8937 33.4423 28.9493 33.1085C29.0049 32.7747 28.422 32.406 27.6542 32.2892C25.4051 31.9473 23.1154 34.8901 23.1154 38.1227C23.1154 43.8617 27.7392 45.9821 38.4216 45.1423C53.6459 43.945 70.687 37.4662 73.3609 31.859C74.8159 28.8086 74.5748 26.8709 72.4388 24.4502C69.8874 21.559 67.0979 20.7316 61.2778 21.1412L56.5391 21.4744L62.7865 19.4659C66.2226 18.3619 70.4652 16.7276 72.2139 15.8355C75.903 13.9538 79.3434 10.3452 79.3397 8.3615C79.3366 6.34551 77.1693 3.14342 75.0802 2.0686C71.145 0.0439069 62.7647 -0.560953 54.0402 0.549924ZM0 51.1212C0 51.7727 0.659727 52.0537 2.1866 52.0537C4.67807 52.0537 4.75116 52.3241 3.42921 56.6595C1.95607 61.4921 2.10288 62 4.97357 62C7.36008 62 7.47379 61.9055 8.14163 59.358C10.0952 51.9107 9.95901 52.1327 12.6916 51.93C14.0761 51.8268 15.3249 51.3935 15.4661 50.9658C15.6623 50.3715 13.8711 50.1888 7.86112 50.1888C1.29009 50.1888 0 50.3417 0 51.1212ZM16.5719 50.9658C16.0171 52.6455 13.7443 61.1713 13.7443 61.5736C13.7443 61.8079 15.0238 62 16.5881 62C19.1864 62 19.4882 61.839 20.0854 60.1351C20.4447 59.1094 20.9395 58.2701 21.1856 58.2701C21.4311 58.2701 22.4401 59.1094 23.4278 60.1351C25.044 61.8141 25.6094 62 29.0911 62C31.7662 62 33.1981 61.7128 33.736 61.0675C34.2521 60.449 35.6515 60.1351 37.8931 60.1351C40.3202 60.1351 41.3735 60.3974 41.6315 61.0675C41.8777 61.7047 42.8785 62 44.7909 62H47.5903L47.1543 59.4326C46.9143 58.0209 46.2571 55.433 45.6936 53.6824C44.8889 51.1822 44.3542 50.4555 43.1996 50.2926C40.3215 49.8873 38.8845 50.8483 34.9805 55.7898L31.0253 60.7965L28.9168 58.7625L26.8077 56.7291L28.605 56.266C30.846 55.6878 32.759 53.6569 32.266 52.3782C31.6569 50.7992 29.003 50.1888 22.7431 50.1888C18.5648 50.1888 16.7537 50.4169 16.5719 50.9658ZM50.2423 55.4815C51.8311 61.4014 51.7811 61.3087 53.4541 61.4635C56.6659 61.76 57.45 61.2466 61.6045 56.1236C63.9479 53.2336 65.9327 50.9366 66.0158 51.0187C66.0983 51.1013 65.6272 53.2529 64.9688 55.8003C64.1635 58.9166 63.9779 60.6374 64.4021 61.0601C64.7488 61.4063 67.6139 61.6892 70.7695 61.6892C75.7349 61.6892 76.5352 61.5431 76.7208 60.6013C76.9057 59.6626 76.4222 59.5134 73.1991 59.5134C69.7712 59.5134 69.49 59.4109 69.7899 58.2701C70.0735 57.1903 70.642 57.0269 74.105 57.0269C77.2331 57.0269 78.0927 56.8261 78.0927 56.0944C78.0927 55.382 77.3062 55.1619 74.761 55.1619C70.9563 55.1619 70.3878 54.8455 71.2643 53.2156C71.7653 52.2837 72.6143 52.0537 75.5488 52.0537C78.2533 52.0537 79.3041 51.8063 79.5746 51.1051C79.892 50.2814 78.838 50.1683 71.5529 50.2472L63.1651 50.338L60.2732 54.0007C58.6826 56.0154 57.1695 57.5329 56.9096 57.3737C56.6503 57.214 56.0893 55.5324 55.6632 53.6364L54.8879 50.1888H51.8548H48.8223L50.2423 55.4815ZM81.2739 52.5199C79.5808 58.9316 79.2191 60.8413 79.6221 61.2428C79.8645 61.4834 81.7912 61.683 83.9041 61.6848C87.0659 61.6886 87.7843 61.4965 87.963 60.6013C88.1261 59.7851 87.7681 59.5134 86.5305 59.5134C85.2547 59.5134 84.9524 59.2666 85.1979 58.4256C85.3722 57.8269 85.8289 56.1311 86.2119 54.6565C86.5948 53.1826 87.0634 51.5738 87.2527 51.0821C87.5213 50.3858 86.9684 50.1888 84.7437 50.1888C81.9711 50.1888 81.8718 50.2559 81.2739 52.5199ZM25.9855 52.7698C26.5153 53.6234 24.5923 55.1619 22.9961 55.1619C21.8884 55.1619 21.4061 53.3405 22.2827 52.4683C22.9636 51.7901 25.5057 51.9971 25.9855 52.7698ZM40.5645 57.1823C40.5982 58.0221 40.1028 58.2701 38.3898 58.2701H36.1713L37.89 56.0285C39.4068 54.0498 39.6617 53.9217 40.0641 54.9406C40.3152 55.5753 40.5401 56.5836 40.5645 57.1823Z" fill="#F6F6F6"/>
</svg>
