<svg width="520" height="483" viewBox="0 0 520 483" fill="none" xmlns="http://www.w3.org/2000/svg">
<path d="M76.9776 25.9037C74.5752 24.4355 71.8108 23.668 68.996 23.6879C65.508 23.6831 62.1234 24.873 59.4047 27.0598C56.686 29.2466 54.7968 32.2987 54.0512 35.7089C52.6503 34.3473 50.8805 33.4277 48.9617 33.0645C47.0429 32.7012 45.0598 32.9103 43.2588 33.6658C41.4577 34.4213 39.9183 35.6898 38.8316 37.3137C37.745 38.9376 37.1592 40.8452 37.147 42.7996C37.147 42.9215 37.147 43.0433 37.147 43.1652H118.978" stroke="#B2B2B2" stroke-linecap="round" stroke-linejoin="round"/>
<path d="M129.329 43.1649H180.318C179.843 42.3781 179.207 41.7004 178.453 41.1762C177.698 40.6519 176.842 40.2929 175.939 40.1225C175.036 39.952 174.108 39.9741 173.214 40.1871C172.321 40.4002 171.482 40.7995 170.753 41.3589C170.051 39.3355 168.737 37.581 166.993 36.3383C165.25 35.0956 163.163 34.4264 161.023 34.4233C159.248 34.4215 157.505 34.8837 155.964 35.7639C155.523 30.9704 153.383 26.4931 149.929 23.142C146.476 19.791 141.939 17.7877 137.138 17.4945C132.337 17.2013 127.59 18.6376 123.755 21.5436C119.921 24.4496 117.252 28.6332 116.233 33.3376C114.577 31.7036 112.516 30.5407 110.262 29.9685C108.009 29.3963 105.643 29.4356 103.409 30.0822C101.176 30.7288 99.1546 31.9594 97.5539 33.6474C95.9533 35.3354 94.831 37.4198 94.3026 39.686C93.1662 38.16 91.5129 37.1009 89.6523 36.7073C87.7918 36.3137 85.8517 36.6125 84.1955 37.5477C83.9858 34.9993 83.1366 32.5451 81.7268 30.4126" stroke="#B2B2B2" stroke-linecap="round" stroke-linejoin="round"/>
<path d="M357.375 259.665H476.933C476.458 258.878 475.823 258.2 475.068 257.676C474.313 257.152 473.457 256.793 472.554 256.622C471.652 256.452 470.723 256.474 469.83 256.687C468.936 256.9 468.098 257.3 467.369 257.859C466.876 256.432 466.075 255.131 465.024 254.047C463.973 252.964 462.696 252.125 461.285 251.591C459.874 251.056 458.363 250.838 456.858 250.952C455.354 251.067 453.893 251.511 452.579 252.253C452.123 247.246 449.814 242.59 446.105 239.2C442.396 235.81 437.554 233.929 432.531 233.928C431.102 233.926 429.676 234.078 428.28 234.382" stroke="#B2B2B2" stroke-linecap="round" stroke-linejoin="round"/>
<path d="M422.313 236.697C419.907 238.11 417.821 240.008 416.186 242.269C414.551 244.531 413.403 247.108 412.815 249.837C411.159 248.203 409.098 247.04 406.844 246.468C404.591 245.896 402.225 245.935 399.992 246.582C397.758 247.229 395.737 248.459 394.136 250.147C392.535 251.835 391.413 253.919 390.885 256.186C389.758 254.651 388.106 253.584 386.244 253.19C384.382 252.796 382.44 253.101 380.789 254.047C380.455 250.41 378.832 247.011 376.212 244.468C373.592 241.925 370.148 240.404 366.505 240.182C362.862 239.96 359.259 241.05 356.35 243.256C353.441 245.462 351.417 248.638 350.644 252.208C349.244 250.847 347.474 249.927 345.555 249.564C343.636 249.201 341.653 249.41 339.852 250.165C338.051 250.921 336.512 252.189 335.425 253.813C334.338 255.437 333.752 257.345 333.74 259.299C333.74 259.421 333.74 259.543 333.74 259.665H346.305" stroke="#B2B2B2" stroke-linecap="round" stroke-linejoin="round"/>
<path d="M512.358 331.945H4.23511V343.867H512.358V331.945Z" fill="#B2B2B2"/>
<path d="M379.737 337.873V4.01074" stroke="#B2B2B2" stroke-width="2" stroke-linecap="round" stroke-linejoin="round"/>
<path d="M185.41 337.873V5.3623" stroke="#B2B2B2" stroke-width="2" stroke-linecap="round" stroke-linejoin="round"/>
<path d="M3.5708 214.517H512.369" stroke="#B2B2B2" stroke-width="2" stroke-linecap="round" stroke-linejoin="round"/>
<path d="M6.44922 80.5684H519" stroke="#B2B2B2" stroke-width="2" stroke-linecap="round" stroke-linejoin="round"/>
<path d="M254.122 150.579L249.097 153.681" stroke="#B2B2B2" stroke-width="0.5" stroke-linecap="round" stroke-linejoin="round"/>
<path d="M338.865 98.3174L260.876 146.412" stroke="#B2B2B2" stroke-width="0.5" stroke-linecap="round" stroke-linejoin="round"/>
<path d="M349.15 101.564L286.669 140.098" stroke="#B2B2B2" stroke-width="0.5" stroke-linecap="round" stroke-linejoin="round"/>
<path d="M376.438 84.7344L357.574 96.3787" stroke="#B2B2B2" stroke-width="0.5" stroke-linecap="round" stroke-linejoin="round"/>
<g opacity="0.3">
<path d="M49.3679 316.512L44.3425 319.614" stroke="black" stroke-width="0.5" stroke-linecap="round" stroke-linejoin="round"/>
<path d="M134.111 264.251L56.1323 312.346" stroke="#B2B2B2" stroke-width="0.5" stroke-linecap="round" stroke-linejoin="round"/>
<path d="M144.395 267.497L81.926 306.042" stroke="#B2B2B2" stroke-width="0.5" stroke-linecap="round" stroke-linejoin="round"/>
<path d="M171.683 250.668L152.82 262.312" stroke="#B2B2B2" stroke-width="0.5" stroke-linecap="round" stroke-linejoin="round"/>
</g>
<path opacity="0.3" d="M335.023 320.512L329.998 323.614" stroke="black" stroke-width="0.5" stroke-linecap="round" stroke-linejoin="round"/>
<path d="M419.767 268.251L341.777 316.346" stroke="#B2B2B2" stroke-width="0.5" stroke-linecap="round" stroke-linejoin="round"/>
<path d="M430.051 271.497L367.582 310.031" stroke="#B2B2B2" stroke-width="0.5" stroke-linecap="round" stroke-linejoin="round"/>
<path d="M457.339 254.668L438.475 266.312" stroke="#B2B2B2" stroke-width="0.5" stroke-linecap="round" stroke-linejoin="round"/>
<g opacity="0.3">
<path d="M22.8437 156.539L17.8184 159.641" stroke="#B2B2B2" stroke-width="0.5" stroke-linecap="round" stroke-linejoin="round"/>
<path d="M107.587 104.278L29.5969 152.373" stroke="#B2B2B2" stroke-width="0.5" stroke-linecap="round" stroke-linejoin="round"/>
<path d="M117.871 107.524L55.4019 146.058" stroke="#B2B2B2" stroke-width="0.5" stroke-linecap="round" stroke-linejoin="round"/>
<path d="M145.159 90.6948L126.295 102.339" stroke="#B2B2B2" stroke-width="0.5" stroke-linecap="round" stroke-linejoin="round"/>
</g>
<path d="M488.778 456.233H499.195" stroke="#263238" stroke-linecap="round" stroke-linejoin="round"/>
<path d="M203.211 456.233H476.624" stroke="#263238" stroke-linecap="round" stroke-linejoin="round"/>
<path d="M9.63745 456.233H196.259" stroke="#263238" stroke-linecap="round" stroke-linejoin="round"/>
<path d="M435.409 274.6L450.044 414.941" stroke="#263238" stroke-width="2" stroke-linecap="round" stroke-linejoin="round"/>
<path d="M447.674 388.084L441.044 381.071" stroke="#263238" stroke-width="2" stroke-linecap="round" stroke-linejoin="round"/>
<path d="M443.059 383.176C443.045 382.103 442.803 381.045 442.349 380.073C441.894 379.1 441.238 378.236 440.424 377.537C438.719 376.019 429.752 372.241 428.911 375.399C427.981 378.844 437.158 385.592 443.059 383.176Z" fill="#66CBFF" stroke="#263238" stroke-linecap="round" stroke-linejoin="round"/>
<path d="M443.057 383.176L434.534 377.847" stroke="#263238" stroke-width="0.5" stroke-linecap="round" stroke-linejoin="round"/>
<path d="M449.346 404.038L442.715 397.036" stroke="#263238" stroke-width="2" stroke-linecap="round" stroke-linejoin="round"/>
<path d="M444.73 399.13C444.716 398.057 444.473 397 444.016 396.029C443.56 395.058 442.901 394.196 442.084 393.502C440.379 391.973 431.424 388.206 430.571 391.364C429.641 394.798 438.818 401.568 444.73 399.13Z" fill="#66CBFF" stroke="#263238" stroke-linecap="round" stroke-linejoin="round"/>
<path d="M444.729 399.131L436.195 393.812" stroke="#263238" stroke-width="0.5" stroke-linecap="round" stroke-linejoin="round"/>
<path d="M443.622 349.14L436.981 342.127" stroke="#263238" stroke-width="2" stroke-linecap="round" stroke-linejoin="round"/>
<path d="M438.996 344.221C438.985 343.149 438.745 342.091 438.29 341.12C437.836 340.149 437.178 339.287 436.361 338.593C434.656 337.075 425.7 333.297 424.848 336.454C423.918 339.889 433.095 346.636 438.996 344.221Z" fill="#66CBFF" stroke="#263238" stroke-linecap="round" stroke-linejoin="round"/>
<path d="M438.995 344.221L430.472 338.903" stroke="#263238" stroke-width="0.5" stroke-linecap="round" stroke-linejoin="round"/>
<path d="M445.283 365.094L438.653 358.081" stroke="#263238" stroke-width="2" stroke-linecap="round" stroke-linejoin="round"/>
<path d="M440.668 360.187C440.654 359.114 440.411 358.056 439.954 357.086C439.498 356.115 438.839 355.253 438.022 354.558C436.317 353.03 427.361 349.263 426.509 352.42C425.579 355.855 434.756 362.602 440.668 360.187Z" fill="#66CBFF" stroke="#263238" stroke-linecap="round" stroke-linejoin="round"/>
<path d="M440.666 360.186L432.132 354.868" stroke="#263238" stroke-width="0.5" stroke-linecap="round" stroke-linejoin="round"/>
<path d="M440.91 323.204L434.28 316.19" stroke="#263238" stroke-width="2" stroke-linecap="round" stroke-linejoin="round"/>
<path d="M436.295 318.296C436.281 317.224 436.04 316.168 435.585 315.197C435.131 314.226 434.474 313.364 433.66 312.668C431.955 311.139 422.988 307.372 422.136 310.53C421.217 313.964 430.438 320.689 436.295 318.296Z" fill="#66CBFF" stroke="#263238" stroke-linecap="round" stroke-linejoin="round"/>
<path d="M436.294 318.296L427.759 312.978" stroke="#263238" stroke-width="0.5" stroke-linecap="round" stroke-linejoin="round"/>
<path d="M438.198 297.167L431.568 290.154" stroke="#263238" stroke-width="2" stroke-linecap="round" stroke-linejoin="round"/>
<path d="M433.582 292.259C433.569 291.185 433.325 290.126 432.869 289.153C432.413 288.18 431.754 287.317 430.937 286.62C429.243 285.102 420.276 281.324 419.423 284.493C418.505 287.927 427.671 294.674 433.582 292.259Z" fill="#66CBFF" stroke="#263238" stroke-linecap="round" stroke-linejoin="round"/>
<path d="M433.582 292.26L425.047 286.931" stroke="#263238" stroke-width="0.5" stroke-linecap="round" stroke-linejoin="round"/>
<path d="M446.568 378.644L451.604 370.401" stroke="#263238" stroke-width="2" stroke-linecap="round" stroke-linejoin="round"/>
<path d="M450.066 372.884C449.859 371.83 449.88 370.745 450.126 369.699C450.372 368.654 450.839 367.674 451.494 366.824C452.844 364.984 460.837 359.434 462.321 362.392C463.937 365.527 456.354 374.025 450.066 372.884Z" fill="#66CBFF" stroke="#263238" stroke-linecap="round" stroke-linejoin="round"/>
<path d="M450.066 372.884L457.748 365.527" stroke="#263238" stroke-width="0.5" stroke-linecap="round" stroke-linejoin="round"/>
<path d="M442.184 336.643L447.231 328.411" stroke="#263238" stroke-width="2" stroke-linecap="round" stroke-linejoin="round"/>
<path d="M445.693 330.882C445.483 329.829 445.501 328.743 445.745 327.698C445.989 326.653 446.455 325.672 447.11 324.822C448.461 322.982 456.453 317.432 457.937 320.39C459.553 323.525 451.97 332.023 445.693 330.882Z" fill="#66CBFF" stroke="#263238" stroke-linecap="round" stroke-linejoin="round"/>
<path d="M445.693 330.882L453.375 323.525" stroke="#263238" stroke-width="0.5" stroke-linecap="round" stroke-linejoin="round"/>
<path d="M440.258 318.185L445.305 309.953" stroke="#263238" stroke-width="2" stroke-linecap="round" stroke-linejoin="round"/>
<path d="M443.723 312.424C443.512 311.371 443.53 310.285 443.774 309.24C444.019 308.194 444.484 307.213 445.139 306.363C446.501 304.524 454.483 298.984 455.966 301.932C457.627 305.067 450.044 313.565 443.723 312.424Z" fill="#66CBFF" stroke="#263238" stroke-linecap="round" stroke-linejoin="round"/>
<path d="M443.767 312.424L451.449 305.067" stroke="#263238" stroke-width="0.5" stroke-linecap="round" stroke-linejoin="round"/>
<path d="M437.435 291.119L442.482 282.887" stroke="#263238" stroke-width="2" stroke-linecap="round" stroke-linejoin="round"/>
<path d="M440.944 285.357C440.734 284.306 440.752 283.222 440.996 282.179C441.241 281.135 441.706 280.156 442.361 279.308C443.723 277.469 451.704 271.918 453.188 274.876C454.793 278.001 447.221 286.498 440.944 285.357Z" fill="#66CBFF" stroke="#263238" stroke-linecap="round" stroke-linejoin="round"/>
<path d="M440.944 285.357L448.626 278.012" stroke="#263238" stroke-width="0.5" stroke-linecap="round" stroke-linejoin="round"/>
<path d="M435.276 273.824C435.07 272.77 435.09 271.685 435.337 270.639C435.583 269.594 436.049 268.614 436.704 267.764C438.055 265.924 446.048 260.385 447.531 263.332C449.147 266.467 441.564 274.965 435.276 273.824Z" fill="#66CBFF" stroke="#263238" stroke-linecap="round" stroke-linejoin="round"/>
<path d="M435.276 273.823L442.958 266.467" stroke="#263238" stroke-width="0.5" stroke-linecap="round" stroke-linejoin="round"/>
<path d="M435.73 274.156C434.663 274.254 433.586 274.122 432.574 273.768C431.562 273.415 430.638 272.848 429.863 272.106C428.169 270.566 423.498 262.035 426.542 260.861C429.874 259.564 437.523 268.007 435.73 274.156Z" fill="#66CBFF" stroke="#263238" stroke-linecap="round" stroke-linejoin="round"/>
<path d="M435.729 274.134L429.232 265.725" stroke="#263238" stroke-width="0.5" stroke-linecap="round" stroke-linejoin="round"/>
<path d="M474 293.933L459.453 434.274" stroke="#263238" stroke-width="2" stroke-linecap="round" stroke-linejoin="round"/>
<path d="M462.663 407.506L457.616 399.274" stroke="#263238" stroke-width="2" stroke-linecap="round" stroke-linejoin="round"/>
<path d="M459.155 401.745C459.365 400.693 459.347 399.61 459.102 398.566C458.858 397.522 458.392 396.543 457.738 395.695C456.376 393.856 448.383 388.316 446.9 391.264C445.295 394.399 452.878 402.897 459.155 401.745Z" fill="#66CBFF" stroke="#263238" stroke-linecap="round" stroke-linejoin="round"/>
<path d="M459.154 401.745L451.904 394.787" stroke="#263238" stroke-width="0.5" stroke-linecap="round" stroke-linejoin="round"/>
<path d="M466.704 368.563L461.656 360.331" stroke="#263238" stroke-width="2" stroke-linecap="round" stroke-linejoin="round"/>
<path d="M463.195 362.79C463.405 361.736 463.387 360.65 463.14 359.604C462.894 358.558 462.425 357.578 461.767 356.729C460.416 354.89 452.424 349.351 450.94 352.298C449.335 355.455 456.918 363.898 463.195 362.79Z" fill="#66CBFF" stroke="#263238" stroke-linecap="round" stroke-linejoin="round"/>
<path d="M463.194 362.801L455.944 355.832" stroke="#263238" stroke-width="0.5" stroke-linecap="round" stroke-linejoin="round"/>
<path d="M465.055 384.517L460.007 376.296" stroke="#263238" stroke-width="2" stroke-linecap="round" stroke-linejoin="round"/>
<path d="M461.546 378.766C461.752 377.713 461.732 376.627 461.485 375.582C461.239 374.537 460.773 373.556 460.118 372.706C458.767 370.867 450.774 365.327 449.291 368.274C447.675 371.41 455.269 379.908 461.546 378.766Z" fill="#66CBFF" stroke="#263238" stroke-linecap="round" stroke-linejoin="round"/>
<path d="M461.545 378.767L454.284 371.798" stroke="#263238" stroke-width="0.5" stroke-linecap="round" stroke-linejoin="round"/>
<path d="M469.394 342.626L464.346 334.405" stroke="#263238" stroke-width="2" stroke-linecap="round" stroke-linejoin="round"/>
<path d="M465.863 336.876C466.07 335.822 466.049 334.736 465.803 333.691C465.557 332.646 465.091 331.666 464.435 330.815C463.085 328.976 455.092 323.437 453.609 326.384C452.015 329.552 459.609 338.017 465.863 336.876Z" fill="#66CBFF" stroke="#263238" stroke-linecap="round" stroke-linejoin="round"/>
<path d="M465.885 336.876L458.635 329.907" stroke="#263238" stroke-width="0.5" stroke-linecap="round" stroke-linejoin="round"/>
<path d="M472.095 316.589L467.048 308.357" stroke="#263238" stroke-width="2" stroke-linecap="round" stroke-linejoin="round"/>
<path d="M468.586 310.829C468.793 309.777 468.772 308.693 468.526 307.649C468.28 306.606 467.813 305.628 467.158 304.779C465.808 302.929 457.815 297.401 456.332 300.348C454.715 303.483 462.31 311.981 468.586 310.829Z" fill="#66CBFF" stroke="#263238" stroke-linecap="round" stroke-linejoin="round"/>
<path d="M468.585 310.828L461.335 303.859" stroke="#263238" stroke-width="0.5" stroke-linecap="round" stroke-linejoin="round"/>
<path d="M463.516 398.033L470.146 391.02" stroke="#263238" stroke-width="2" stroke-linecap="round" stroke-linejoin="round"/>
<path d="M468.133 393.125C468.146 392.05 468.389 390.991 468.846 390.018C469.302 389.046 469.961 388.182 470.778 387.485C472.472 385.967 481.439 382.189 482.291 385.347C483.21 388.782 474.044 395.529 468.133 393.125Z" fill="#66CBFF" stroke="#263238" stroke-linecap="round" stroke-linejoin="round"/>
<path d="M468.133 393.126L477.165 387.52" stroke="#263238" stroke-width="0.5" stroke-linecap="round" stroke-linejoin="round"/>
<path d="M467.878 356.032L474.508 349.019" stroke="#263238" stroke-width="2" stroke-linecap="round" stroke-linejoin="round"/>
<path d="M472.505 351.124C472.516 350.05 472.756 348.99 473.211 348.017C473.665 347.045 474.323 346.181 475.14 345.484C476.845 343.966 485.801 340.188 486.653 343.346C487.572 346.781 478.395 353.528 472.505 351.124Z" fill="#66CBFF" stroke="#263238" stroke-linecap="round" stroke-linejoin="round"/>
<path d="M472.494 351.124L481.515 345.507" stroke="#263238" stroke-width="0.5" stroke-linecap="round" stroke-linejoin="round"/>
<path d="M469.793 337.574L476.423 330.561" stroke="#263238" stroke-width="2" stroke-linecap="round" stroke-linejoin="round"/>
<path d="M474.409 332.666C474.42 331.592 474.66 330.532 475.115 329.559C475.569 328.587 476.227 327.723 477.044 327.026C478.749 325.508 487.705 321.73 488.557 324.888C489.487 328.323 480.31 335.092 474.409 332.666Z" fill="#66CBFF" stroke="#263238" stroke-linecap="round" stroke-linejoin="round"/>
<path d="M474.409 332.666L483.431 327.049" stroke="#263238" stroke-width="0.5" stroke-linecap="round" stroke-linejoin="round"/>
<path d="M472.594 310.518L479.224 303.494" stroke="#263238" stroke-width="2" stroke-linecap="round" stroke-linejoin="round"/>
<path d="M477.21 305.599C477.223 304.527 477.465 303.471 477.919 302.5C478.374 301.529 479.03 300.667 479.845 299.971C481.549 298.442 490.505 294.664 491.358 297.821C492.288 301.256 483.121 308.014 477.21 305.599Z" fill="#66CBFF" stroke="#263238" stroke-linecap="round" stroke-linejoin="round"/>
<path d="M477.21 305.599L486.242 299.993" stroke="#263238" stroke-width="0.5" stroke-linecap="round" stroke-linejoin="round"/>
<path d="M474.044 293.135C474.057 292.063 474.299 291.006 474.754 290.036C475.208 289.065 475.864 288.203 476.679 287.507C478.384 285.978 487.34 282.2 488.192 285.368C489.111 288.803 479.956 295.55 474.044 293.135Z" fill="#66CBFF" stroke="#263238" stroke-linecap="round" stroke-linejoin="round"/>
<path d="M474.044 293.134L483.076 287.528" stroke="#263238" stroke-width="0.5" stroke-linecap="round" stroke-linejoin="round"/>
<path d="M474.409 293.545C473.344 293.42 472.319 293.067 471.402 292.511C470.485 291.955 469.699 291.208 469.096 290.321C467.756 288.471 464.945 279.164 468.166 278.643C471.675 278.078 477.431 287.917 474.409 293.545Z" fill="#66CBFF" stroke="#263238" stroke-linecap="round" stroke-linejoin="round"/>
<path d="M474.409 293.544L469.782 283.961" stroke="#263238" stroke-width="0.5" stroke-linecap="round" stroke-linejoin="round"/>
<path d="M457.328 236.774V414.253" stroke="#263238" stroke-width="2" stroke-linecap="round" stroke-linejoin="round"/>
<path d="M457.471 387.574L451.594 379.907" stroke="#263238" stroke-width="2" stroke-linecap="round" stroke-linejoin="round"/>
<path d="M453.387 382.201C453.485 381.133 453.352 380.056 452.999 379.043C452.646 378.03 452.08 377.105 451.339 376.329C449.812 374.645 441.287 369.958 440.114 373.005C438.83 376.329 447.254 383.996 453.387 382.201Z" fill="#66CBFF" stroke="#263238" stroke-linecap="round" stroke-linejoin="round"/>
<path d="M453.386 382.2L445.45 376.029" stroke="#263238" stroke-width="0.5" stroke-linecap="round" stroke-linejoin="round"/>
<path d="M457.471 354.215L451.594 346.56" stroke="#263238" stroke-width="2" stroke-linecap="round" stroke-linejoin="round"/>
<path d="M453.387 348.852C453.485 347.784 453.353 346.707 453 345.694C452.647 344.681 452.08 343.756 451.339 342.98C449.812 341.285 441.287 336.599 440.114 339.657C438.83 342.98 447.254 350.603 453.387 348.852Z" fill="#66CBFF" stroke="#263238" stroke-linecap="round" stroke-linejoin="round"/>
<path d="M453.386 348.852L445.45 342.67" stroke="#263238" stroke-width="0.5" stroke-linecap="round" stroke-linejoin="round"/>
<path d="M457.471 315.06L451.594 307.394" stroke="#263238" stroke-width="2" stroke-linecap="round" stroke-linejoin="round"/>
<path d="M453.387 309.698C453.485 308.628 453.353 307.55 452.999 306.535C452.646 305.52 452.08 304.593 451.339 303.815C449.812 302.131 441.287 297.445 440.114 300.491C438.83 303.815 447.254 311.482 453.387 309.698Z" fill="#66CBFF" stroke="#263238" stroke-linecap="round" stroke-linejoin="round"/>
<path d="M453.386 309.698L445.45 303.516" stroke="#263238" stroke-width="0.5" stroke-linecap="round" stroke-linejoin="round"/>
<path d="M457.471 288.991L451.594 281.324" stroke="#263238" stroke-width="2" stroke-linecap="round" stroke-linejoin="round"/>
<path d="M453.387 283.629C453.485 282.56 453.353 281.483 453 280.47C452.647 279.457 452.08 278.532 451.339 277.757C449.812 276.062 441.287 271.375 440.114 274.433C438.83 277.757 447.254 285.413 453.387 283.629Z" fill="#66CBFF" stroke="#263238" stroke-linecap="round" stroke-linejoin="round"/>
<path d="M453.386 283.629L445.45 277.446" stroke="#263238" stroke-width="0.5" stroke-linecap="round" stroke-linejoin="round"/>
<path d="M457.471 262.811L451.594 255.144" stroke="#263238" stroke-width="2" stroke-linecap="round" stroke-linejoin="round"/>
<path d="M453.387 257.448C453.485 256.378 453.353 255.3 452.999 254.285C452.646 253.27 452.08 252.343 451.339 251.565C449.812 249.881 441.287 245.195 440.114 248.241C438.83 251.565 447.254 259.232 453.387 257.448Z" fill="#66CBFF" stroke="#263238" stroke-linecap="round" stroke-linejoin="round"/>
<path d="M453.386 257.448L445.45 251.266" stroke="#263238" stroke-width="0.5" stroke-linecap="round" stroke-linejoin="round"/>
<path d="M457.339 397.757L463.205 390.09" stroke="#263238" stroke-width="2" stroke-linecap="round" stroke-linejoin="round"/>
<path d="M461.435 392.394C461.337 391.324 461.468 390.247 461.819 389.232C462.17 388.217 462.734 387.29 463.472 386.511C465.011 384.826 473.535 380.14 474.708 383.187C475.97 386.511 467.546 394.177 461.435 392.394Z" fill="#66CBFF" stroke="#263238" stroke-linecap="round" stroke-linejoin="round"/>
<path d="M461.424 392.394L469.825 385.88" stroke="#263238" stroke-width="0.5" stroke-linecap="round" stroke-linejoin="round"/>
<path d="M457.339 344.709L463.205 337.042" stroke="#263238" stroke-width="2" stroke-linecap="round" stroke-linejoin="round"/>
<path d="M461.435 339.347C461.337 338.279 461.468 337.203 461.819 336.19C462.17 335.177 462.734 334.252 463.472 333.475C465.011 331.779 473.535 327.093 474.708 330.151C475.97 333.475 467.546 341.13 461.435 339.347Z" fill="#66CBFF" stroke="#263238" stroke-linecap="round" stroke-linejoin="round"/>
<path d="M461.424 339.347L469.825 332.832" stroke="#263238" stroke-width="0.5" stroke-linecap="round" stroke-linejoin="round"/>
<path d="M457.339 318.528L463.205 310.861" stroke="#263238" stroke-width="2" stroke-linecap="round" stroke-linejoin="round"/>
<path d="M461.435 313.166C461.337 312.097 461.468 311.019 461.819 310.004C462.17 308.99 462.734 308.062 463.472 307.283C465.011 305.599 473.535 300.912 474.708 303.959C475.97 307.283 467.546 314.95 461.435 313.166Z" fill="#66CBFF" stroke="#263238" stroke-linecap="round" stroke-linejoin="round"/>
<path d="M461.424 313.166L469.825 306.651" stroke="#263238" stroke-width="0.5" stroke-linecap="round" stroke-linejoin="round"/>
<path d="M457.339 283.928L463.205 276.261" stroke="#263238" stroke-width="2" stroke-linecap="round" stroke-linejoin="round"/>
<path d="M461.435 278.588C461.337 277.521 461.468 276.444 461.819 275.432C462.17 274.419 462.734 273.493 463.472 272.716C465.011 271.021 473.535 266.345 474.708 269.392C475.97 272.683 467.546 280.35 461.435 278.588Z" fill="#66CBFF" stroke="#263238" stroke-linecap="round" stroke-linejoin="round"/>
<path d="M461.424 278.554L469.825 272.051" stroke="#263238" stroke-width="0.5" stroke-linecap="round" stroke-linejoin="round"/>
<path d="M457.339 256.717L463.205 249.05" stroke="#263238" stroke-width="2" stroke-linecap="round" stroke-linejoin="round"/>
<path d="M461.435 251.355C461.337 250.286 461.468 249.208 461.819 248.193C462.17 247.179 462.734 246.251 463.472 245.472C465.011 243.788 473.535 239.101 474.708 242.148C475.97 245.472 467.546 253.106 461.435 251.355Z" fill="#66CBFF" stroke="#263238" stroke-linecap="round" stroke-linejoin="round"/>
<path d="M461.424 251.355L469.825 244.84" stroke="#263238" stroke-width="0.5" stroke-linecap="round" stroke-linejoin="round"/>
<path d="M457.007 239.29C456.909 238.22 457.042 237.141 457.395 236.126C457.748 235.112 458.314 234.184 459.055 233.407C460.583 231.722 469.107 227.036 470.28 230.083C471.542 233.407 463.118 241.073 457.007 239.29Z" fill="#66CBFF" stroke="#263238" stroke-linecap="round" stroke-linejoin="round"/>
<path d="M456.985 239.29L465.386 232.775" stroke="#263238" stroke-width="0.5" stroke-linecap="round" stroke-linejoin="round"/>
<path d="M457.394 239.644C456.322 239.63 455.266 239.387 454.296 238.93C453.326 238.473 452.465 237.814 451.771 236.996C450.254 235.29 446.49 226.316 449.645 225.474C453.088 224.554 459.819 233.739 457.394 239.644Z" fill="#66CBFF" stroke="#263238" stroke-linecap="round" stroke-linejoin="round"/>
<path d="M457.394 239.644L451.804 230.604" stroke="#263238" stroke-width="0.5" stroke-linecap="round" stroke-linejoin="round"/>
<path d="M464.623 460.287H445.837L443.49 412.812H466.97L464.623 460.287Z" fill="#263238" stroke="#263238" stroke-linecap="round" stroke-linejoin="round"/>
<path d="M502.66 0H200.731V180.503H502.66V0Z" fill="#263238"/>
<path opacity="0.1" d="M502.66 0H200.731V180.503H502.66V0Z" fill="white"/>
<path d="M502.66 0H200.731V42.8657H502.66V0Z" fill="#263238"/>
<path d="M281.976 83.1496V71.2173H283.304V81.942H286.713V83.1496H281.976Z" fill="white"/>
<path d="M287.633 74.0982C287.633 72.2701 288.54 71.0957 290.367 71.0957C292.193 71.0957 293.101 72.2701 293.101 74.0982V80.2693C293.101 82.0753 292.204 83.2718 290.367 83.2718C288.529 83.2718 287.633 82.0753 287.633 80.2693V74.0982ZM288.95 80.3358C288.95 81.4437 289.404 82.0642 290.367 82.0642C291.33 82.0642 291.772 81.4327 291.772 80.3358V74.0317C291.772 72.9238 291.33 72.3033 290.367 72.3033C289.404 72.3033 288.95 72.957 288.95 74.0317V80.3358Z" fill="white"/>
<path d="M295.525 83.1496H294.33V71.2173H296.012L298.78 79.848V71.2173H299.953V83.1496H298.569L295.525 73.4996V83.1496Z" fill="white"/>
<path d="M304.116 71.2173C305.975 71.2173 306.828 72.3252 306.828 74.1865V80.2026C306.828 82.0306 305.975 83.1496 304.116 83.1496H301.315V71.2173H304.116ZM304.116 81.942C305.068 81.942 305.533 81.3437 305.533 80.258V74.12C305.533 73.0121 305.068 72.4249 304.105 72.4249H302.666V81.942H304.116Z" fill="white"/>
<path d="M307.969 74.0982C307.969 72.2701 308.865 71.0957 310.692 71.0957C312.518 71.0957 313.437 72.2701 313.437 74.0982V80.2693C313.437 82.0753 312.529 83.2718 310.692 83.2718C308.854 83.2718 307.969 82.0753 307.969 80.2693V74.0982ZM309.275 80.3358C309.275 81.4437 309.74 82.0642 310.692 82.0642C311.644 82.0642 312.109 81.4327 312.109 80.3358V74.0317C312.109 72.9238 311.666 72.3033 310.692 72.3033C309.718 72.3033 309.275 72.957 309.275 74.0317V80.3358Z" fill="white"/>
<path d="M315.872 83.1496H314.677V71.2173H316.415L319.171 79.848V71.2173H320.344V83.1496H318.972L315.917 73.4996L315.872 83.1496Z" fill="white"/>
<path d="M434.678 74.0982V75.2061H433.416V74.0982C433.416 72.9903 432.984 72.3698 432.01 72.3698C431.036 72.3698 430.615 73.0235 430.615 74.0982V80.4023C430.615 81.5102 431.058 82.1306 432.01 82.1306C432.962 82.1306 433.416 81.477 433.416 80.4023V78.8512H434.678V80.2693C434.678 82.0753 433.825 83.2718 431.977 83.2718C430.128 83.2718 429.331 82.0753 429.331 80.2693V74.0982C429.331 72.2923 430.184 71.0957 431.999 71.0957C433.814 71.0957 434.678 72.2923 434.678 74.0982Z" fill="#66CBFF"/>
<path d="M437.224 80.7454L436.77 83.1496H435.542L437.822 71.2173H439.748L442.039 83.1496H440.7L440.246 80.7454H437.224ZM437.401 79.6375H440.058L438.708 72.7462L437.401 79.6375Z" fill="#66CBFF"/>
<path d="M444.254 83.1496H443.058V71.2173H444.741L447.508 79.848V71.2173H448.681V83.1496H447.298L444.254 73.4996V83.1496Z" fill="#66CBFF"/>
<path d="M455.312 74.0982V75.2061H454.05V74.0982C454.05 72.9903 453.63 72.3698 452.656 72.3698C451.682 72.3698 451.261 73.0235 451.261 74.0982V80.4023C451.261 81.5102 451.704 82.1306 452.656 82.1306C453.608 82.1306 454.05 81.477 454.05 80.4023V78.8512H455.312V80.2693C455.312 82.0753 454.46 83.2718 452.623 83.2718C450.785 83.2718 449.944 82.0753 449.944 80.2693V74.0982C449.944 72.2923 450.796 71.0957 452.623 71.0957C454.449 71.0957 455.312 72.2923 455.312 74.0982Z" fill="#66CBFF"/>
<path d="M460.77 76.5021V77.6987H457.848V81.942H461.434V83.1496H456.52V71.2173H461.434V72.4249H457.848V76.5021H460.77Z" fill="#66CBFF"/>
<path d="M462.664 83.1496V71.2173H463.992V81.942H467.401V83.1496H462.664Z" fill="#66CBFF"/>
<path d="M468.398 83.1496V71.2173H469.726V81.942H473.135V83.1496H468.398Z" fill="#66CBFF"/>
<path d="M478.394 76.5021V77.6987H475.472V81.942H479.058V83.1496H474.144V71.2173H479.058V72.4249H475.472V76.5021H478.394Z" fill="#66CBFF"/>
<path d="M483.077 71.2173C484.937 71.2173 485.789 72.3252 485.789 74.1865V80.2026C485.789 82.0306 484.937 83.1496 483.077 83.1496H480.254V71.2173H483.077ZM483.077 81.942C484.029 81.942 484.483 81.3437 484.483 80.258V74.12C484.483 73.0121 484.029 72.4249 483.055 72.4249H481.627V81.942H483.077Z" fill="#66CBFF"/>
<path d="M283.204 103.702H282.009V91.77H283.702L286.459 100.401V91.77H287.632V103.702H286.193L283.204 94.0524V103.702Z" fill="white"/>
<path d="M293.167 97.0548V98.2514H290.245V102.495H293.831V103.702H288.917V91.77H293.831V92.9777H290.245V97.0548H293.167Z" fill="white"/>
<path d="M298.249 103.702H296.422L294.784 91.77H296.079L297.485 101.93L298.813 91.7811H300.119L301.436 101.952L302.787 91.77H303.894L302.278 103.702H300.518L299.411 95.6034L298.249 103.702Z" fill="white"/>
<path d="M309.773 99.4258L307.249 91.77H308.666L310.514 97.631L312.396 91.77H313.658L311.112 99.4258V103.702H309.773V99.4258Z" fill="white"/>
<path d="M314.201 94.6724C314.201 92.8443 315.097 91.6699 316.924 91.6699C318.75 91.6699 319.735 92.8222 319.735 94.6724V100.844C319.735 102.649 318.828 103.846 316.99 103.846C315.153 103.846 314.267 102.649 314.267 100.844L314.201 94.6724ZM315.507 100.91C315.507 102.018 315.972 102.638 316.924 102.638C317.876 102.638 318.34 102.007 318.34 100.91V94.6059C318.34 93.498 317.898 92.8776 316.924 92.8776C315.95 92.8776 315.507 93.5312 315.507 94.6059V100.91Z" fill="white"/>
<path d="M323.61 91.77C325.481 91.77 326.267 92.7228 326.267 94.4955V95.4705C326.267 96.7779 325.813 97.5977 324.783 97.919C325.89 98.2514 326.289 99.1377 326.289 100.412V102.273C326.247 102.761 326.327 103.252 326.521 103.702H325.182C324.992 103.244 324.916 102.746 324.961 102.251V100.379C324.961 99.0269 324.33 98.6059 323.223 98.6059H322.282V103.702H320.954V91.77H323.61ZM323.267 97.3983C324.374 97.3983 324.961 97.0548 324.961 95.7586V94.6506C324.961 93.5427 324.562 93.0109 323.577 93.0109H322.282V97.4426L323.267 97.3983Z" fill="white"/>
<path d="M329.699 98.5173L328.991 99.7028V103.702H327.662V91.77H328.991V97.5312L332.167 91.77H333.507L330.496 97.2099L333.617 103.702H332.245L329.699 98.5173Z" fill="white"/>
<path d="M434.678 94.6724V95.7803H433.416V94.6724C433.416 93.5645 432.984 92.944 432.01 92.944C431.036 92.944 430.615 93.5977 430.615 94.6724V100.977C430.615 102.084 431.058 102.705 432.01 102.705C432.962 102.705 433.416 102.051 433.416 100.977V99.4254H434.678V100.91C434.678 102.716 433.825 103.913 431.977 103.913C430.128 103.913 429.309 102.716 429.309 100.91V94.6724C429.309 92.8665 430.161 91.6699 431.977 91.6699C433.792 91.6699 434.678 92.8443 434.678 94.6724Z" fill="#66CBFF"/>
<path d="M437.224 101.32L436.77 103.724H435.542L437.822 91.792H439.748L442.039 103.724H440.7L440.246 101.32H437.224ZM437.401 100.212H440.058L438.708 93.3209L437.401 100.212Z" fill="#66CBFF"/>
<path d="M444.254 103.702H443.058V91.77H444.741L447.508 100.401V91.77H448.681V103.702H447.298L444.254 94.0524V103.702Z" fill="#66CBFF"/>
<path d="M455.312 94.6724V95.7803H454.05V94.6724C454.05 93.5645 453.63 92.944 452.656 92.944C451.682 92.944 451.261 93.5977 451.261 94.6724V100.977C451.261 102.084 451.704 102.705 452.656 102.705C453.608 102.705 454.05 102.051 454.05 100.977V99.4254H455.312V100.91C455.312 102.716 454.46 103.913 452.623 103.913C450.785 103.913 449.944 102.716 449.944 100.91V94.6724C449.944 92.8665 450.796 91.6699 452.623 91.6699C454.449 91.6699 455.312 92.8443 455.312 94.6724Z" fill="#66CBFF"/>
<path d="M460.77 97.0548V98.2514H457.848V102.495H461.434V103.702H456.52V91.77H461.434V92.9777H457.848V97.0548H460.77Z" fill="#66CBFF"/>
<path d="M462.664 103.702V91.77H463.992V102.495H467.401V103.702H462.664Z" fill="#66CBFF"/>
<path d="M468.398 103.702V91.77H469.726V102.495H473.135V103.702H468.398Z" fill="#66CBFF"/>
<path d="M478.394 97.0548V98.2514H475.472V102.495H479.058V103.702H474.144V91.77H479.058V92.9777H475.472V97.0548H478.394Z" fill="#66CBFF"/>
<path d="M483.077 91.77C484.937 91.77 485.789 92.8779 485.789 94.7393V100.755C485.789 102.583 484.937 103.702 483.077 103.702H480.254V91.77H483.077ZM483.077 102.495C484.029 102.495 484.483 101.896 484.483 100.811V94.6728C484.483 93.5649 484.029 92.9887 483.055 92.9887H481.627V102.506L483.077 102.495Z" fill="#66CBFF"/>
<path d="M284.577 112.311C286.459 112.311 287.255 113.418 287.255 115.235V116.665C287.255 118.559 286.37 119.545 284.477 119.545H283.304V124.254H281.976V112.311H284.577ZM284.477 118.349C285.462 118.349 285.938 117.894 285.938 116.753V115.169C285.938 114.061 285.551 113.529 284.577 113.529H283.304V118.349H284.477Z" fill="white"/>
<path d="M289.47 121.85L289.016 124.254H287.788L290.068 112.311H291.994L294.274 124.254H292.946L292.492 121.85H289.47ZM289.647 120.742H292.304L290.953 113.817L289.647 120.742Z" fill="white"/>
<path d="M297.972 112.311C299.854 112.311 300.64 113.274 300.64 115.047V116.022C300.722 116.54 300.618 117.07 300.346 117.518C300.075 117.967 299.653 118.304 299.156 118.471C300.263 118.792 300.651 119.678 300.651 120.963V122.825C300.614 123.314 300.697 123.805 300.894 124.254H299.544C299.355 123.795 299.279 123.297 299.322 122.803V120.93C299.322 119.579 298.691 119.158 297.585 119.158H296.644V124.254H295.315V112.311H297.972ZM297.596 117.939C298.647 117.939 299.278 117.606 299.278 116.31V115.202C299.278 114.094 298.891 113.563 297.894 113.563H296.599V117.994L297.596 117.939Z" fill="white"/>
<path d="M303.363 112.311V124.254H302.024V112.311H303.363Z" fill="white"/>
<path d="M309.894 115.18V115.501H308.665V115.114C308.665 114.006 308.256 113.407 307.304 113.407C306.352 113.407 305.931 114.039 305.931 115.091C305.931 117.773 309.938 118.027 309.938 121.384C309.938 123.201 309.075 124.376 307.249 124.376C305.422 124.376 304.57 123.201 304.57 121.384V120.709H305.821V121.462C305.821 122.57 306.263 123.168 307.215 123.168C308.167 123.168 308.61 122.537 308.61 121.462C308.61 118.792 304.625 118.537 304.625 115.18C304.625 113.341 305.477 112.2 307.271 112.2C309.064 112.2 309.894 113.374 309.894 115.18Z" fill="white"/>
<path d="M434.678 115.202V116.31H433.416V115.202C433.416 114.094 432.984 113.485 432.01 113.485C431.036 113.485 430.615 114.127 430.615 115.202V121.517C430.615 122.625 431.058 123.246 432.01 123.246C432.962 123.246 433.416 122.592 433.416 121.517V119.966H434.678V121.451C434.678 123.257 433.825 124.453 431.977 124.453C430.128 124.453 429.331 123.179 429.331 121.373V115.202C429.331 113.385 430.184 112.2 431.999 112.2C433.814 112.2 434.678 113.385 434.678 115.202Z" fill="#66CBFF"/>
<path d="M437.224 121.85L436.77 124.254H435.542L437.822 112.311H439.748L442.039 124.254H440.7L440.246 121.85H437.224ZM437.401 120.742H440.058L438.708 113.851L437.401 120.742Z" fill="#66CBFF"/>
<path d="M444.254 124.254H443.058V112.311H444.741L447.508 120.941V112.311H448.681V124.254H447.298L444.254 114.615V124.254Z" fill="#66CBFF"/>
<path d="M455.312 115.202V116.31H454.05V115.202C454.05 114.094 453.63 113.485 452.656 113.485C451.682 113.485 451.261 114.128 451.261 115.202V121.517C451.261 122.625 451.704 123.246 452.656 123.246C453.608 123.246 454.05 122.592 454.05 121.517V119.966H455.312V121.451C455.312 123.257 454.46 124.453 452.623 124.453C450.785 124.453 449.944 123.257 449.944 121.451V115.28C449.944 113.463 450.796 112.277 452.623 112.277C454.449 112.277 455.312 113.385 455.312 115.202Z" fill="#66CBFF"/>
<path d="M460.77 117.606V118.792H457.848V123.046H461.434V124.254H456.52V112.311H461.434V113.507H457.848V117.584L460.77 117.606Z" fill="#66CBFF"/>
<path d="M462.664 124.254V112.311H463.992V123.046H467.401V124.254H462.664Z" fill="#66CBFF"/>
<path d="M468.398 124.254V112.311H469.726V123.046H473.135V124.254H468.398Z" fill="#66CBFF"/>
<path d="M478.394 117.606V118.792H475.472V123.046H479.058V124.254H474.144V112.311H479.058V113.507H475.472V117.584L478.394 117.606Z" fill="#66CBFF"/>
<path d="M483.077 112.311C484.937 112.311 485.789 113.418 485.789 115.28V121.263C485.789 123.08 484.937 124.21 483.077 124.21H480.254V112.311H483.077ZM483.077 123.046C484.029 123.046 484.483 122.448 484.483 121.351V115.213C484.483 114.105 484.029 113.529 483.055 113.529H481.627V123.046H483.077Z" fill="#66CBFF"/>
<path d="M286.37 144.784H285.086L283.116 135.289V144.806H281.954V132.862H283.813L285.772 142.402L287.665 132.862H289.525V144.806H288.263V135.2L286.37 144.784Z" fill="white"/>
<path d="M292.226 142.402L291.773 144.806H290.544L292.824 132.862H294.75L297.041 144.806H295.713L295.248 142.402H292.226ZM292.404 141.294H295.06L293.71 134.402L292.404 141.294Z" fill="white"/>
<path d="M300.917 132.862C302.776 132.862 303.628 133.97 303.628 135.832V141.859C303.628 143.676 302.776 144.806 300.917 144.806H298.127V132.862H300.917ZM300.917 143.598C301.869 143.598 302.322 143 302.322 141.903V135.765C302.322 134.657 301.869 134.081 300.894 134.081H299.467V143.598H300.917Z" fill="white"/>
<path d="M307.492 132.862C309.363 132.862 310.149 133.815 310.149 135.599V136.563C310.149 137.881 309.684 138.701 308.665 139.022C309.772 139.344 310.16 140.23 310.16 141.515V143.421C310.123 143.91 310.206 144.401 310.403 144.85H309.053C308.865 144.391 308.789 143.893 308.831 143.399V141.526C308.831 140.175 308.2 139.754 307.094 139.754H306.153V144.85H304.824V132.862H307.492ZM307.149 138.491C308.201 138.491 308.831 138.147 308.831 136.862V135.754C308.831 134.646 308.444 134.125 307.448 134.125H306.153V138.557L307.149 138.491Z" fill="white"/>
<path d="M312.872 132.862V144.806H311.544V132.862H312.872Z" fill="white"/>
<path d="M317.034 132.862C318.894 132.862 319.735 133.97 319.735 135.832V141.859C319.735 143.676 318.894 144.806 317.034 144.806H314.201V132.862H317.034ZM317.034 143.598C317.986 143.598 318.451 143 318.451 141.903V135.765C318.451 134.657 317.986 134.081 317.023 134.081H315.584V143.598H317.034Z" fill="white"/>
<path d="M434.678 135.743V136.851H433.416V135.743C433.416 134.635 432.984 134.026 432.01 134.026C431.036 134.026 430.615 134.669 430.615 135.743V142.058C430.615 143.166 431.058 143.776 432.01 143.776C432.962 143.776 433.416 143.133 433.416 142.058V140.507H434.678V141.992C434.678 143.798 433.825 144.994 431.977 144.994C430.128 144.994 429.309 143.798 429.309 141.992V135.81C429.309 134.004 430.161 132.818 431.977 132.818C433.792 132.818 434.678 133.937 434.678 135.743Z" fill="#66CBFF"/>
<path d="M437.224 142.402L436.77 144.806H435.542L437.822 132.862H439.748L442.039 144.806H440.7L440.246 142.402H437.224ZM437.401 141.294H440.058L438.708 134.402L437.401 141.294Z" fill="#66CBFF"/>
<path d="M444.254 144.806H443.058V132.862H444.741L447.508 141.493V132.862H448.681V144.806H447.298L444.254 135.156V144.806Z" fill="#66CBFF"/>
<path d="M455.312 135.743V136.851H454.05V135.743C454.05 134.635 453.63 134.026 452.656 134.026C451.682 134.026 451.261 134.669 451.261 135.743V142.058C451.261 143.166 451.704 143.776 452.656 143.776C453.608 143.776 454.05 143.133 454.05 142.058V140.507H455.312V141.992C455.312 143.798 454.46 144.994 452.623 144.994C450.785 144.994 449.944 143.798 449.944 141.992V135.81C449.944 134.004 450.796 132.818 452.623 132.818C454.449 132.818 455.312 133.937 455.312 135.743Z" fill="#66CBFF"/>
<path d="M460.77 138.147V139.344H457.848V143.598H461.434V144.806H456.52V132.862H461.434V134.081H457.848V138.147H460.77Z" fill="#66CBFF"/>
<path d="M462.664 144.806V132.862H463.992V143.598H467.401V144.806H462.664Z" fill="#66CBFF"/>
<path d="M468.398 144.806V132.862H469.726V143.598H473.135V144.806H468.398Z" fill="#66CBFF"/>
<path d="M478.394 138.147V139.344H475.472V143.598H479.058V144.806H474.144V132.862H479.058V134.081H475.472V138.147H478.394Z" fill="#66CBFF"/>
<path d="M483.077 132.862C484.937 132.862 485.789 133.97 485.789 135.832V141.859C485.789 143.676 484.937 144.806 483.077 144.806H480.254V132.862H483.077ZM483.077 143.598C484.029 143.598 484.483 143 484.483 141.903V135.765C484.483 134.657 484.029 134.081 483.055 134.081H481.627V143.598H483.077Z" fill="#66CBFF"/>
<path d="M284.632 153.393C286.503 153.393 287.289 154.345 287.289 156.118V157.093C287.289 158.411 286.824 159.231 285.805 159.553C286.912 159.874 287.311 160.76 287.311 162.045V163.896C287.269 164.388 287.349 164.882 287.543 165.336H286.193C286.012 164.875 285.936 164.379 285.971 163.885V162.034C285.971 160.683 285.352 160.251 284.234 160.251H283.304V165.358H281.976V153.393H284.632ZM284.311 159.043C285.418 159.043 285.994 158.7 285.994 157.403V156.295C285.994 155.187 285.606 154.656 284.621 154.656H283.326V159.087L284.311 159.043Z" fill="white"/>
<path d="M288.584 156.295C288.584 154.478 289.492 153.292 291.307 153.292C293.123 153.292 294.053 154.478 294.053 156.295V162.477C294.053 164.283 293.156 165.48 291.307 165.48C289.459 165.48 288.584 164.283 288.584 162.477V156.295ZM289.902 162.544C289.902 163.652 290.356 164.261 291.307 164.261C292.259 164.261 292.724 163.629 292.724 162.544V156.228C292.724 155.121 292.282 154.511 291.307 154.511C290.333 154.511 289.902 155.154 289.902 156.228V162.544Z" fill="white"/>
<path d="M299.71 165.336H298.437L296.488 155.841V165.358H295.382V153.393H297.23L299.189 162.932L301.082 153.393H302.942V165.358H301.68V155.752L299.71 165.336Z" fill="white"/>
<path d="M308.477 158.7V159.896H305.566V164.139H309.142V165.358H304.238V153.393H309.153V154.6H305.566V158.677L308.477 158.7Z" fill="white"/>
<path d="M377.644 74.0978V74.4081C377.703 74.9188 377.594 75.4349 377.332 75.8772C377.07 76.3195 376.67 76.6636 376.194 76.8566C376.673 77.0557 377.073 77.4058 377.335 77.8538C377.597 78.3018 377.705 78.823 377.644 79.3383V80.269C377.644 82.086 376.792 83.2826 374.954 83.2826C373.117 83.2826 372.275 82.086 372.275 80.269V79.4491H373.526V80.3465C373.526 81.4545 373.969 82.0749 374.921 82.0749C375.873 82.0749 376.316 81.4434 376.316 80.2358V79.3162C376.316 78.1307 375.829 77.5767 374.821 77.5324H374.102V76.3469H374.888C375.094 76.3492 375.299 76.3065 375.487 76.2219C375.676 76.1373 375.844 76.0128 375.98 75.8569C376.115 75.701 376.216 75.5175 376.274 75.319C376.332 75.1205 376.346 74.9118 376.316 74.7072V74.1643C376.316 72.9345 375.895 72.303 374.921 72.303C373.947 72.303 373.526 72.9678 373.526 74.0424V74.6518H372.275V74.1089C372.275 72.2808 373.128 71.1064 374.954 71.1064C376.78 71.1064 377.644 72.2698 377.644 74.0978Z" fill="white"/>
<path d="M381.375 73.3781C380.876 73.6837 380.31 73.8625 379.726 73.8988V72.7909C380.197 72.8011 380.657 72.6494 381.03 72.3611C381.402 72.0727 381.665 71.6652 381.774 71.2065H382.692V83.15H381.375V73.3781Z" fill="white"/>
<path d="M377.71 94.6724C377.71 98.2732 373.681 99.5695 373.659 102.317V102.505H377.577V103.713H372.342V102.694C372.342 98.8382 376.382 98.0849 376.382 94.7278C376.382 93.498 375.972 92.8554 374.987 92.8554C374.002 92.8554 373.592 93.5534 373.592 94.606V95.7139H372.342V94.6724C372.342 92.8444 373.183 91.6367 375.02 91.6367C376.858 91.6367 377.71 92.8444 377.71 94.6724Z" fill="white"/>
<path d="M382.913 92.9555H378.862V91.77H384.264V92.8779L381.198 103.658H379.869L382.913 92.9555Z" fill="white"/>
<path d="M377.71 115.213C377.71 118.814 373.681 120.11 373.659 122.858V123.046H377.577V124.254H372.342V123.234C372.342 119.379 376.382 118.625 376.382 115.268C376.382 114.039 375.972 113.385 374.987 113.385C374.002 113.385 373.592 114.094 373.592 115.147V116.254H372.342V115.291C372.342 113.463 373.183 112.255 375.02 112.255C376.858 112.255 377.71 113.385 377.71 115.213Z" fill="white"/>
<path d="M384.418 115.147V115.523C384.482 116.026 384.384 116.537 384.137 116.979C383.89 117.422 383.507 117.774 383.046 117.983C383.514 118.199 383.9 118.56 384.147 119.013C384.395 119.466 384.49 119.987 384.418 120.498V121.384C384.418 121.754 384.346 122.12 384.204 122.461C384.063 122.803 383.856 123.113 383.595 123.374C383.334 123.635 383.024 123.843 382.683 123.984C382.342 124.126 381.976 124.198 381.607 124.198C381.238 124.198 380.872 124.126 380.531 123.984C380.19 123.843 379.88 123.635 379.619 123.374C379.358 123.113 379.151 122.803 379.009 122.461C378.868 122.12 378.795 121.754 378.795 121.384V120.498C378.721 119.986 378.814 119.464 379.062 119.011C379.309 118.557 379.697 118.196 380.168 117.983C379.703 117.778 379.318 117.427 379.07 116.983C378.822 116.539 378.726 116.027 378.795 115.523V115.147C378.795 114.777 378.868 114.411 379.009 114.07C379.151 113.728 379.358 113.418 379.619 113.157C379.88 112.895 380.19 112.688 380.531 112.547C380.872 112.405 381.238 112.333 381.607 112.333C381.976 112.333 382.342 112.405 382.683 112.547C383.024 112.688 383.334 112.895 383.595 113.157C383.856 113.418 384.063 113.728 384.204 114.07C384.346 114.411 384.418 114.777 384.418 115.147ZM380.102 115.147V115.723C380.102 116.886 380.666 117.396 381.607 117.396C382.548 117.396 383.101 116.886 383.101 115.723V115.147C383.101 113.917 382.537 113.352 381.607 113.352C380.677 113.352 380.102 113.95 380.102 115.18V115.147ZM380.102 120.321V121.318C380.102 122.548 380.644 123.135 381.607 123.135C382.57 123.135 383.09 122.548 383.101 121.318V120.321C383.101 119.157 382.592 118.592 381.607 118.592C380.622 118.592 380.102 119.191 380.102 120.354V120.321Z" fill="white"/>
<path d="M377.71 135.765C377.71 139.366 373.681 140.662 373.659 143.41V143.598H377.577V144.806H372.342V143.787C372.342 139.931 376.382 139.178 376.382 135.821C376.382 134.591 375.972 133.937 374.987 133.937C374.002 133.937 373.592 134.635 373.592 135.699V136.774H372.342V135.81C372.342 133.982 373.183 132.774 375.02 132.774C376.858 132.774 377.71 133.937 377.71 135.765Z" fill="white"/>
<path d="M384.297 135.743V141.837C384.297 143.732 383.445 144.928 381.53 144.928C379.615 144.928 378.84 143.743 378.84 141.926V141.704H380.091V142.003C380.091 143.111 380.545 143.709 381.497 143.709C382.449 143.709 382.969 143.067 382.969 141.804V139.123C382.828 139.514 382.564 139.848 382.217 140.076C381.869 140.304 381.457 140.413 381.043 140.386C379.504 140.386 378.829 139.278 378.829 137.571V135.743C378.829 133.926 379.715 132.752 381.552 132.752C383.39 132.752 384.297 133.926 384.297 135.743ZM380.135 135.677V137.472C380.135 138.58 380.6 139.189 381.552 139.189C382.504 139.189 382.969 138.546 382.969 137.472V135.666C382.969 134.558 382.526 133.949 381.552 133.949C380.578 133.949 380.135 134.558 380.135 135.666V135.677Z" fill="white"/>
<path d="M377.19 162.954V165.358H375.895V162.954H372.043V161.735L375.74 153.415H377.19V161.735H378.142V162.954H377.19ZM373.272 161.735H375.895V155.907L373.272 161.735Z" fill="white"/>
<path d="M379.061 156.295C379.061 154.478 379.969 153.292 381.784 153.292C383.6 153.292 384.529 154.478 384.529 156.295V162.455C384.529 164.283 383.633 165.48 381.784 165.48C379.936 165.48 379.061 164.283 379.061 162.455V156.295ZM380.378 162.544C380.378 163.652 380.832 164.261 381.784 164.261C382.736 164.261 383.201 163.618 383.201 162.544V156.228C383.201 155.121 382.758 154.489 381.784 154.489C380.81 154.489 380.378 155.143 380.378 156.228V162.544Z" fill="white"/>
<path d="M223.901 73.3781C223.397 73.6822 222.828 73.8608 222.241 73.8988V72.7909C222.712 72.8011 223.172 72.6494 223.544 72.3611C223.917 72.0727 224.18 71.6652 224.288 71.2065H225.207V83.15H223.901V73.3781Z" fill="white"/>
<path d="M232.591 74.12C232.591 77.7096 228.551 79.0059 228.54 81.7536V81.9419H232.458V83.1496H227.222V82.1303C227.222 78.2747 231.263 77.5213 231.263 74.1643C231.263 72.9345 230.853 72.2919 229.868 72.2919C228.883 72.2919 228.462 72.9899 228.462 74.0424V75.1503H227.222V74.1754C227.222 72.3473 228.053 71.1396 229.901 71.1396C231.75 71.1396 232.591 72.2919 232.591 74.12Z" fill="white"/>
<path d="M235.093 75.0068V76.6576H233.821V75.0068H235.093ZM235.093 81.4993V83.1501H233.821V81.4993H235.093Z" fill="white"/>
<path d="M241.757 74.0978V74.4081C241.817 74.9188 241.707 75.4349 241.445 75.8772C241.183 76.3195 240.783 76.6636 240.307 76.8566C240.786 77.0557 241.187 77.4058 241.448 77.8538C241.71 78.3018 241.819 78.823 241.757 79.3383V80.269C241.757 82.086 240.905 83.2826 239.067 83.2826C237.23 83.2826 236.389 82.086 236.389 80.269V79.4491H237.639V80.3465C237.639 81.4545 238.082 82.0749 239.034 82.0749C239.986 82.0749 240.429 81.4434 240.429 80.2358V79.3162C240.429 78.1307 239.931 77.5767 238.935 77.5324H238.215V76.3469H239.001C239.208 76.3492 239.412 76.3065 239.601 76.2219C239.789 76.1373 239.957 76.0128 240.093 75.8569C240.229 75.701 240.329 75.5175 240.387 75.319C240.445 75.1205 240.459 74.9118 240.429 74.7072V74.1643C240.429 72.9345 240.008 72.303 239.034 72.303C238.06 72.303 237.639 72.9678 237.639 74.0424V74.6518H236.389V74.1089C236.389 72.2808 237.241 71.1064 239.067 71.1064C240.894 71.1064 241.757 72.2698 241.757 74.0978Z" fill="white"/>
<path d="M248.41 74.0982V80.1918C248.41 82.0753 247.558 83.2718 245.643 83.2718C243.728 83.2718 242.953 82.0974 242.953 80.2693V80.0478H244.193V80.358C244.193 81.4659 244.658 82.0642 245.61 82.0642C246.562 82.0642 247.082 81.4105 247.082 80.1585V77.4774C246.941 77.8685 246.677 78.2032 246.33 78.431C245.983 78.6588 245.571 78.7674 245.156 78.7404C243.618 78.7404 242.942 77.6325 242.942 75.9263V74.0982C242.942 72.2701 243.839 71.0957 245.676 71.0957C247.514 71.0957 248.41 72.2701 248.41 74.0982ZM244.249 74.0317V75.8376C244.249 76.9456 244.713 77.566 245.665 77.566C246.617 77.566 247.082 76.9123 247.082 75.8376V74.0539C247.082 72.9459 246.639 72.3255 245.665 72.3255C244.691 72.3255 244.249 72.9349 244.249 74.0317Z" fill="white"/>
<path d="M284.765 48.4053C286.625 48.4053 287.477 49.5132 287.477 51.3745V57.3906C287.477 59.2186 286.625 60.3487 284.765 60.3487H281.976V48.4053H284.765ZM284.765 59.13C285.717 59.13 286.171 58.5428 286.171 57.446V51.308C286.171 50.2001 285.717 49.6129 284.743 49.6129H283.315V59.13H284.765Z" fill="white"/>
<path d="M292.968 53.679V54.8756H290.045V59.1189H293.632V60.3266H288.739V48.4053H293.654V49.6129H290.068V53.679H292.968Z" fill="white"/>
<path d="M300.02 51.2746V51.5959H298.758V51.2081C298.758 50.1002 298.348 49.5019 297.396 49.5019C296.444 49.5019 296.035 50.1334 296.035 51.186C296.035 53.8672 300.042 54.122 300.042 57.479C300.042 59.2849 299.167 60.4704 297.341 60.4704C295.515 60.4704 294.673 59.2849 294.673 57.479V56.8032H295.913V57.5455C295.913 58.6534 296.356 59.2517 297.308 59.2517C298.26 59.2517 298.714 58.6202 298.714 57.5455C298.714 54.8864 294.718 54.6316 294.718 51.2746C294.718 49.4244 295.57 48.2832 297.363 48.2832C299.156 48.2832 300.02 49.4687 300.02 51.2746Z" fill="white"/>
<path d="M302.92 60.3266V49.6129H300.706V48.4053H306.451V49.6129H304.237V60.3266H302.92Z" fill="white"/>
<path d="M308.665 48.4053V60.3266H307.337V48.4053H308.665Z" fill="white"/>
<path d="M311.201 60.3266H310.005V48.4053H311.699L314.455 57.0028V48.4053H315.628V60.3266H314.256L311.201 50.6654V60.3266Z" fill="white"/>
<path d="M318.341 57.9447L317.887 60.3267H316.659L318.939 48.3833H320.843L323.145 60.3267H321.817L321.363 57.9225L318.341 57.9447ZM318.518 56.8368H321.175L319.824 49.9455L318.518 56.8368Z" fill="white"/>
<path d="M325.271 60.3266V49.6129H323.057V48.4053H328.769V49.6129H326.555V60.3266H325.271Z" fill="white"/>
<path d="M331.005 48.4053V60.3266H329.699V48.4053H331.005Z" fill="white"/>
<path d="M332.268 51.2857C332.268 49.4687 333.175 48.2832 334.991 48.2832C336.806 48.2832 337.736 49.4687 337.736 51.2857V57.4679C337.736 59.2738 336.839 60.4704 334.991 60.4704C333.142 60.4704 332.268 59.2738 332.268 57.4679V51.2857ZM333.585 57.5344C333.585 58.6423 334.039 59.2517 334.991 59.2517C335.942 59.2517 336.407 58.6202 336.407 57.5344V51.2192C336.407 50.1113 335.965 49.5019 334.991 49.5019C334.016 49.5019 333.585 50.1445 333.585 51.2192V57.5344Z" fill="white"/>
<path d="M340.183 60.3266H338.987V48.4053H340.67L343.437 57.036V48.4053H344.61V60.3266H343.227L340.183 50.6654V60.3266Z" fill="white"/>
<path d="M432.065 48.4053C433.936 48.4053 434.722 49.3581 434.722 51.1308V52.1058C434.722 53.4242 434.268 54.2441 433.239 54.5653C434.345 54.8866 434.744 55.773 434.744 57.0582V58.9084C434.702 59.4003 434.782 59.8949 434.976 60.3487H433.637C433.45 59.8893 433.374 59.3918 433.416 58.8973V57.0028C433.416 55.6511 432.785 55.219 431.678 55.219H430.737V60.3266H429.409V48.4053H432.065ZM431.722 54.0335C432.829 54.0335 433.416 53.6901 433.416 52.3938V51.2859C433.416 50.178 433.017 49.6462 432.032 49.6462H430.737V54.0779L431.722 54.0335Z" fill="white"/>
<path d="M440.401 53.679V54.8756H437.479V59.1189H441.065V60.3266H436.151V48.4053H441.065V49.6129H437.479V53.679H440.401Z" fill="white"/>
<path d="M446.656 60.3266H445.372L443.401 50.8316V60.3266H442.294V48.4053H444.154L446.113 57.9445L448.006 48.4053H449.866V60.3266H448.604V50.743L446.656 60.3266Z" fill="white"/>
<path d="M452.578 57.9447L452.058 60.3267H450.83L453.121 48.3833H455.036L457.327 60.3267H455.999L455.534 57.9225L452.578 57.9447ZM452.745 56.8368H455.401L454.062 49.9455L452.745 56.8368Z" fill="white"/>
<path d="M461.025 48.4053C462.896 48.4053 463.682 49.3581 463.682 51.1308V52.1058C463.682 53.4242 463.217 54.2441 462.198 54.5653C463.305 54.8866 463.704 55.773 463.704 57.0582V58.9084C463.662 59.4003 463.742 59.8949 463.936 60.3487H462.542C462.361 59.8875 462.285 59.3916 462.32 58.8973V57.0028C462.32 55.6511 461.7 55.219 460.582 55.219H459.653V60.3266H458.324V48.4053H461.025ZM460.682 54.0335C461.789 54.0335 462.364 53.6901 462.364 52.3938V51.2859C462.364 50.178 461.977 49.6462 460.992 49.6462H459.697V54.0779L460.682 54.0335Z" fill="white"/>
<path d="M467.103 55.1636L466.405 56.338V60.3266H465.077V48.4053H466.405V54.1665L469.582 48.4053H470.921L467.911 53.8452L471.032 60.3266H469.659L467.103 55.1636Z" fill="white"/>
<path d="M477.132 51.2746V51.5959H475.826V51.2081C475.826 50.1002 475.416 49.5019 474.464 49.5019C473.512 49.5019 473.103 50.1334 473.103 51.186C473.103 53.8672 477.098 54.122 477.098 57.479C477.098 59.2849 476.235 60.4704 474.409 60.4704C472.582 60.4704 471.73 59.2849 471.73 57.479V56.8032H472.981V57.5455C472.981 58.6534 473.424 59.2517 474.375 59.2517C475.327 59.2517 475.77 58.6202 475.77 57.5455C475.77 54.8864 471.785 54.6316 471.785 51.2746C471.785 49.4244 472.638 48.2832 474.431 48.2832C476.224 48.2832 477.132 49.4687 477.132 51.2746Z" fill="white"/>
<path d="M377.61 51.2857V52.3161H376.349V51.2081C376.349 50.1002 375.928 49.4908 374.954 49.4908C373.98 49.4908 373.559 50.1334 373.559 51.2081V57.5233C373.559 58.6312 374.002 59.2406 374.954 59.2406C375.906 59.2406 376.349 58.598 376.349 57.5233V55.1413H375.087V53.9447H377.577V57.4679C377.577 59.2738 376.725 60.4704 374.887 60.4704C373.05 60.4704 372.209 59.2738 372.209 57.4679V51.2857C372.209 49.4798 373.061 48.2832 374.887 48.2832C376.714 48.2832 377.61 49.4798 377.61 51.2857Z" fill="white"/>
<path d="M380.201 57.9447L379.747 60.3267H378.519L380.799 48.3833H382.725L385.05 60.3267H383.721L383.267 57.9225L380.201 57.9447ZM380.378 56.8368H383.035L381.729 49.9122L380.378 56.8368Z" fill="white"/>
<path d="M387.12 60.3266V49.6129H384.906V48.4053H390.618V49.6129H388.404V60.3266H387.12Z" fill="white"/>
<path d="M395.777 53.679V54.8756H392.866V59.1189H396.441V60.3266H391.538V48.4053H396.441V49.6129H392.866V53.679H395.777Z" fill="white"/>
<path d="M223.204 60.3266V49.6129H220.99V48.4053H226.746V49.6129H224.532V60.3266H223.204Z" fill="white"/>
<path d="M228.96 48.4053V60.3266H227.632V48.4053H228.96Z" fill="white"/>
<path d="M234.739 60.3266H233.455L231.484 50.8316V60.3266H230.322V48.4053H232.182L234.141 57.9445L236.034 48.4053H237.893V60.3266H236.631V50.743L234.739 60.3266Z" fill="white"/>
<path d="M243.495 53.679V54.8756H240.584V59.1189H244.159V60.3266H239.256V48.4053H244.159V49.6129H240.584V53.679H243.495Z" fill="white"/>
<path d="M259.879 14.5469C262.724 14.5469 264.019 16.2642 264.019 19.0783V28.2741C264.019 31.0661 262.724 32.7833 259.879 32.7833H255.617V14.5469H259.879ZM259.879 30.9331C261.34 30.9331 262.093 30.0246 262.093 28.3516V18.9786C262.093 17.3056 261.395 16.3971 259.879 16.3971H257.665V30.9331H259.879Z" fill="white"/>
<path d="M272.399 22.6569V24.4739H267.971V30.9663H273.44V32.8166H265.946V14.5469H273.44V16.3971H267.971V22.6569H272.399Z" fill="white"/>
<path d="M279.274 14.5469C282.13 14.5469 283.359 16.242 283.359 18.9786V21.1944C283.359 24.0861 282.008 25.6261 279.119 25.6261H277.315V32.8166H275.289V14.5469H279.274ZM279.119 23.7648C280.625 23.7648 281.333 23.0668 281.333 21.3163V18.901C281.333 17.2281 280.735 16.3971 279.252 16.3971H277.293V23.7648H279.119Z" fill="white"/>
<path d="M286.658 29.105L285.961 32.7833H284.079L287.632 14.5469H290.566L294.053 32.7833H292.027L291.319 29.105H286.658ZM286.924 27.3656H290.953L288.894 16.8403L286.924 27.3656Z" fill="white"/>
<path d="M299.643 14.5469C302.51 14.5469 303.706 16.0093 303.706 18.7127V20.1973C303.706 22.2026 303.008 23.4546 301.492 23.9532C303.152 24.4407 303.772 25.8034 303.772 27.7534V30.5897C303.711 31.347 303.837 32.1078 304.137 32.8055H302.023C301.729 32.1062 301.611 31.3453 301.68 30.5897V27.698C301.68 25.6483 300.717 24.9946 299.023 24.9946H297.596V32.7501H295.559V14.5469H299.643ZM299.123 23.1444C300.739 23.1444 301.702 22.6237 301.702 20.6405V18.901C301.702 17.2502 301.104 16.3971 299.599 16.3971H297.596V23.1444H299.123Z" fill="white"/>
<path d="M308.466 32.7833V16.3971H305.146V14.5469H313.868V16.3971H310.547V32.7833H308.466Z" fill="white"/>
<path d="M317.134 28.4846C317.134 30.1243 317.787 31.1104 319.271 31.1104C320.754 31.1104 321.374 30.1243 321.374 28.4846V14.5469H323.278V28.3849C323.278 31.1436 322.005 32.9938 319.193 32.9938C316.382 32.9938 315.131 31.1436 315.131 28.3849V14.5469H317.134V28.4846Z" fill="white"/>
<path d="M329.344 14.5469C332.2 14.5469 333.396 16.0093 333.396 18.7127V20.1973C333.396 22.2026 332.698 23.4546 331.182 23.9532C332.842 24.4407 333.473 25.8034 333.473 27.7534V30.5897C333.407 31.3473 333.532 32.1094 333.838 32.8055H331.78C331.491 32.1046 331.373 31.3451 331.436 30.5897V27.698C331.436 25.6483 330.473 24.9946 328.78 24.9946H327.352V32.7501H325.271V14.5469H329.344ZM328.824 23.1444C330.429 23.1444 331.392 22.6237 331.392 20.6405V18.901C331.392 17.2502 330.794 16.3971 329.289 16.3971H327.308V23.1444H328.824Z" fill="white"/>
<path d="M342.009 22.6569V24.4739H337.581V30.9663H342.983V32.8166H335.489V14.5469H342.983V16.3971H337.559V22.6569H342.009Z" fill="white"/>
<path d="M352.791 18.9236V19.4221H350.865V18.8239C350.865 17.1731 350.234 16.2092 348.784 16.2092C347.334 16.2092 346.692 17.1731 346.692 18.7906C346.692 22.8789 352.813 23.2777 352.813 28.4074C352.813 31.1662 351.485 32.961 348.695 32.961C345.906 32.961 344.611 31.1662 344.611 28.4074V27.366H346.515V28.4739C346.515 30.1136 347.19 31.0775 348.651 31.0775C350.112 31.0775 350.787 30.1136 350.787 28.4739C350.787 24.4078 344.688 24.0422 344.688 18.8903C344.688 16.0762 345.994 14.3257 348.729 14.3257C351.463 14.3257 352.791 16.1648 352.791 18.9236Z" fill="white"/>
<path d="M223.901 93.9297C223.398 94.2348 222.828 94.41 222.241 94.4393V93.3314C222.712 93.3416 223.172 93.1899 223.544 92.9016C223.917 92.6133 224.18 92.2058 224.288 91.7471H225.207V103.679H223.901V93.9297Z" fill="white"/>
<path d="M232.591 94.6724C232.591 98.2732 228.551 99.5695 228.54 102.317V102.505H232.458V103.713H227.222V102.694C227.222 98.8382 231.263 98.0849 231.263 94.7278C231.263 93.498 230.853 92.8554 229.868 92.8554C228.883 92.8554 228.462 93.5534 228.462 94.606V95.7139H227.222V94.6724C227.222 92.8444 228.053 91.6367 229.901 91.6367C231.75 91.6367 232.591 92.8444 232.591 94.6724Z" fill="white"/>
<path d="M235.093 95.5474V97.2093H233.821V95.5474H235.093ZM235.093 102.051V103.702H233.821V102.051H235.093Z" fill="white"/>
<path d="M237.816 96.6221C237.993 96.3084 238.253 96.0499 238.568 95.8758C238.882 95.7016 239.239 95.6186 239.599 95.636C241.126 95.636 241.812 96.744 241.812 98.4723V100.81C241.812 102.627 240.938 103.824 239.111 103.824C237.285 103.824 236.444 102.627 236.444 100.81V100.001H237.684V100.888C237.684 101.996 238.126 102.616 239.078 102.616C240.03 102.616 240.484 101.962 240.484 100.888V98.572C240.484 97.4641 240.041 96.8437 239.078 96.8437C238.905 96.8362 238.732 96.8639 238.57 96.9251C238.408 96.9864 238.26 97.0799 238.134 97.1999C238.009 97.32 237.91 97.4643 237.842 97.6239C237.774 97.7836 237.739 97.9553 237.739 98.1289V98.4059H236.488L236.82 91.7583H241.525V92.9438H238.005L237.816 96.6221Z" fill="white"/>
<path d="M242.953 94.6724C242.953 92.8443 243.861 91.6699 245.676 91.6699C247.491 91.6699 248.421 92.8443 248.421 94.6724V100.832C248.421 102.649 247.525 103.846 245.676 103.846C243.828 103.846 242.953 102.649 242.953 100.832V94.6724ZM244.27 100.91C244.27 102.018 244.724 102.638 245.676 102.638C246.628 102.638 247.093 101.985 247.093 100.91V94.6059C247.093 93.498 246.65 92.8665 245.676 92.8665C244.702 92.8665 244.27 93.5091 244.27 94.6059V100.91Z" fill="white"/>
<path d="M223.901 114.482C223.398 114.787 222.828 114.962 222.241 114.991V113.884C222.714 113.895 223.176 113.743 223.549 113.452C223.923 113.161 224.184 112.75 224.288 112.288H225.207V124.254H223.901V114.482Z" fill="white"/>
<path d="M232.524 115.202V115.502C232.581 116.013 232.47 116.53 232.208 116.973C231.947 117.416 231.549 117.763 231.074 117.961C231.552 118.158 231.953 118.506 232.214 118.952C232.476 119.398 232.585 119.918 232.524 120.432V121.351C232.524 123.179 231.672 124.376 229.835 124.376C227.997 124.376 227.156 123.179 227.156 121.351V120.531H228.396V121.44C228.396 122.548 228.838 123.168 229.79 123.168C230.742 123.168 231.196 122.537 231.196 121.318V120.399C231.196 119.224 230.698 118.659 229.691 118.626H228.96V117.429H229.735C229.942 117.431 230.147 117.389 230.336 117.304C230.525 117.22 230.693 117.095 230.83 116.94C230.967 116.784 231.068 116.601 231.127 116.402C231.187 116.204 231.203 115.995 231.174 115.79V115.247C231.174 114.017 230.742 113.385 229.768 113.385C228.794 113.385 228.374 114.05 228.374 115.125V115.723H227.134V115.18C227.134 113.352 227.986 112.178 229.812 112.178C231.639 112.178 232.524 113.374 232.524 115.202Z" fill="white"/>
<path d="M235.093 116.1V117.761H233.821V116.1H235.093ZM235.093 122.603V124.254H233.821V122.603H235.093Z" fill="white"/>
<path d="M241.757 115.202V115.502C241.817 116.014 241.708 116.532 241.446 116.976C241.184 117.42 240.784 117.766 240.307 117.961C240.785 118.158 241.185 118.506 241.447 118.952C241.709 119.398 241.818 119.918 241.757 120.432V121.351C241.757 123.179 240.905 124.376 239.067 124.376C237.23 124.376 236.389 123.179 236.389 121.351V120.531H237.639V121.44C237.639 122.548 238.082 123.168 239.034 123.168C239.986 123.168 240.429 122.537 240.429 121.318V120.399C240.429 119.224 239.931 118.659 238.935 118.626H238.215V117.429H239.001C239.208 117.432 239.412 117.389 239.601 117.304C239.789 117.22 239.957 117.095 240.093 116.939C240.229 116.783 240.329 116.6 240.387 116.401C240.445 116.203 240.459 115.994 240.429 115.79V115.247C240.429 114.017 240.008 113.385 239.034 113.385C238.06 113.385 237.639 114.05 237.639 115.125V115.723H236.389V115.18C236.389 113.352 237.241 112.178 239.067 112.178C240.894 112.178 241.757 113.374 241.757 115.202Z" fill="white"/>
<path d="M248.421 115.213C248.421 118.814 244.381 120.11 244.37 122.858V123.046H248.289V124.254H243.053V123.234C243.053 119.379 247.093 118.625 247.093 115.268C247.093 114.039 246.684 113.385 245.698 113.385C244.713 113.385 244.304 114.094 244.304 115.147V116.254H243.053V115.291C243.053 113.463 243.894 112.255 245.732 112.255C247.569 112.255 248.421 113.385 248.421 115.213Z" fill="white"/>
<path d="M223.901 135.034C223.396 135.334 222.827 135.509 222.241 135.543V134.435C222.713 134.45 223.175 134.3 223.548 134.011C223.922 133.722 224.184 133.312 224.288 132.851H225.207V144.795H223.901V135.034Z" fill="white"/>
<path d="M232.524 135.743V136.054C232.581 136.565 232.47 137.082 232.208 137.525C231.947 137.968 231.549 138.315 231.074 138.513C231.552 138.71 231.953 139.058 232.214 139.504C232.476 139.951 232.585 140.47 232.524 140.984V141.903C232.524 143.732 231.672 144.928 229.835 144.928C227.997 144.928 227.156 143.732 227.156 141.903V141.084H228.396V141.992C228.396 143.1 228.838 143.709 229.79 143.709C230.742 143.709 231.196 143.078 231.196 141.87V140.951C231.196 139.776 230.698 139.211 229.691 139.178H228.96V137.981H229.735C229.942 137.983 230.147 137.941 230.336 137.856C230.525 137.772 230.693 137.647 230.83 137.492C230.967 137.336 231.068 137.153 231.127 136.954C231.187 136.756 231.203 136.547 231.174 136.342V135.799C231.174 134.569 230.742 133.937 229.768 133.937C228.794 133.937 228.374 134.602 228.374 135.677V136.297H227.134V135.743C227.134 133.926 227.986 132.752 229.812 132.752C231.639 132.752 232.524 133.926 232.524 135.743Z" fill="white"/>
<path d="M235.093 136.652V138.303H233.821V136.652H235.093ZM235.093 143.155V144.806H233.821V143.155H235.093Z" fill="white"/>
<path d="M241.303 142.401V144.806H240.03V142.401H236.156V141.205L239.853 132.884H241.303V141.205H242.244V142.424L241.303 142.401ZM237.385 141.183H240.03V135.355L237.385 141.183Z" fill="white"/>
<path d="M248.753 135.666V136.042C248.818 136.544 248.72 137.053 248.473 137.494C248.225 137.936 247.842 138.285 247.381 138.491C247.849 138.71 248.234 139.074 248.481 139.528C248.728 139.983 248.823 140.504 248.753 141.017V141.903C248.777 142.288 248.723 142.674 248.592 143.037C248.461 143.401 248.258 143.733 247.994 144.014C247.73 144.296 247.411 144.52 247.057 144.673C246.703 144.826 246.322 144.905 245.936 144.905C245.551 144.905 245.169 144.826 244.815 144.673C244.462 144.52 244.143 144.296 243.879 144.014C243.615 143.733 243.411 143.401 243.281 143.037C243.15 142.674 243.095 142.288 243.119 141.903V141.017C243.048 140.503 243.144 139.98 243.394 139.525C243.643 139.07 244.032 138.707 244.503 138.491C244.037 138.29 243.649 137.942 243.399 137.5C243.15 137.057 243.051 136.546 243.119 136.042V135.666C243.095 135.28 243.15 134.894 243.281 134.531C243.411 134.168 243.615 133.836 243.879 133.555C244.143 133.273 244.462 133.049 244.815 132.896C245.169 132.743 245.551 132.664 245.936 132.664C246.322 132.664 246.703 132.743 247.057 132.896C247.411 133.049 247.73 133.273 247.994 133.555C248.258 133.836 248.461 134.168 248.592 134.531C248.723 134.894 248.777 135.28 248.753 135.666ZM244.436 135.666V136.242C244.436 137.35 245.001 137.915 245.931 137.915C246.861 137.915 247.436 137.405 247.436 136.242V135.666C247.436 134.436 246.872 133.871 245.931 133.871C244.99 133.871 244.459 134.558 244.459 135.732L244.436 135.666ZM244.436 140.829V141.837C244.436 143.067 244.979 143.643 245.931 143.643C246.883 143.643 247.414 143.067 247.436 141.837V140.829C247.436 139.721 246.927 139.111 245.931 139.111C244.935 139.111 244.459 139.743 244.459 140.895L244.436 140.829Z" fill="white"/>
<path d="M223.901 155.608C223.396 155.909 222.827 156.084 222.241 156.118V155.01C222.713 155.025 223.175 154.874 223.548 154.585C223.922 154.296 224.184 153.886 224.288 153.426H225.207V165.358H223.901V155.608Z" fill="white"/>
<path d="M228.551 158.279C228.724 157.965 228.982 157.706 229.295 157.532C229.608 157.357 229.964 157.275 230.322 157.292C231.86 157.292 232.535 158.4 232.535 160.118V162.455C232.535 164.283 231.672 165.48 229.846 165.48C228.019 165.48 227.167 164.283 227.167 162.455V161.658H228.418V162.544C228.418 163.652 228.861 164.261 229.812 164.261C230.764 164.261 231.207 163.619 231.207 162.544V160.217C231.207 159.109 230.764 158.5 229.812 158.5C229.64 158.493 229.467 158.52 229.305 158.58C229.143 158.641 228.995 158.733 228.869 158.852C228.743 158.971 228.642 159.114 228.572 159.272C228.502 159.43 228.465 159.601 228.462 159.774V160.04H227.222L227.543 153.393H232.281V154.589H228.739L228.551 158.279Z" fill="white"/>
<path d="M235.093 157.204V158.854H233.821V157.204H235.093ZM235.093 163.696V165.358H233.821V163.696H235.093Z" fill="white"/>
<path d="M238.924 155.608C238.419 155.909 237.849 156.084 237.263 156.118V155.01C237.735 155.025 238.197 154.874 238.571 154.585C238.944 154.296 239.206 153.886 239.311 153.426H240.23V165.358H238.924V155.608Z" fill="white"/>
<path d="M242.123 156.295C242.123 154.478 243.019 153.292 244.846 153.292C246.672 153.292 247.591 154.478 247.591 156.295V162.455C247.591 164.283 246.683 165.48 244.846 165.48C243.008 165.48 242.123 164.283 242.123 162.455V156.295ZM243.429 162.544C243.429 163.652 243.894 164.261 244.846 164.261C245.798 164.261 246.263 163.618 246.263 162.544V156.228C246.263 155.121 245.82 154.489 244.846 154.489C243.872 154.489 243.429 155.143 243.429 156.228V162.544Z" fill="white"/>
<path d="M434.678 156.295V157.403H433.416V156.295C433.416 155.187 432.984 154.578 432.01 154.578C431.036 154.578 430.615 155.22 430.615 156.295V162.61C430.615 163.718 431.058 164.327 432.01 164.327C432.962 164.327 433.416 163.685 433.416 162.61V161.059H434.678V162.544C434.678 164.35 433.825 165.546 431.977 165.546C430.128 165.546 429.331 164.283 429.331 162.477V156.295C429.331 154.489 430.184 153.292 431.999 153.292C433.814 153.292 434.678 154.5 434.678 156.295Z" fill="#66CBFF"/>
<path d="M437.224 162.954L436.77 165.358H435.542L437.822 153.393H439.748L442.039 165.336H440.7L440.246 162.932L437.224 162.954ZM437.401 161.846H440.058L438.708 154.955L437.401 161.846Z" fill="#66CBFF"/>
<path d="M444.254 165.358H443.058V153.393H444.741L447.508 162.023V153.393H448.681V165.358H447.298L444.254 155.697V165.358Z" fill="#66CBFF"/>
<path d="M455.312 156.295V157.403H454.05V156.295C454.05 155.187 453.63 154.578 452.656 154.578C451.682 154.578 451.261 155.22 451.261 156.295V162.61C451.261 163.718 451.704 164.327 452.656 164.327C453.608 164.327 454.05 163.685 454.05 162.61V161.059H455.312V162.544C455.312 164.35 454.46 165.546 452.623 165.546C450.785 165.546 449.944 164.35 449.944 162.544V156.361C449.944 154.555 450.796 153.359 452.623 153.359C454.449 153.359 455.312 154.5 455.312 156.295Z" fill="#66CBFF"/>
<path d="M460.77 158.7V159.896H457.848V164.139H461.434V165.358H456.52V153.393H461.434V154.6H457.848V158.677L460.77 158.7Z" fill="#66CBFF"/>
<path d="M462.664 165.358V153.393H463.992V164.117H467.401V165.336L462.664 165.358Z" fill="#66CBFF"/>
<path d="M468.398 165.358V153.393H469.726V164.117H473.135V165.336L468.398 165.358Z" fill="#66CBFF"/>
<path d="M478.394 158.7V159.896H475.472V164.139H479.058V165.358H474.144V153.393H479.058V154.6H475.472V158.677L478.394 158.7Z" fill="#66CBFF"/>
<path d="M483.077 153.393C484.937 153.393 485.789 154.5 485.789 156.362V162.378C485.789 164.206 484.937 165.336 483.077 165.336H480.254V153.393H483.077ZM483.077 164.117C484.029 164.117 484.483 163.53 484.483 162.433V156.295C484.483 155.187 484.029 154.6 483.055 154.6H481.627V164.117H483.077Z" fill="#66CBFF"/>
<path d="M229.669 24.319C229.669 25.3051 229.669 26.2136 229.669 27.1221C229.794 27.9148 229.76 28.7246 229.569 29.5041C229.281 30.1467 228.462 30.5456 227.842 31.0552C227.773 31.0941 227.71 31.1426 227.654 31.1992C227.58 31.2915 227.534 31.403 227.521 31.5205C227.521 32.0745 227.521 32.6285 227.521 33.2267C228.551 32.9165 229.514 32.6063 230.477 32.3515C230.801 32.2738 231.138 32.2738 231.462 32.3515C232.425 32.5952 233.388 32.8944 234.351 33.1713C234.584 31.5205 234.54 31.3876 233.333 30.4126C233.056 30.1799 232.757 29.9694 232.492 29.7257C232.372 29.6164 232.297 29.4663 232.281 29.3047C232.281 27.6539 232.281 25.9809 232.281 24.2636L241.99 27.2661C241.99 26.6124 241.99 26.0474 241.99 25.4934C242.012 25.3161 241.977 25.1363 241.889 24.9806C241.802 24.8249 241.666 24.7017 241.503 24.6292C238.602 22.9119 235.713 21.1614 232.802 19.4441C232.624 19.3638 232.476 19.2297 232.379 19.0608C232.281 18.8918 232.24 18.6965 232.259 18.5024C232.259 16.2865 232.259 14.1482 232.259 11.9767C232.289 11.7041 232.232 11.429 232.097 11.1904C231.962 10.9518 231.755 10.7618 231.506 10.6472C231.3 10.5498 231.071 10.5099 230.843 10.5317C230.616 10.5534 230.398 10.6361 230.214 10.7709C230.029 10.9058 229.884 11.0879 229.794 11.2981C229.704 11.5083 229.672 11.7389 229.702 11.9656C229.702 14.1815 229.702 16.3973 229.702 18.6132C229.721 18.7873 229.686 18.963 229.6 19.1159C229.515 19.2688 229.384 19.3913 229.226 19.4663C226.281 21.2057 223.348 22.9673 220.425 24.7179C220.248 24.8287 220.004 25.0059 219.993 25.161C219.993 25.8701 219.993 26.5792 219.993 27.3769L229.669 24.319Z" fill="white"/>
<path d="M229.669 24.3187L219.949 27.3544C219.949 26.5678 219.949 25.8587 219.949 25.1386C219.949 24.9835 220.204 24.8062 220.381 24.6954C223.303 22.9449 226.237 21.1833 229.182 19.4438C229.34 19.3688 229.471 19.2464 229.556 19.0935C229.641 18.9405 229.677 18.7648 229.658 18.5907C229.658 16.3749 229.658 14.159 229.658 11.9432C229.628 11.7164 229.66 11.4858 229.75 11.2756C229.84 11.0654 229.985 10.8833 230.169 10.7485C230.354 10.6136 230.571 10.531 230.799 10.5092C231.026 10.4874 231.255 10.5273 231.462 10.6247C231.711 10.7393 231.918 10.9294 232.053 11.168C232.188 11.4066 232.244 11.6816 232.215 11.9543C232.215 14.1701 232.215 16.3084 232.215 18.4799C232.195 18.674 232.237 18.8693 232.334 19.0383C232.432 19.2073 232.58 19.3414 232.757 19.4217C235.669 21.139 238.558 22.8895 241.458 24.6068C241.622 24.6792 241.757 24.8024 241.845 24.9581C241.933 25.1138 241.968 25.2936 241.945 25.471C241.945 26.0249 241.945 26.5789 241.945 27.2436L232.281 24.3076C232.281 26.0471 232.281 27.6979 232.281 29.3487C232.315 29.4991 232.402 29.6325 232.525 29.7254C232.79 29.9691 233.089 30.1796 233.366 30.4123C234.573 31.3873 234.617 31.5202 234.385 33.171C233.421 32.8941 232.458 32.5949 231.495 32.3512C231.171 32.2735 230.834 32.2735 230.51 32.3512C229.547 32.606 228.584 32.9162 227.554 33.2264C227.554 32.6282 227.554 32.1185 227.554 31.5202C227.567 31.4026 227.613 31.2912 227.687 31.1989C227.743 31.1423 227.806 31.0938 227.875 31.0549C228.473 30.5453 229.314 30.1464 229.602 29.5038C229.793 28.7243 229.827 27.9145 229.702 27.1218C229.68 26.2133 229.669 25.3048 229.669 24.3187Z" fill="white"/>
<path d="M109.502 113.662L112.823 115.657C112.802 114.176 112.876 112.696 113.044 111.225C113.266 110.56 117.019 110.782 117.019 110.782C116.12 106.627 114.22 102.755 111.483 99.5029C107.055 94.4065 98.8745 88.8779 90.2508 88.8779C81.6271 88.8779 72.3503 92.4565 67.4905 100.212C65.523 103.382 64.2319 106.925 63.6985 110.618C63.1651 114.311 63.4008 118.075 64.3908 121.673C65.9406 126.547 67.7119 139.82 67.7119 139.82C67.7119 139.82 71.9075 140.042 73.0145 138.934C74.1215 137.826 73.6787 128.963 75.8928 123.888C78.1068 118.814 82.5349 116.809 88.5017 115.922C94.4686 115.036 107.066 113.263 107.066 113.263L109.502 113.662Z" fill="#263238" stroke="#263238" stroke-linecap="round" stroke-linejoin="round"/>
<path d="M92.4318 367.222C92.4318 367.222 88.7343 387.164 90.5831 401.202C92.4318 415.239 94.6458 441.818 94.6458 444.777V449.951C94.6458 449.951 93.1624 449.951 93.1624 453.64C93.1624 457.329 92.4318 469.151 92.4318 471.001C92.4318 472.851 99.8046 473.948 101.288 473.948C102.771 473.948 109.768 477.649 114.572 479.122C119.377 480.596 126.749 481.338 127.48 477.272C128.211 473.206 123.428 467.301 120.838 465.085C118.248 462.869 112.358 455.114 112.358 455.114C112.358 455.114 111.982 449.208 111.251 447.735C111.186 447.557 111.077 447.399 110.934 447.275C110.79 447.151 110.617 447.067 110.432 447.029C110.247 446.991 110.055 447.002 109.874 447.059C109.694 447.117 109.532 447.22 109.402 447.358C109.402 447.358 116.786 398.244 116.786 393.446C116.786 388.649 118.259 375.343 118.259 370.18C118.259 365.017 92.4318 367.222 92.4318 367.222Z" fill="#FFBE9D" stroke="#263238" stroke-linecap="round" stroke-linejoin="round"/>
<path d="M118.259 370.18C118.259 365.006 92.4318 367.222 92.4318 367.222C92.4318 367.222 91.679 371.255 91.0259 376.96C93.7653 377.417 96.5408 377.621 99.3175 377.57C106.152 377.542 112.793 375.299 118.248 371.177C118.259 370.822 118.259 370.479 118.259 370.18Z" fill="#263238" stroke="#263238" stroke-linecap="round" stroke-linejoin="round"/>
<path d="M127.48 477.273C128.222 473.217 123.428 467.301 120.838 465.085C118.248 462.869 112.358 455.114 112.358 455.114C112.358 455.114 111.982 449.209 111.251 447.735C110.897 447.026 110.454 446.915 110.144 446.993L109.447 447.358C107.448 447.529 105.471 447.9 103.546 448.466C101.698 449.209 101.332 452.533 101.332 452.533L94.6901 449.951C94.6901 449.951 93.2067 449.951 93.2067 453.64C93.2067 457.33 92.4761 469.151 92.4761 471.002C92.4761 472.852 99.8488 473.949 101.332 473.949C102.816 473.949 109.812 477.649 114.617 479.123C119.421 480.596 126.749 481.339 127.48 477.273Z" fill="#263238" stroke="#263238" stroke-linecap="round" stroke-linejoin="round"/>
<path d="M114.572 479.123C119.365 480.596 126.749 481.338 127.48 477.272C127.558 476.754 127.558 476.228 127.48 475.71C120.373 481.25 106.447 473.35 103.469 471.367C100.812 469.594 94.8671 467.356 92.5866 466.525C92.4759 468.675 92.3984 470.381 92.3984 470.957C92.3984 472.796 99.7712 473.904 101.255 473.904C102.738 473.904 109.768 477.649 114.572 479.123Z" fill="white" stroke="#263238" stroke-linecap="round" stroke-linejoin="round"/>
<path d="M62.1658 370.911C60.0482 378.751 58.8117 386.804 58.4794 394.919C57.7377 409.323 64.3799 431.847 65.1216 436.278C65.8633 440.71 63.2729 458.071 63.2729 458.071C60.9267 462.377 58.8345 466.816 57.0071 471.366C54.7931 477.272 56.6307 480.972 61.8005 481.703C66.9703 482.435 71.3984 481.703 74.3431 479.487C77.2877 477.272 79.1475 471.001 79.8782 469.893C80.6088 468.785 82.8339 467.3 82.8339 462.137C82.8339 456.974 81.3616 445.142 81.3616 442.195C81.3616 439.248 82.0922 422.618 83.1992 417.444C84.3063 412.27 85.7897 396.027 85.7897 389.014C85.6152 383.083 85.12 377.165 84.3063 371.287C84.3063 371.287 67.3356 369.803 62.1658 370.911Z" fill="#FFBE9D" stroke="#263238" stroke-linecap="round" stroke-linejoin="round"/>
<path d="M84.937 376.461C84.6049 373.448 84.306 371.287 84.306 371.287C84.306 371.287 67.3354 369.803 62.1656 370.911C62.1656 370.911 61.6896 372.484 61.0586 375.276C64.3213 376.631 67.7501 377.544 71.2543 377.99C75.8714 378.615 80.5711 378.089 84.937 376.461Z" fill="#263238" stroke="#263238" stroke-linecap="round" stroke-linejoin="round"/>
<path d="M79.8782 469.893C80.6199 468.785 82.8339 467.301 82.8339 462.138C82.8339 459.446 82.4354 454.97 82.0479 450.859C79.8339 453.64 78.4058 452.898 78.4058 452.898C78.4058 452.898 76.9335 446.993 72.129 446.627C68.1548 446.317 65.1991 449.308 64.3024 450.338C63.7932 454.582 63.2729 458.094 63.2729 458.094C60.9267 462.399 58.8345 466.839 57.0071 471.389C54.7931 477.294 56.6307 480.995 61.8005 481.726C66.9703 482.457 71.3984 481.726 74.3431 479.51C77.2877 477.294 79.1475 471.001 79.8782 469.893Z" fill="#263238" stroke="#263238" stroke-linecap="round" stroke-linejoin="round"/>
<path d="M82.8338 463.279C81.4389 464.797 79.723 466.603 78.0846 468.043C74.3872 471.367 74.7636 477.649 67.0144 479.123C65.1157 479.436 63.173 479.358 61.3056 478.893C59.4381 478.428 57.6853 477.586 56.1545 476.419C56.4092 479.366 58.3686 481.206 61.8446 481.704C67.0144 482.446 71.4425 481.704 74.3872 479.488C77.3319 477.272 79.1917 471.002 79.9223 469.894C80.6529 468.786 82.4906 467.523 82.8338 463.279Z" fill="white" stroke="#263238" stroke-linecap="round" stroke-linejoin="round"/>
<path d="M49.3463 233.44L36.062 240.365C36.062 240.365 28.0361 294.93 28.0361 296.038C28.0361 297.146 32.741 299.916 38.8296 299.916C44.9182 299.916 52.9441 294.653 52.9441 294.653C52.9441 294.653 56.5419 240.365 56.5419 238.703C56.5419 237.041 53.4976 228.454 49.3463 233.44Z" fill="#263238" stroke="#263238" stroke-linecap="round" stroke-linejoin="round"/>
<path d="M50.3647 273.791C50.3647 273.791 45.9366 310.718 46.3019 318.108C46.6673 325.498 46.6673 340.267 46.6673 343.956C46.6673 347.645 45.5602 363.156 47.409 365.372C49.2577 367.588 54.4164 372.397 65.863 374.236C77.3096 376.075 79.5126 374.978 81.7266 373.87C83.9407 372.762 89.8411 370.546 89.8411 370.546C89.8411 370.546 91.3245 373.504 104.609 374.236C117.893 374.967 116.41 373.504 119.365 372.397C122.321 371.289 126.373 369.438 128.222 367.588C130.07 365.738 125.266 328.445 125.266 324.379C125.266 320.313 126.373 296.681 126.749 291.141C127.126 285.602 124.159 281.547 124.159 278.588V267.144C124.159 267.144 100.181 275.63 86.1547 275.63C72.1287 275.63 49.9883 270.091 49.9883 270.091L50.3647 273.791Z" fill="#008BB7" stroke="#263238" stroke-linecap="round" stroke-linejoin="round"/>
<path d="M94.269 280.804C94.269 280.804 92.0552 291.141 93.5385 292.249C95.0217 293.357 97.2244 295.207 96.1175 298.531C95.4988 300.423 94.7593 302.273 93.9037 304.07" stroke="#263238" stroke-linecap="round" stroke-linejoin="round"/>
<path d="M75.4502 302.597L86.8968 308.868" stroke="#263238" stroke-linecap="round" stroke-linejoin="round"/>
<path d="M96.1182 311.461L106.081 303.705" stroke="#263238" stroke-linecap="round" stroke-linejoin="round"/>
<path d="M121.945 280.438C121.945 280.438 111.982 284.87 106.823 287.817" stroke="#263238" stroke-linecap="round" stroke-linejoin="round"/>
<path d="M117.893 284.87C117.893 284.87 109.037 290.775 105.339 291.518" stroke="#263238" stroke-linecap="round" stroke-linejoin="round"/>
<path d="M62.5421 280.438C62.8553 283.73 61.9318 287.021 59.9516 289.667C57.5342 292.612 54.5143 295.003 51.0955 296.681" stroke="#263238" stroke-linecap="round" stroke-linejoin="round"/>
<path d="M52.9437 278.223C52.9437 278.223 49.9883 298.531 49.9883 309.61C49.9883 320.689 49.623 331.026 49.623 331.026" stroke="#263238" stroke-linecap="round" stroke-linejoin="round"/>
<path d="M47.4092 329.918C47.4092 329.918 48.8815 332.511 58.1141 333.984C67.3466 335.458 72.8707 334.35 72.8707 336.566C72.5827 339.309 72.0905 342.027 71.3983 344.698C67.2071 345.313 62.9343 345.061 58.8447 343.955C54.9232 342.779 51.0997 341.297 47.4092 339.524" stroke="#263238" stroke-linecap="round" stroke-linejoin="round"/>
<path d="M71.3982 344.698C71.3982 344.698 70.2912 362.048 70.6565 364.264C71.0219 366.48 71.0219 368.33 66.9702 367.965C62.9185 367.599 49.9885 362.425 48.5161 360.209" stroke="#263238" stroke-linecap="round" stroke-linejoin="round"/>
<path d="M93.5384 312.934L89.8413 370.546" stroke="#263238" stroke-linecap="round" stroke-linejoin="round"/>
<path d="M120.838 340.997C120.838 340.997 120.472 360.574 120.472 362.425C120.472 364.275 120.107 366.114 123.052 366.114C125.996 366.114 131.177 365.006 131.543 362.79C131.908 360.574 128.963 349.495 128.222 347.279C127.559 344.606 127.067 341.894 126.749 339.158L120.838 340.997Z" fill="#008BB7" stroke="#263238" stroke-linecap="round" stroke-linejoin="round"/>
<path d="M125.642 332.134L120.838 335.092V340.997C120.838 340.997 128.221 340.632 128.221 339.158C128.221 337.685 125.642 332.134 125.642 332.134Z" fill="#008BB7" stroke="#263238" stroke-linecap="round" stroke-linejoin="round"/>
<path d="M72.0401 137.604L72.5937 152.284C71.1931 152.96 69.7012 153.426 68.1656 153.669C65.9515 153.946 56.2651 153.115 47.9624 155.054C39.6598 156.993 35.7852 162.533 33.5711 165.025C31.3571 167.518 27.7593 171.95 24.715 174.443C21.6707 176.936 11.165 184.735 11.165 184.735L16.9769 202.141C17.1513 202.626 17.446 203.058 17.8333 203.397C18.2207 203.736 18.6879 203.971 19.1909 204.08C20.8515 204.357 18.3607 204.634 23.0655 202.972C27.7704 201.31 37.7225 194.109 37.7225 194.109L39.1063 197.986L49.0694 195.77C49.0694 195.77 49.0694 235.656 49.3462 246.181C49.623 256.706 49.0694 269.448 48.7927 271.386C48.5159 273.325 48.2392 274.987 48.2392 274.987C48.2392 274.987 72.3169 283.02 81.4498 281.912C90.5827 280.804 107.465 279.419 112.17 276.372C116.875 273.325 127.945 269.725 127.945 269.725C127.945 269.725 123.24 222.915 123.517 217.652C123.793 212.389 124.347 201.033 124.347 201.033L128.498 173.058C128.498 173.058 149.532 162.533 150.362 162.533C151.492 162.357 152.603 162.079 153.683 161.702C153.683 161.702 148.978 150.899 145.934 143.144C142.89 135.388 140.952 133.727 140.952 133.727L130.159 137.881C126.561 139.266 117.705 142.867 115.491 146.191C113.943 148.393 112.078 150.353 109.956 152.007H101.93L102.206 141.205L72.0401 137.604Z" fill="#66CBFF" stroke="#263238" stroke-linecap="round" stroke-linejoin="round"/>
<path d="M102.483 151.176C102.483 151.176 80.0661 184.968 67.0586 203.803C59.649 214.84 52.9027 226.309 46.8555 238.148L49.623 241.195C49.623 241.195 73.7007 209.896 85.0477 188.846C91.997 175.99 99.762 163.593 108.295 151.73L102.483 151.176Z" fill="#263238" stroke="#263238" stroke-linecap="round" stroke-linejoin="round"/>
<path d="M128.498 173.058L131.542 154.777" stroke="#263238" stroke-linecap="round" stroke-linejoin="round"/>
<path d="M124.735 183.096L124.347 188.292" stroke="#263238" stroke-linecap="round" stroke-linejoin="round"/>
<path d="M126.561 158.932L125.122 178.055" stroke="#263238" stroke-linecap="round" stroke-linejoin="round"/>
<path d="M100.203 184.935C99.616 186.331 98.9962 187.727 98.332 189.123L100.203 184.935Z" fill="white"/>
<path d="M100.203 184.935C99.616 186.331 98.9962 187.727 98.332 189.123" stroke="#263238" stroke-linecap="round" stroke-linejoin="round"/>
<path d="M108.571 156.162C107.154 164.407 104.968 172.501 102.041 180.337L108.571 156.162Z" fill="white"/>
<path d="M108.571 156.162C107.154 164.407 104.968 172.501 102.041 180.337" stroke="#263238" stroke-linecap="round" stroke-linejoin="round"/>
<path d="M94.3022 215.547C93.4721 217.164 92.6087 218.793 91.6899 220.422" stroke="#263238" stroke-linecap="round" stroke-linejoin="round"/>
<path d="M108.295 175.274C105.647 188.079 101.477 200.521 95.8745 212.334" stroke="#263238" stroke-linecap="round" stroke-linejoin="round"/>
<path d="M84.7709 207.404C84.7709 207.404 76.1915 221.53 75.0845 224.577" stroke="#263238" stroke-linecap="round" stroke-linejoin="round"/>
<path d="M49.0698 195.77L59.033 191.616" stroke="#263238" stroke-linecap="round" stroke-linejoin="round"/>
<path d="M103.38 152.007H101.93L102.206 141.205L72.04 137.604L72.5935 152.284C72.5935 152.284 78.4054 163.363 88.9221 163.64C98.0993 163.884 102.428 154.422 103.38 152.007Z" fill="#FFBE9D" stroke="#263238" stroke-linecap="round" stroke-linejoin="round"/>
<path d="M108.838 109.242C108.838 109.242 107.952 135.355 108.173 140.264C108.395 145.172 103.745 152.451 98.8854 155.775C96.7965 157.165 94.3524 157.925 91.844 157.964C89.3357 158.004 86.869 157.32 84.7377 155.996C81.1952 153.78 74.7745 148.473 73.6674 145.161C72.5604 141.848 71.6748 128.542 71.6748 126.791C71.6748 125.041 73.2246 116.609 78.3169 114.604C81.0783 113.612 83.6284 112.109 85.8336 110.172L84.2838 113.718C84.2838 113.718 89.5864 113.274 92.6861 111.502C94.7357 110.296 96.6603 108.89 98.4315 107.303L98.6529 110.394C98.6529 110.394 102.417 111.502 103.745 110.172C105.074 108.843 106.181 107.956 106.181 107.956L108.838 109.242Z" fill="#FFBE9D" stroke="#263238" stroke-linecap="round" stroke-linejoin="round"/>
<path d="M88.8776 131.145C88.8776 132.253 88.2135 133.228 87.3944 133.228C86.5753 133.228 85.9111 132.297 85.9111 131.145C85.9111 129.993 86.5753 129.073 87.3944 129.073C88.2135 129.073 88.8776 130.004 88.8776 131.145Z" fill="#263238"/>
<path d="M104.332 130.126C104.332 131.234 103.668 132.209 102.848 132.209C102.029 132.209 101.365 131.278 101.365 130.126C101.365 128.974 102.029 128.054 102.848 128.054C103.668 128.054 104.332 128.941 104.332 130.126Z" fill="#263238"/>
<path d="M93.3613 139.998C94.0255 140.662 97.9997 141.327 98.8964 139.333C99.7931 137.339 98.2322 128.486 98.2322 128.486L100.003 124.287C100.003 124.287 101.775 121.185 105.76 122.736" stroke="#263238" stroke-linecap="round" stroke-linejoin="round"/>
<path d="M98.8859 144.873C98.8859 144.873 93.5832 145.094 90.705 146.413C87.8267 147.731 90.4836 148.185 90.4836 148.185C90.4836 148.185 97.1257 148.185 97.7899 147.299C98.4541 146.413 99.3287 146.413 98.8859 144.873Z" stroke="#263238" stroke-linecap="round" stroke-linejoin="round"/>
<path d="M90.7036 125.395C90.7036 125.395 85.1691 124.065 82.3022 126.059" stroke="#263238" stroke-linecap="round" stroke-linejoin="round"/>
<path d="M24.715 174.443C21.6707 176.936 11.165 184.735 11.165 184.735L16.9769 202.141C17.1513 202.626 17.446 203.058 17.8333 203.397C18.2207 203.736 18.6879 203.971 19.1909 204.08C20.8515 204.357 18.3607 204.634 23.0655 202.972C27.7704 201.31 37.7225 194.108 37.7225 194.108L26.3091 173.002C25.7666 173.523 25.2685 174.022 24.715 174.443Z" stroke="#263238" stroke-linecap="round" stroke-linejoin="round"/>
<path d="M157.004 100.766C142.89 98.5498 116.321 99.6577 116.321 99.6577C116.321 99.6577 109.402 91.0713 107.188 88.8555C104.974 86.6396 103.867 84.9777 99.7159 85.5317C95.5645 86.0856 90.8597 86.6396 88.9224 86.9166C86.9851 87.1936 86.9851 92.1792 86.9851 92.1792C86.9851 92.1792 86.9851 94.9491 88.9224 95.78C90.8597 96.6109 91.6899 95.78 91.6899 95.78L93.0737 94.6721L98.0553 95.226L99.1623 97.1538C101.609 98.9819 107.509 103.336 109.679 104.643C112.447 106.305 115.491 105.751 119.089 106.859C125.932 109.23 132.592 112.1 139.015 115.446C143.325 117.934 147.401 120.808 151.192 124.032L141.008 133.771C141.318 134.081 143.166 136.086 145.934 143.144C147.229 146.468 148.834 150.312 150.24 153.658C155.122 149.138 165.739 139.255 169.735 133.449C174.717 126.248 184.957 114.061 184.68 112.399C184.403 110.737 171.119 102.982 157.004 100.766Z" fill="#FFBE9D" stroke="#263238" stroke-linecap="round" stroke-linejoin="round"/>
<path d="M98.0553 88.3013C98.0553 88.3013 91.6899 90.5171 90.3062 91.0711C88.9224 91.625 86.7083 90.5171 86.9851 92.179" stroke="#263238" stroke-linecap="round" stroke-linejoin="round"/>
<path d="M151.192 124.032C151.192 124.032 156.451 124.863 162.816 120.708" stroke="#263238" stroke-linecap="round" stroke-linejoin="round"/>
<path d="M122.687 99.9347L121.856 107.69L126.837 109.906L128.221 99.6577L122.687 99.9347Z" fill="#263238" stroke="#263238" stroke-linecap="round" stroke-linejoin="round"/>
<path d="M127.982 96.5617L122.778 96.2387C122.284 96.208 121.858 96.5841 121.828 97.0788L121.765 98.0851C121.735 98.5798 122.111 99.0057 122.605 99.0363L127.808 99.3594C128.302 99.3901 128.728 99.014 128.759 98.5193L128.821 97.513C128.852 97.0183 128.476 96.5924 127.982 96.5617Z" fill="#263238" stroke="#263238" stroke-linecap="round" stroke-linejoin="round"/>
<path d="M60.4165 132.065L74.531 152.008L79.7894 140.097L66.5051 121.54L60.4165 132.065Z" fill="#263238" stroke="#263238" stroke-linecap="round" stroke-linejoin="round"/>
<path d="M69.7045 143.099C69.7045 143.099 69.9259 153.946 67.7118 158.367C65.4978 162.787 26.8627 200.357 21.7815 203.459C16.7003 206.562 9.60428 205.886 8.06552 203.016C6.52676 200.147 6.07288 189.721 8.28693 186.198C10.501 182.675 55.1582 157.259 57.3722 155.929C59.5863 154.6 58.2579 150.179 58.0365 145.315C57.8151 140.452 57.8151 136.241 58.9221 134.469C60.0291 132.696 66.4388 127.389 68.21 126.503C69.9812 125.616 72.8484 123.622 73.5126 125.616C74.1768 127.611 73.0698 128.264 73.0698 128.264C73.0698 128.264 74.3982 128.264 73.9554 130.702C73.5126 133.139 68.4203 137.349 68.4203 137.349C70.7005 136.379 72.9187 135.269 75.0625 134.026C76.1695 133.139 76.6123 134.912 75.2839 136.906C73.9554 138.9 69.9812 140.884 69.9812 140.884L69.7045 143.099Z" fill="#FFBE9D" stroke="#263238" stroke-linecap="round" stroke-linejoin="round"/>
<path d="M73.0145 128.265C73.0145 128.265 63.0514 136.707 62.7414 137.46C62.31 138.224 61.8058 138.944 61.2358 139.61" fill="white"/>
<path d="M73.0145 128.265C73.0145 128.265 63.0514 136.707 62.7414 137.46C62.31 138.224 61.8058 138.944 61.2358 139.61" stroke="#263238" stroke-linecap="round" stroke-linejoin="round"/>
<path d="M68.6417 126.492C68.6417 126.492 61.6564 133.804 60.6933 135.355C60.1909 136.103 59.7609 136.897 59.4092 137.726" fill="white"/>
<path d="M68.6417 126.492C68.6417 126.492 61.6564 133.804 60.6933 135.355C60.1909 136.103 59.7609 136.897 59.4092 137.726" stroke="#263238" stroke-linecap="round" stroke-linejoin="round"/>
<path d="M68.3757 137.338C68.3757 137.338 64.7782 139.61 64.6675 140.363C64.6066 140.818 64.4601 141.258 64.2358 141.659" fill="white"/>
<path d="M68.3757 137.338C68.3757 137.338 64.7782 139.61 64.6675 140.363C64.6066 140.818 64.4601 141.258 64.2358 141.659" stroke="#263238" stroke-linecap="round" stroke-linejoin="round"/>
<path d="M209.588 228.177V331.214" stroke="#263238" stroke-width="4" stroke-linecap="round" stroke-linejoin="round"/>
<path d="M246.12 228.177V225.684C246.12 223.848 245.391 222.087 244.093 220.788C242.796 219.489 241.036 218.76 239.201 218.76H216.507C214.672 218.76 212.912 219.489 211.614 220.788C210.317 222.087 209.588 223.848 209.588 225.684V228.177" stroke="#263238" stroke-width="6" stroke-linecap="round" stroke-linejoin="round"/>
<path d="M246.119 329.553V228.177" stroke="#263238" stroke-width="4" stroke-linecap="round" stroke-linejoin="round"/>
<path d="M216.23 473.582C219.287 473.582 221.765 471.102 221.765 468.043C221.765 464.983 219.287 462.503 216.23 462.503C213.173 462.503 210.695 464.983 210.695 468.043C210.695 471.102 213.173 473.582 216.23 473.582Z" fill="#263238" stroke="#263238" stroke-linecap="round" stroke-linejoin="round"/>
<path d="M215.609 467.944C215.12 467.944 214.635 467.847 214.184 467.659C213.732 467.471 213.321 467.196 212.976 466.849C212.63 466.503 212.356 466.091 212.17 465.638C211.984 465.185 211.889 464.7 211.89 464.21V457.341H219.34V464.21C219.34 465.2 218.947 466.15 218.247 466.85C217.547 467.55 216.599 467.944 215.609 467.944Z" fill="#636363" stroke="#263238" stroke-linecap="round" stroke-linejoin="round"/>
<path d="M173.676 473.582C176.733 473.582 179.211 471.102 179.211 468.043C179.211 464.983 176.733 462.503 173.676 462.503C170.619 462.503 168.141 464.983 168.141 468.043C168.141 471.102 170.619 473.582 173.676 473.582Z" fill="#263238" stroke="#263238" stroke-linecap="round" stroke-linejoin="round"/>
<path d="M173.056 467.944C172.066 467.944 171.118 467.55 170.418 466.85C169.718 466.15 169.325 465.2 169.325 464.21V457.341H176.786V464.21C176.786 464.7 176.689 465.186 176.502 465.639C176.315 466.092 176.04 466.503 175.693 466.85C175.347 467.197 174.936 467.472 174.483 467.659C174.031 467.847 173.546 467.944 173.056 467.944Z" fill="#636363" stroke="#263238" stroke-linecap="round" stroke-linejoin="round"/>
<path d="M242.799 473.582C245.855 473.582 248.334 471.102 248.334 468.043C248.334 464.983 245.855 462.503 242.799 462.503C239.742 462.503 237.263 464.983 237.263 468.043C237.263 471.102 239.742 473.582 242.799 473.582Z" fill="#263238" stroke="#263238" stroke-linecap="round" stroke-linejoin="round"/>
<path d="M242.178 467.944C241.689 467.944 241.204 467.847 240.752 467.659C240.3 467.471 239.89 467.196 239.544 466.849C239.199 466.503 238.925 466.091 238.739 465.638C238.552 465.185 238.457 464.7 238.459 464.21V457.341H245.908V464.21C245.908 465.2 245.515 466.15 244.816 466.85C244.116 467.55 243.167 467.944 242.178 467.944Z" fill="#636363" stroke="#263238" stroke-linecap="round" stroke-linejoin="round"/>
<path d="M199.691 473.582C202.748 473.582 205.226 471.102 205.226 468.043C205.226 464.983 202.748 462.503 199.691 462.503C196.634 462.503 194.156 464.983 194.156 468.043C194.156 471.102 196.634 473.582 199.691 473.582Z" fill="#263238" stroke="#263238" stroke-linecap="round" stroke-linejoin="round"/>
<path d="M199.071 467.944C198.081 467.944 197.132 467.55 196.433 466.85C195.733 466.15 195.34 465.2 195.34 464.21V457.341H202.801V464.21C202.801 465.2 202.408 466.15 201.708 466.85C201.009 467.55 200.06 467.944 199.071 467.944Z" fill="#636363" stroke="#263238" stroke-linecap="round" stroke-linejoin="round"/>
<path d="M219.075 460.841H166.757C162.24 460.841 158.598 456.697 158.664 451.645L160.159 334.061C160.214 329.109 163.823 325.12 168.251 325.12H217.58C222.008 325.12 225.617 329.109 225.684 334.061L227.167 451.645C227.233 456.697 223.591 460.841 219.075 460.841Z" fill="#66CBFF" stroke="#263238" stroke-linecap="round" stroke-linejoin="round"/>
<path d="M248.256 460.841H212.831C209.776 460.841 207.296 456.697 207.352 451.645L208.359 334.061C208.359 329.109 210.839 325.12 213.894 325.12H247.282C250.282 325.12 252.717 329.109 252.762 334.061L253.769 451.645C253.78 456.697 251.312 460.841 248.256 460.841Z" fill="#66CBFF" stroke="#263238" stroke-linecap="round" stroke-linejoin="round"/>
<path d="M235.049 325.12H230.068V460.841H235.049V325.12Z" fill="#263238" stroke="#263238" stroke-linecap="round" stroke-linejoin="round"/>
<path d="M235.049 325.121C227.3 326.229 203.499 332.876 186.34 332.876H184.99C168.572 332.732 157.524 329.863 156.451 320.689C155.919 316.135 158.233 311.449 162.583 307.505C167.222 303.306 174.185 299.96 182.51 298.531C198.562 295.761 220.149 294.099 220.149 294.099C220.149 294.099 241.736 291.883 248.378 302.408C255.02 312.934 242.798 324.013 235.049 325.121Z" fill="white" stroke="#263238" stroke-linecap="round" stroke-linejoin="round"/>
<path d="M219.551 299.638C215.123 302.408 196.857 302.962 183.573 310.717C170.288 318.473 170.288 330.106 183.019 332.322C183.695 332.422 184.357 332.605 184.99 332.865C168.572 332.721 157.524 329.851 156.451 320.677C155.919 316.124 158.233 311.437 162.583 307.493C167.994 304.218 174.026 302.105 180.296 301.289C201.883 298.519 214.06 299.073 214.06 299.073C214.06 299.073 223.979 296.868 219.551 299.638Z" fill="white" stroke="#263238" stroke-linecap="round" stroke-linejoin="round"/>
<path d="M198.44 323.437C214.326 321.442 238.193 319.26 247.78 310.142" stroke="#263238" stroke-linecap="round" stroke-linejoin="round"/>
<path d="M176.93 324.013C176.93 324.013 178.381 325.95 191.233 324.389" stroke="#263238" stroke-linecap="round" stroke-linejoin="round"/>
<path d="M236.709 316.257C234.854 318.12 233.185 320.161 231.728 322.35" stroke="#263238" stroke-linecap="round" stroke-linejoin="round"/>
<path d="M216.783 320.135C216.783 320.135 217.337 323.459 215.676 325.12" stroke="#263238" stroke-linecap="round" stroke-linejoin="round"/>
<path d="M156.451 320.688C156.451 320.688 163.646 326.228 170.288 325.12" stroke="#263238" stroke-linecap="round" stroke-linejoin="round"/>
</svg>
