<svg width="250" height="154" viewBox="0 0 250 154" fill="none" xmlns="http://www.w3.org/2000/svg">
<path fill-rule="evenodd" clip-rule="evenodd" d="M173.403 3.4074C170.634 7.33477 163.27 15.7968 160.664 18.0462C157.168 21.0633 149.866 26.0091 148.451 26.319C141.932 27.746 138.668 29.6493 136.032 33.5619C134.524 35.799 134.186 36.8543 134.186 39.3162C134.186 40.9743 134.449 43.0209 134.77 43.8644C135.3 45.254 135.046 45.8018 132.072 49.6872C130.267 52.046 127.271 55.5043 125.416 57.3726L122.043 60.7686L121.551 59.0924C120.833 56.6424 121.532 49.2623 122.902 44.8353C126.615 32.8312 135 23.3518 144.588 20.3195C146.428 19.7372 146.904 19.77 147.756 20.5398C149.126 21.7753 150.508 21.6768 150.942 20.3121C151.852 17.4531 149.027 14.674 143.472 12.9627C133.845 9.9972 125.501 13.2856 117.559 23.1751C114.841 26.5586 111.204 33.9568 110.333 37.8728C109.952 39.5864 109.381 41.4796 109.064 42.08C108.308 43.5166 85.3713 72.9058 84.6693 73.338C83.4054 74.1175 87.0913 58.1815 90.4369 48.4024C93.1605 40.4412 96.7941 30.6729 97.8302 28.526C98.1307 27.9029 99.2423 25.3152 100.301 22.7757L102.224 18.1584L100.853 17.5358C100.1 17.1937 98.5073 16.9133 97.315 16.9133C96.1227 16.9133 93.7973 16.6578 92.1472 16.3457C90.1756 15.9729 88.9157 15.9695 88.4727 16.3366C87.6587 17.0101 84.3989 24.6066 79.3543 37.5862C75.168 48.3577 70.2297 57.8846 65.8344 63.6689C62.9125 67.5147 58.9267 71.2036 58.3326 70.6116C57.9281 70.2077 72.8147 25.7372 76.5136 16.2981C76.7982 15.5724 76.07 15.2167 72.7227 14.4491C70.4438 13.9257 67.3021 13.1553 65.7406 12.7355L62.9017 11.9736L61.8775 14.5851C61.3146 16.0211 58.7171 23.5693 56.1059 31.3584C51.092 46.3155 49.5141 50.2633 43.9958 61.6647C39.0393 71.9049 31.2728 83.1907 29.1819 83.1907C28.3753 83.1907 31.8175 64.0921 34.2872 54.867C38.7785 38.0892 46.4286 14.4157 47.9674 12.5327C48.6189 11.7351 48.3048 11.5907 39.5386 8.64785C31.93 6.09362 29.3375 6.10892 24.0652 8.73906C17.0865 12.2212 7.30641 23.0641 2.62595 32.5083C0.809425 36.1728 0.457823 37.504 0.247088 41.5039L0 46.1983L1.8665 47.5233C3.37005 48.5911 4.66967 48.8981 8.5515 49.1009L13.37 49.3535L12.9468 48.0031C11.7807 44.2825 11.9068 43.6429 14.9184 38.0371C18.9263 30.5755 23.2955 24.0424 26.6321 20.5212C29.4875 17.5075 32.5105 15.2682 32.5105 16.1655C32.5105 16.4493 31.2165 20.6208 29.6352 25.4359C21.2103 51.0887 13.6012 83.3154 13.5682 93.4819C13.5421 101.594 14.2868 102.923 20.5196 105.891C23.9476 107.523 25.6608 108.063 26.26 107.7C26.7298 107.415 31.4596 100.707 36.7706 92.7925L46.4269 78.4023L46.7109 82.2566C46.9716 85.7971 47.1614 86.2633 49.0358 87.9757C50.1582 89.0011 52.5831 90.4025 54.4252 91.0896L57.7742 92.3393L59.2005 90.6841C59.9855 89.7737 61.1386 88.3077 61.7634 87.4257C62.3882 86.5437 63.6662 84.8732 64.6035 83.713C66.2689 81.6522 71.9633 73.8422 72.8829 72.3581C73.4395 71.4602 73.5128 71.5304 75.0294 74.4104C76.7392 77.658 77.3804 78.3451 80.5318 80.3057C84.6562 82.8718 87.7229 84.2971 89.1503 84.3112C92.162 84.3412 96.9379 77.9752 103.849 64.7186C105.943 60.7023 107.839 57.2088 108.062 56.9556C108.286 56.7024 108.64 57.7759 108.847 59.341C109.314 62.8487 111.778 66.2781 115.743 68.9388C120.609 72.2034 123.245 70.9084 133.597 60.1692C143.105 50.3058 149.29 41.364 151.265 34.6247C151.868 32.5684 152.665 31.7152 156.851 28.6427C159.537 26.6719 162.068 24.8592 162.477 24.6145C162.886 24.3703 162.052 26.4901 160.624 29.3247C153.948 42.5825 146.712 59.4277 142.957 70.4564C142.111 72.9427 141.25 75.1661 141.044 75.3972C140.838 75.6283 136.463 76.8513 131.322 78.114C113.944 82.3829 102.534 85.9506 83.348 93.1137C72.0428 97.3345 66.7239 99.4276 61.7634 101.609C59.7168 102.508 44.7461 108.895 40.7467 110.575C34.114 113.361 18.1868 121.741 13.1979 125.07C4.8378 130.648 2.97471 132.335 1.4138 135.735C0.132917 138.524 0.0323768 139.318 0.256744 144.838C0.500423 150.823 1.35359 154 2.71683 154C3.09967 154 4.58049 153.171 6.00735 152.159C34.0288 132.272 61.4618 117.396 91.8683 105.6C98.1165 103.176 103.74 100.99 104.365 100.742C111.872 97.765 136.341 89.6837 136.716 90.0575C136.897 90.2382 136.658 92.2249 136.184 94.4726C134.959 100.28 135.059 104.443 136.479 106.734C137.711 108.722 142.559 111.514 144.78 111.514C146.17 111.514 146.027 111.989 147.26 103.301C147.614 100.808 148.126 97.8766 148.399 96.7861C148.671 95.6956 149.426 92.5092 150.076 89.7052C152.349 79.9052 157.055 65.7122 160.567 58.0682C169.445 38.7446 176.995 27.3579 185.701 20.1603C189.024 17.4123 194.449 14.444 197.424 13.7461L199.031 13.3688L198.636 16.1321C198.419 17.6525 197.695 20.5427 197.028 22.5548L195.815 26.2142L191.409 27.7437C179.967 31.7158 173.379 38.6342 173.379 46.6775C173.379 48.6987 173.751 50.9045 174.265 51.9327C176.599 56.5993 183.991 60.0871 188.844 58.8114C191.772 58.0416 195.369 56.0243 197.044 54.2128C200.24 50.7544 207.049 37.9918 208.214 33.2747C208.504 32.0982 209.02 31.7198 210.718 31.4399C214.821 30.7636 214.624 30.4775 214.371 36.7659C214.126 42.8482 214.84 45.9037 217.204 48.9021C220.129 52.6108 227.102 53.9505 232.567 51.8534C238.531 49.5654 244.927 39.7796 248.37 27.6774C250.386 20.5886 250.513 16.7535 248.857 12.9157C247.029 8.67731 244.839 7.56022 238.417 7.59025C234.037 7.61064 232.897 7.82647 230.465 9.09367C225.655 11.5986 221.526 16.1338 218.319 22.4364L217.093 24.8439H213.697H210.3V18.3113C210.3 11.1789 209.655 8.73113 207.061 6.03131C205.082 3.96991 200.533 2.99898 197.135 3.91156C192.589 5.13232 186.543 8.82063 182.548 12.8109C181.5 13.8583 180.531 14.6055 180.396 14.4701C180.261 14.3353 180.799 12.5055 181.593 10.4034C182.386 8.30174 183.035 5.7645 183.035 4.76524C183.035 2.41324 181.002 0.484397 178.121 0.103726C175.979 -0.180077 175.884 -0.113799 173.403 3.4074ZM242.719 20.98C243.307 22.395 243.257 23.2006 242.417 25.8828C240.85 30.8842 238.427 35.6568 236.071 38.386C233.712 41.1181 229.402 44.104 227.817 44.104C225.26 44.104 225.042 38.1815 227.371 31.9753C228.333 29.4086 228.975 28.5787 230.659 27.7216C233.656 26.1967 235.769 23.8883 236.44 21.406C236.91 19.6629 237.317 19.216 238.571 19.0636C241.064 18.7611 241.971 19.1797 242.719 20.98ZM189.86 39.6889C187.614 44.0712 184.39 49.2023 183.882 49.2023C183.129 49.2023 181.331 46.5161 181.331 45.3911C181.331 43.4928 183.187 40.1534 185.399 38.0711C187.755 35.8539 191.765 33.6854 192.033 34.4847C192.14 34.8059 191.162 37.1477 189.86 39.6889ZM186.37 69.6299C177.369 70.095 163.583 71.595 160.189 72.4787C157.942 73.0639 157.882 73.18 156.378 79.7919C155.446 83.8881 155.542 84.382 157.153 83.7714C159.879 82.7381 178.254 79.1268 186.127 78.0777C193.299 77.1221 213.236 75.8294 220.842 75.8277C226.182 75.826 227.01 73.4661 222.444 71.2619C218.35 69.2855 204.85 68.6748 186.37 69.6299Z" fill="#EB0E0E"/>
</svg>
