<svg width="835" height="35" viewBox="0 0 835 35" fill="none" xmlns="http://www.w3.org/2000/svg">
<rect width="35" height="35" rx="17.5" fill="#009CD3"/>
<path d="M17.518 22V12.9L18.316 13.726H15.446V12.2H19.338V22H17.518Z" fill="white"/>
<rect x="400" width="35" height="35" rx="17.5" fill="#009CD3"/>
<path d="M413.916 22V20.782L417.808 17.086C418.134 16.778 418.377 16.5073 418.536 16.274C418.694 16.0407 418.797 15.826 418.844 15.63C418.9 15.4247 418.928 15.2333 418.928 15.056C418.928 14.608 418.774 14.2627 418.466 14.02C418.158 13.768 417.705 13.642 417.108 13.642C416.632 13.642 416.198 13.726 415.806 13.894C415.423 14.062 415.092 14.3187 414.812 14.664L413.538 13.684C413.92 13.1707 414.434 12.774 415.078 12.494C415.731 12.2047 416.459 12.06 417.262 12.06C417.971 12.06 418.587 12.1767 419.11 12.41C419.642 12.634 420.048 12.956 420.328 13.376C420.617 13.796 420.762 14.2953 420.762 14.874C420.762 15.1913 420.72 15.5087 420.636 15.826C420.552 16.134 420.393 16.4607 420.16 16.806C419.926 17.1513 419.586 17.5387 419.138 17.968L415.792 21.146L415.414 20.46H421.14V22H413.916Z" fill="white"/>
<rect x="800" width="35" height="35" rx="17.5" fill="#009CD3"/>
<path d="M817.122 22.14C816.431 22.14 815.754 22.042 815.092 21.846C814.438 21.6407 813.888 21.3607 813.44 21.006L814.224 19.592C814.578 19.8813 815.008 20.1147 815.512 20.292C816.016 20.4693 816.543 20.558 817.094 20.558C817.747 20.558 818.256 20.4273 818.62 20.166C818.984 19.8953 819.166 19.5313 819.166 19.074C819.166 18.626 818.998 18.2713 818.662 18.01C818.326 17.7487 817.784 17.618 817.038 17.618H816.142V16.372L818.942 13.04L819.18 13.726H813.916V12.2H820.594V13.418L817.794 16.75L816.842 16.19H817.388C818.592 16.19 819.492 16.4607 820.09 17.002C820.696 17.534 821 18.22 821 19.06C821 19.6107 820.86 20.1193 820.58 20.586C820.3 21.0527 819.87 21.4307 819.292 21.72C818.722 22 817.999 22.14 817.122 22.14Z" fill="white"/>
<line x1="40" y1="17" x2="395" y2="17" stroke="#009CD3" stroke-width="2"/>
<line x1="440" y1="17" x2="795" y2="17" stroke="#009CD3" stroke-width="2"/>
</svg>
